<?xml version="1.0" encoding="UTF-8" standalone="no"?>
<!-- Created with Inkscape (http://www.inkscape.org/) -->

<svg
   version="1.1"
   id="svg2"
   xml:space="preserve"
   width="890.28003"
   height="518.33331"
   viewBox="0 0 890.28003 518.33331"
   sodipodi:docname="about.svg"
   inkscape:version="1.1 (1:1.1+202105261517+ce6663b3b7)"
   xmlns:inkscape="http://www.inkscape.org/namespaces/inkscape"
   xmlns:sodipodi="http://sodipodi.sourceforge.net/DTD/sodipodi-0.dtd"
   xmlns="http://www.w3.org/2000/svg"
   xmlns:svg="http://www.w3.org/2000/svg"><defs
     id="defs6"><clipPath
       clipPathUnits="userSpaceOnUse"
       id="clipPath24"><path
         d="m 6593.69,303.23 c -21.77,58.5 -84.02,105.899 -157.53,144.77 -131.28,-89.602 -317.32,-145.621 -523.8,-145.621 -206.46,0 -392.48,56.012 -523.77,145.601 C 5315.08,409.109 5252.8,361.738 5231.03,303.23 5171.13,142.25 5148.67,0 5148.67,0 h 756.2 14.98 756.2 c 0,0 -22.46,142.25 -82.36,303.23"
         id="path22" /></clipPath><clipPath
       clipPathUnits="userSpaceOnUse"
       id="clipPath144"><path
         d="m 3160.36,303.23 c -21.77,58.5 -84.02,105.899 -157.53,144.77 -131.29,-89.602 -317.32,-145.621 -523.8,-145.621 -206.46,0 -392.49,56.012 -523.77,145.601 C 1881.75,409.109 1819.47,361.738 1797.7,303.23 1737.8,142.25 1715.34,0 1715.34,0 h 756.2 14.98 756.2 c 0,0 -22.46,142.25 -82.36,303.23"
         id="path142" /></clipPath><clipPath
       clipPathUnits="userSpaceOnUse"
       id="clipPath200"><path
         d="M 1445.02,303.23 C 1391,448.391 1087.88,525.148 981.805,573.051 c 1.035,0.57 1.734,0.961 1.734,0.961 -46.406,25.519 -58.012,92.82 -58.012,92.82 L 589.059,650.582 C 577.453,599.531 526.586,566.52 526.586,566.52 l 1.562,-0.911 C 409.66,517.27 133.66,441.109 82.3594,303.23 22.4609,142.25 0,0 0,0 h 756.203 14.973 756.204 c 0,0 -22.46,142.25 -82.36,303.23"
         id="path198" /></clipPath><clipPath
       clipPathUnits="userSpaceOnUse"
       id="clipPath384"><path
         d="m 4880.27,2418.12 c -57.92,155.66 -402.34,232.68 -483.04,279.78 -63.73,-37.06 -141.46,-58.91 -225.44,-58.91 -72.96,0 -141.22,16.49 -199.69,45.11 -113.1,-48.14 -401.9,-124.64 -454.49,-265.98 -59.9,-160.97 -82.36,-303.23 -82.36,-303.23 h 756.21 14.97 756.2 c 0,0 -22.46,142.26 -82.36,303.23"
         id="path382" /></clipPath><clipPath
       clipPathUnits="userSpaceOnUse"
       id="clipPath460"><path
         d="m 3165.79,2418.12 c -57.92,155.66 -402.34,232.68 -483.04,279.78 -5.46,-3.17 -11.15,-6.07 -16.81,-9.02 l -177.31,-199.83 -245.17,189.25 c -121.29,-48.45 -389.8,-124.37 -440.33,-260.18 -59.9,-160.97 -82.36,-303.23 -82.36,-303.23 h 1527.38 c 0,0 -22.46,142.26 -82.36,303.23"
         id="path458" /></clipPath></defs><sodipodi:namedview
     id="namedview4"
     pagecolor="#ffffff"
     bordercolor="#666666"
     borderopacity="1.0"
     inkscape:pageshadow="2"
     inkscape:pageopacity="0.0"
     inkscape:pagecheckerboard="0"
     showgrid="false"
     inkscape:zoom="1.530979"
     inkscape:cx="509.47793"
     inkscape:cy="247.88061"
     inkscape:window-width="1920"
     inkscape:window-height="1056"
     inkscape:window-x="0"
     inkscape:window-y="24"
     inkscape:window-maximized="1"
     inkscape:current-layer="g800" /><g
     id="g8"
     inkscape:groupmode="layer"
     inkscape:label="ink_ext_XXXXXX"
     transform="matrix(1.3333333,0,0,-1.3333333,0,518.33333)"><g
       id="g800"
       transform="translate(-523.96497,137.49148)"><path
         d="m 827.55877,228.33202 c 0,0 30.25354,13.5167 54.08797,0.89986 23.83676,-12.61683 39.42171,-63.08653 61.42343,-82.914 22.00176,-19.82747 39.0943,-43.39333 26.25836,-65.922484 -12.83349,-22.532457 -25.342,-20.59541 -12.5084,-52.137971 12.83583,-31.5444421 -40.89404,-39.072377 -29.89318,-62.504682 0,0 -27.86021,51.688032 -19.61074,96.751759 8.25183,45.060668 -14.6686,152.308478 -51.33658,148.704338 l -33.00259,1.80207 4.58173,15.32111"
         style="fill:#a1444b;fill-opacity:1;fill-rule:nonzero;stroke:none;stroke-width:0.235565"
         id="path84" /><path
         d="m 837.64329,240.94886 c 0,0 14.98425,23.64597 46.88441,2.37449 15.66504,-10.44728 22.34565,-35.88118 51.20702,-50.1399 31.68579,-15.65327 37.14858,-30.32893 23.96167,-53.17162 -8.15531,-14.12681 16.99112,-11.366 4.56282,-46.492901 -9.71235,-27.450807 -93.61334,122.193901 -93.61334,122.193901 l -34.83527,4.50636 1.83269,20.72967"
         style="fill:#a1444b;fill-opacity:1;fill-rule:nonzero;stroke:none;stroke-width:0.235565"
         id="path86" /><path
         d="m 935.15286,136.15563 c 0,0 24.76017,-19.98058 16.99835,-43.593802 -7.75949,-23.612516 -29.93084,-32.33123 -14.41185,-65.390355 15.52131,-33.0588877 -14.40947,-41.414125 -14.40947,-41.414125 0,0 -72.42902,5.0858385 -63.56002,81.738061 8.869,76.652931 46.38736,78.966171 46.38736,78.966171 l 28.99563,-10.30595"
         style="fill:#883840;fill-opacity:1;fill-rule:nonzero;stroke:none;stroke-width:0.235565"
         id="path88" /><path
         d="m 935.15286,136.15563 c 0,0 24.76017,-19.98058 16.99835,-43.593802 -7.75949,-23.612516 -29.93084,-32.33123 -14.41185,-65.390355 15.52131,-33.0588877 -14.40947,-41.414125 -14.40947,-41.414125 0,0 -72.42902,5.0858385 -63.56002,81.738061 8.869,76.652931 46.38736,78.966171 46.38736,78.966171 l 28.99563,-10.30595"
         style="fill:#883840;fill-opacity:1;fill-rule:nonzero;stroke:none;stroke-width:0.235565"
         id="path90" /><path
         d="m 750.52447,192.89606 c 0,0 -27.6223,-26.75307 -25.78962,-52.60156 1.83035,-25.84613 -6.23537,-45.310836 -19.58483,-56.883643 -13.34943,-11.573996 -12.77466,-36.329471 0.0566,-50.76981 0,0 -7.04102,16.033226 1.02706,35.495803 0,0 -11.78529,-66.9592134 56.0997,-75.1358926 0,0 -2.4334,1.008451 -9.72412,20.5650156 0,0 3.68187,-18.6307955 45.21898,-21.590193 41.53709,-2.961046 62.37983,52.832645 42.77379,112.84507 -19.60368,60.01006 -58.53071,76.14386 -58.53071,76.14386 l -31.54679,11.93135"
         style="fill:#883840;fill-opacity:1;fill-rule:nonzero;stroke:none;stroke-width:0.235565"
         id="path92" /><path
         d="m 996.77645,-67.548306 c -14.00654,37.642497 -99.67668,55.620782 -114.67979,66.532131 -19.25975,14.006901 -13.13035,60.403923 -13.13035,60.403923 l -31.51617,-0.828951 -31.51383,0.828951 c 0,0 6.12702,-46.397022 -13.13272,-60.403923 C 777.80283,-11.927524 692.13273,-29.905809 678.12607,-67.548306 664.1194,-105.19175 658.86631,-138.45606 658.86631,-138.45606 h 176.83356 3.50286 176.83357 c 0,0 -5.2531,33.26431 -19.25985,70.907754"
         style="fill:#fcd0b0;fill-opacity:1;fill-rule:nonzero;stroke:none;stroke-width:0.235565"
         id="path94" /><path
         d="m 800.09666,7.6288066 c 14.75341,1.5083185 29.58455,4.4969254 42.42989,11.6816454 9.36133,5.236832 17.79217,11.420402 25.61764,18.381569 -0.46172,11.924511 0.82212,21.695727 0.82212,21.695727 l -31.51617,-0.828951 -31.51383,0.828951 c 0,0 4.36029,-33.021434 -5.83965,-51.7589414"
         style="fill:#e8b99d;fill-opacity:1;fill-rule:nonzero;stroke:none;stroke-width:0.235565"
         id="path96" /><path
         d="m 999.26169,-67.025824 c -13.64386,36.665376 -94.77932,54.811146 -113.78702,65.9067075 -15.0149,-8.7307283 -33.32531,-13.8771065 -53.10567,-13.8771065 -17.18914,0 -33.26877,3.883987 -47.03987,10.6260795 C 758.68441,-15.710455 690.65573,-33.731136 678.2674,-67.025824 664.15709,-104.947 658.86631,-138.45606 658.86631,-138.45606 h 178.13389 3.5264 178.1363 c 0,0 -5.2909,33.50906 -19.40121,71.430236"
         style="fill:#5b94c0;fill-opacity:1;fill-rule:nonzero;stroke:none;stroke-width:0.235565"
         id="path98" /><path
         d="m 784.53291,131.7176 c -5.09055,15.78988 -17.14203,12.13392 -18.27039,11.75467 -1.18489,-0.13898 -13.64153,-1.98817 -11.49084,-18.44 2.1672,-16.54841 11.76882,-25.516332 20.77209,-22.88273 9.26475,1.46992 14.1103,13.68393 8.98914,29.56806"
         style="fill:#e8b99d;fill-opacity:1;fill-rule:nonzero;stroke:none;stroke-width:0.235565"
         id="path100" /><path
         d="m 888.7914,131.7176 c 5.0882,15.78988 17.14204,12.13392 18.2704,11.75467 1.18253,-0.13898 13.64154,-1.98817 11.48847,-18.44 -2.16484,-16.54841 -11.76644,-25.516332 -20.76971,-22.88273 -9.26711,1.46992 -14.11031,13.68393 -8.98916,29.56806"
         style="fill:#e8b99d;fill-opacity:1;fill-rule:nonzero;stroke:none;stroke-width:0.235565"
         id="path102" /><path
         d="m 899.29759,156.55787 c -6.30606,69.22771 -58.93354,65.35032 -63.89687,64.82736 -4.96335,0.52296 -57.59318,4.40035 -63.89924,-64.82736 -6.3461,-69.637573 24.67303,-115.118018 63.89924,-112.616087 39.22619,-2.501931 70.24297,42.978514 63.89687,112.616087"
         style="fill:#fcd0b0;fill-opacity:1;fill-rule:nonzero;stroke:none;stroke-width:0.235565"
         id="path104" /><path
         d="m 842.91993,132.92369 c 1.02,-2.1884 1.79265,-4.40977 2.45222,-6.64763 0.36042,-1.11422 0.60541,-2.24492 0.91165,-3.36622 0.30151,-1.12365 0.49938,-2.26142 0.75616,-3.38977 0.48291,-2.26377 0.84568,-4.54404 1.13778,-6.83373 0.31565,-2.28733 0.46406,-4.59587 0.62895,-6.90674 l 0.0848,-1.19668 -0.6855,-0.52531 c -2.91394,-2.22844 -5.89382,-4.390921 -9.31186,-6.086988 1.87744,3.321458 4.19776,6.178858 6.58166,8.970298 l -0.60068,-1.72198 c -0.48998,2.26142 -0.99408,4.52048 -1.33094,6.80546 -0.36041,2.28027 -0.65251,4.56995 -0.82212,6.87849 -0.0706,1.15427 -0.19787,2.30382 -0.22614,3.46516 -0.0189,1.16367 -0.10118,2.31795 -0.0659,3.48871 0.005,2.33209 0.1249,4.68067 0.48997,7.06693"
         style="fill:#e8b99d;fill-opacity:1;fill-rule:nonzero;stroke:none;stroke-width:0.235565"
         id="path106" /><path
         d="m 804.92808,87.78246 62.45523,0.655106 c 0,0 -24.97455,-24.578568 -62.45523,-0.655106"
         style="fill:#ffffff;fill-opacity:1;fill-rule:nonzero;stroke:none;stroke-width:0.235565"
         id="path108" /><path
         d="m 820.94413,75.238651 c 0,0 0.66429,-0.15547 1.80205,-0.480313 1.14249,-0.27609 2.7514,-0.937552 4.72072,-1.253208 0.97759,-0.181384 2.03057,-0.377375 3.12595,-0.614824 1.07888,-0.304585 2.31323,-0.218839 3.52168,-0.395513 1.22495,-0.113312 2.48285,-0.285268 3.76904,-0.176673 1.28382,0.04875 2.59121,0.04217 3.88681,0.13333 1.28619,0.205177 2.57001,0.410353 3.83499,0.612938 1.28854,0.113079 2.44751,0.664293 3.63476,0.963463 1.16368,0.37713 2.34857,0.608228 3.33795,1.159215 1.01763,0.483135 1.99995,0.913748 2.91628,1.309498 0.94227,0.353346 1.67723,0.89726 2.38155,1.302905 0.69965,0.424254 1.30975,0.793152 1.81151,1.097735 1.01527,0.605628 1.6254,0.932122 1.6254,0.932122 0,0 -0.46878,-0.481964 -1.34037,-1.292776 -0.44051,-0.403046 -0.97759,-0.892551 -1.59006,-1.455788 -0.62659,-0.550986 -1.28147,-1.266859 -2.19782,-1.745533 -0.87158,-0.546513 -1.82563,-1.137304 -2.85504,-1.738229 -0.99172,-0.683608 -2.19075,-1.074646 -3.41098,-1.531169 -0.61247,-0.226377 -1.23435,-0.457232 -1.86567,-0.689968 l -0.95167,-0.348872 -1.00822,-0.183976 c -1.34978,-0.242867 -2.72077,-0.487618 -4.09412,-0.735197 -1.38746,-0.07279 -2.78437,-0.03957 -4.15064,-0.0636 -1.3757,-0.09659 -2.69721,0.214599 -3.98104,0.395748 -1.27911,0.240276 -2.52996,0.309297 -3.66303,0.739908 -1.14249,0.353347 -2.20959,0.718472 -3.18484,1.052503 -1.00114,0.285268 -1.82326,0.716823 -2.54645,1.114456 -0.7326,0.38185 -1.37098,0.713996 -1.89629,0.987252 -1.04591,0.555929 -1.63245,0.904567 -1.63245,0.904567"
         style="fill:#e8b99d;fill-opacity:1;fill-rule:nonzero;stroke:none;stroke-width:0.235565"
         id="path110" /><path
         d="m 802.65725,131.88014 c 0,-5.2154 1.93398,-9.44143 4.3226,-9.44143 2.38628,0 4.32262,4.22603 4.32262,9.44143 0,5.21304 -1.93634,9.43907 -4.32262,9.43907 -2.38862,0 -4.3226,-4.22603 -4.3226,-9.43907"
         style="fill:#29202e;fill-opacity:1;fill-rule:nonzero;stroke:none;stroke-width:0.235565"
         id="path112" /><path
         d="m 862.05249,131.88014 c 0,-5.2154 1.93633,-9.44143 4.32259,-9.44143 2.38628,0 4.32262,4.22603 4.32262,9.44143 0,5.21304 -1.93634,9.43907 -4.32262,9.43907 -2.38626,0 -4.32259,-4.22603 -4.32259,-9.43907"
         style="fill:#29202e;fill-opacity:1;fill-rule:nonzero;stroke:none;stroke-width:0.235565"
         id="path114" /><path
         d="m 792.04742,147.3261 c 0,0 0.74911,2.26379 3.08589,4.89031 0.61718,0.61247 1.23201,1.36629 2.0447,1.97875 0.77266,0.66429 1.65367,1.29797 2.6454,1.8539 0.94226,0.63131 2.09181,1.02235 3.20838,1.48877 1.19666,0.29209 2.38627,0.71848 3.67716,0.74438 0.63603,0.0353 1.27205,0.0824 1.90337,0.0895 0.63603,-0.0589 1.26497,-0.15547 1.88922,-0.24263 1.26499,-0.0801 2.38863,-0.66194 3.49578,-1.03883 1.10245,-0.40989 1.98345,-1.14485 2.86918,-1.689 0.91163,-0.52767 1.49113,-1.36157 2.13421,-1.96697 0.62189,-0.63366 1.17076,-1.21787 1.51705,-1.85626 0.39103,-0.59597 0.68783,-1.14483 0.93517,-1.58298 0.48527,-0.89044 0.70906,-1.4134 0.70906,-1.4134 0,0 -0.54887,0.25207 -1.42281,0.71612 -0.43108,0.23557 -0.95875,0.50883 -1.51233,0.85747 -0.53944,0.37454 -1.2532,0.62423 -1.95047,0.97052 -0.73496,0.28267 -1.4181,0.78207 -2.26142,0.9823 -0.82684,0.21908 -1.61598,0.6431 -2.49698,0.78207 -0.88102,0.11079 -1.7314,0.44993 -2.64539,0.41224 -0.45229,0.0235 -0.90222,0.04 -1.35215,0.0943 l -1.36862,-0.11312 c -0.92106,0.0377 -1.82563,-0.31331 -2.74669,-0.40989 -0.88808,-0.31329 -1.81856,-0.45229 -2.67365,-0.83154 -0.87866,-0.30388 -1.72669,-0.64309 -2.5276,-1.02 -0.82449,-0.32271 -1.5618,-0.74673 -2.29911,-1.06475 -0.71377,-0.3769 -1.36864,-0.72318 -1.95048,-1.02942 -0.59126,-0.32507 -1.10715,-0.60775 -1.53117,-0.83861 -0.87631,-0.48525 -1.3757,-0.76322 -1.3757,-0.76322"
         style="fill:#29202e;fill-opacity:1;fill-rule:nonzero;stroke:none;stroke-width:0.235565"
         id="path116" /><path
         d="m 851.85961,147.3261 c 0,0 0.75145,2.26379 3.08825,4.89031 0.61482,0.61247 1.22964,1.36629 2.04469,1.97875 0.77266,0.66429 1.65131,1.29797 2.64304,1.8539 0.94225,0.63131 2.09416,1.02235 3.21075,1.48877 1.19431,0.29209 2.38627,0.71848 3.67481,0.74438 0.63603,0.0353 1.27203,0.0824 1.90571,0.0895 0.63366,-0.0589 1.26499,-0.15547 1.88687,-0.24263 1.26498,-0.0801 2.39099,-0.66194 3.49578,-1.03883 1.10479,-0.40989 1.98345,-1.14485 2.87153,-1.689 0.91164,-0.52767 1.49112,-1.36157 2.13421,-1.96697 0.62189,-0.63366 1.1684,-1.21787 1.51468,-1.85626 0.3934,-0.59597 0.69022,-1.14483 0.93756,-1.58298 0.4829,-0.89044 0.70903,-1.4134 0.70903,-1.4134 0,0 -0.55122,0.25207 -1.42515,0.71612 -0.43108,0.23557 -0.9564,0.50883 -1.51233,0.85747 -0.53709,0.37454 -1.2532,0.62423 -1.95048,0.97052 -0.7326,0.28267 -1.41574,0.78207 -2.25906,0.9823 -0.82918,0.21908 -1.61833,0.6431 -2.49698,0.78207 -0.88336,0.11079 -1.7314,0.44993 -2.64774,0.41224 -0.44993,0.0235 -0.89986,0.04 -1.35214,0.0943 l -1.36864,-0.11312 c -0.92106,0.0377 -1.82327,-0.31331 -2.74433,-0.40989 -0.88807,-0.31329 -1.8209,-0.45229 -2.67601,-0.83154 -0.8763,-0.30388 -1.72668,-0.64309 -2.52525,-1.02 -0.82682,-0.32271 -1.56414,-0.74673 -2.30147,-1.06475 -0.71376,-0.3769 -1.36862,-0.72318 -1.94811,-1.02942 -0.59127,-0.32507 -1.10715,-0.60775 -1.53116,-0.83861 -0.87631,-0.48525 -1.37806,-0.76322 -1.37806,-0.76322"
         style="fill:#29202e;fill-opacity:1;fill-rule:nonzero;stroke:none;stroke-width:0.235565"
         id="path118" /><path
         d="m 837.80347,201.70853 c 0,0 -25.02166,12.04677 -37.06844,-16.68032 -12.04677,-28.72946 -9.46733,-69.39025 -41.7962,-83.90573 -36.60909,-16.437222 -23.07355,-55.103018 -23.07355,-55.103018 0,0 -24.09589,19.459749 -16.68267,37.99679 7.41556,18.533748 42.6301,43.555408 50.04331,78.769948 7.41323,35.21455 45.40978,68.57755 68.57755,38.92233"
         style="fill:#a1444b;fill-opacity:1;fill-rule:nonzero;stroke:none;stroke-width:0.235565"
         id="path120" /><path
         d="m 837.754,201.1997 c 0,0 -0.55123,0.19317 -1.91513,0.47349 -1.32387,0.26856 -3.32617,0.58185 -5.88912,0.61718 -2.54881,0.0118 -5.68417,-0.22377 -9.02919,-1.33566 -3.33559,-1.09066 -6.88555,-3.06704 -9.93847,-6.24481 -3.04584,-3.17069 -5.60408,-7.42028 -7.41557,-12.35063 -1.90806,-5.0246 -3.36151,-10.49441 -4.6736,-16.29166 -2.65245,-11.54736 -4.52048,-24.3244 -9.06687,-36.46067 -2.29911,-6.02574 -5.28373,-11.90307 -9.43201,-16.80046 -4.07291,-4.94921 -9.20115,-8.82189 -14.61442,-11.52381 -5.39913,-2.579441 -10.09393,-5.782647 -13.92893,-9.65109 -1.87274,-1.950704 -3.49107,-4.03498 -4.86441,-6.186393 -1.31681,-2.180854 -2.3792,-4.414007 -3.20368,-6.637968 -1.5924,-4.475734 -2.16718,-8.854874 -2.22137,-12.717896 -0.0353,-3.870089 0.36513,-7.24361 0.89515,-9.973801 1.05769,-5.474049 2.36742,-8.413894 2.36742,-8.413894 0,0 -1.3592,2.916054 -2.50875,8.38539 -0.57714,2.730194 -1.03414,6.108188 -1.06241,10.005132 -0.005,3.891527 0.49704,8.312831 1.98817,12.903517 0.77972,2.27838 1.80443,4.579842 3.09533,6.843385 1.34506,2.22868 2.94925,4.404826 4.81963,6.454227 3.76669,4.025565 8.67349,7.526527 13.98784,10.221381 5.19654,2.76317 10.02797,6.60995 13.81585,11.45787 3.85854,4.79373 6.60286,10.51324 8.67584,16.42591 4.02344,11.93605 5.45331,24.61179 7.73593,36.40413 1.12365,5.89148 2.44752,11.66045 4.24959,16.94415 1.78557,5.40385 4.47102,10.32245 7.9291,14.16686 3.46751,3.84442 7.66999,6.45918 11.6416,7.93617 3.98575,1.50525 7.69353,1.93869 10.69698,2.04941 3.01758,0.0824 5.37558,-0.18609 6.98921,-0.44051 1.57591,-0.24969 2.55115,-0.52766 2.55115,-0.52766 L 837.754,201.1997"
         style="fill:#a1444b;fill-opacity:1;fill-rule:nonzero;stroke:none;stroke-width:0.235565"
         id="path122" /><path
         d="m 839.62438,241.20328 -1.82091,-39.49475 c 0,0 -48.18942,23.16777 -65.79787,-70.43143 0,0 -74.36065,-74.047124 -56.69332,-37.534626 17.66734,36.512276 -19.29746,53.289176 11.28589,79.236606 30.581,25.94978 33.36066,25.94978 50.9691,48.18944 17.60609,22.24199 38.88934,41.34863 62.05711,20.03476"
         style="fill:#a1444b;fill-opacity:1;fill-rule:nonzero;stroke:none;stroke-width:0.235565"
         id="path124" /><path
         d="m 837.80347,201.70853 c 0,0 25.82022,14.31289 34.15921,-12.56266 8.34135,-26.8732 25.05935,-42.15426 29.44557,-67.52692 5.49572,-31.800977 -40.80684,-78.237575 -33.39363,-106.039842 7.41321,-27.801087 36.23453,-19.0519862 36.23453,-19.0519862 0,0 -26.49394,6.1199667 -22.78615,24.6541822 3.70778,18.536807 68.91205,64.313595 67.05813,87.481586 -1.85391,23.16778 -5.25773,12.6192 -14.52724,53.39307 -9.26475,40.77621 -53.42839,76.41713 -96.98427,61.5907 -24.69894,22.23258 0.79385,-21.93813 0.79385,-21.93813"
         style="fill:#a1444b;fill-opacity:1;fill-rule:nonzero;stroke:none;stroke-width:0.235565"
         id="path126" /><path
         d="m 836.83294,203.77914 c 0,0 0.70199,0.2756 1.97404,0.67607 1.27911,0.40046 3.16834,0.93991 5.62763,1.42045 2.4593,0.45464 5.5028,0.88336 9.06688,0.71377 3.49343,-0.2073 7.81133,-0.96817 11.41074,-3.99283 0.90457,-0.71848 1.69136,-1.61125 2.42396,-2.55351 0.3722,-0.49469 0.6431,-0.9564 1.02235,-1.54295 0.26149,-0.48527 0.52532,-0.97525 0.79387,-1.46993 1.08358,-1.98344 2.06118,-4.31319 2.85739,-6.57931 1.61597,-4.62885 2.72783,-9.52622 4.43097,-14.36002 1.71255,-4.82672 4.00459,-9.60867 6.82901,-14.20689 0.67606,-1.16604 1.43223,-2.29439 2.19545,-3.42039 0.7444,-1.14014 1.51704,-2.26615 2.34623,-3.35916 1.60185,-2.22608 3.32619,-4.40977 4.81494,-6.93502 2.8574,-4.97041 4.62885,-10.53209 5.25073,-16.10083 0.61484,-5.57581 0.17196,-11.0998 -0.84332,-16.2728 -2.08239,-10.37897 -6.26366,-19.34903 -10.05625,-26.767432 -1.96696,-3.669619 -3.28141,-7.205912 -3.76196,-10.534212 -0.52296,-3.314388 -0.35099,-6.282737 0.0424,-8.664294 0.39103,-2.390509 0.9823,-4.216134 1.44164,-5.429997 0.46407,-1.217398 0.79857,-1.830102 0.79857,-1.830102 0,0 -0.35806,0.599041 -0.8716,1.799949 -0.50645,1.201614 -1.17311,3.007923 -1.66308,5.40597 -0.48996,2.391451 -0.78443,5.392071 -0.38161,8.803283 0.34156,3.415684 1.5877,7.184715 3.49812,10.897687 3.60415,7.471627 7.51687,16.456058 9.30481,26.625378 0.86923,5.06464 1.16133,10.4096 0.44757,15.71452 -0.71377,5.3002 -2.53467,10.48498 -5.30491,15.11382 -1.34979,2.26376 -3.08354,4.44981 -4.73721,6.69945 -0.85274,1.10715 -1.6513,2.25435 -2.42396,3.41568 -0.7915,1.14957 -1.57357,2.29677 -2.28262,3.49342 -2.93983,4.70422 -5.36616,9.66287 -7.1753,14.64975 -1.79734,4.99163 -2.9681,9.93848 -4.54167,14.32233 -0.81269,2.22608 -1.64424,4.19541 -2.72784,6.1506 -0.26855,0.49233 -0.53709,0.98229 -0.80328,1.46521 -0.23792,0.32979 -0.51823,0.81741 -0.80798,1.18253 -0.60305,0.76088 -1.23435,1.47935 -1.97168,2.04705 -2.88802,2.38864 -6.54397,3.1495 -9.71232,3.34973 -3.2131,0.17903 -6.0705,-0.19315 -8.3861,-0.60775 -2.32032,-0.4358 -4.11766,-0.93284 -5.3261,-1.30268 -1.21789,-0.37454 -1.8115,-0.60539 -1.8115,-0.60539 l -0.98702,2.58885"
         style="fill:#a1444b;fill-opacity:1;fill-rule:nonzero;stroke:none;stroke-width:0.235565"
         id="path128" /><path
         d="m 888.4522,164.80499 c 0,0 13.34943,-33.37243 8.24476,-57.31991 0,0 9.42257,22.37862 6.67353,42.79264 -2.74667,20.41639 -14.91829,14.52727 -14.91829,14.52727"
         style="fill:#883840;fill-opacity:1;fill-rule:nonzero;stroke:none;stroke-width:0.235565"
         id="path130" /></g></g></svg>
