<?xml version="1.0" encoding="UTF-8" standalone="no"?>
<!-- Created with Inkscape (http://www.inkscape.org/) -->

<svg
   version="1.1"
   id="svg2"
   xml:space="preserve"
   width="1000"
   height="666.66669"
   viewBox="0 0 1000 666.66669"
   sodipodi:docname="home.svg"
   inkscape:version="1.1 (1:1.1+202105261517+ce6663b3b7)"
   xmlns:inkscape="http://www.inkscape.org/namespaces/inkscape"
   xmlns:sodipodi="http://sodipodi.sourceforge.net/DTD/sodipodi-0.dtd"
   xmlns="http://www.w3.org/2000/svg"
   xmlns:svg="http://www.w3.org/2000/svg"><defs
     id="defs6"><clipPath
       clipPathUnits="userSpaceOnUse"
       id="clipPath20"><path
         d="m 495.328,210 h 6610 v 4480 h -6610 z"
         id="path18" /></clipPath></defs><sodipodi:namedview
     id="namedview4"
     pagecolor="#ffffff"
     bordercolor="#666666"
     borderopacity="1.0"
     inkscape:pageshadow="2"
     inkscape:pageopacity="0.0"
     inkscape:pagecheckerboard="0"
     showgrid="false"
     inkscape:zoom="0.43434033"
     inkscape:cx="-126.62881"
     inkscape:cy="537.59687"
     inkscape:window-width="1920"
     inkscape:window-height="1056"
     inkscape:window-x="0"
     inkscape:window-y="24"
     inkscape:window-maximized="1"
     inkscape:current-layer="g8" /><g
     id="g8"
     inkscape:groupmode="layer"
     inkscape:label="ink_ext_XXXXXX"
     transform="matrix(1.3333333,0,0,-1.3333333,0,666.66667)"><g
       id="g103041"
       transform="matrix(1.6110223,0,0,1.6110223,-372.66184,-145.09243)"><path
         d="m 350.38,362.369 c -0.854,-10.151 6.682,-19.073 16.833,-19.927 10.151,-0.855 19.073,6.682 19.927,16.833 0.855,10.151 -6.681,19.073 -16.833,19.927 -10.151,0.854 -19.073,-6.682 -19.927,-16.833 z m -11.303,8.49 c 0.95,2.657 2.243,5.14 3.823,7.398 l -3.557,6.854 9.759,8.244 6.163,-4.652 c 2.491,1.18 5.156,2.041 7.934,2.533 l 2.331,7.358 12.729,-1.072 1.068,-7.643 c 2.658,-0.95 5.14,-2.244 7.399,-3.824 l 6.854,3.556 8.243,-9.758 -4.652,-6.164 c 1.18,-2.491 2.041,-5.155 2.533,-7.933 l 7.358,-2.331 -1.071,-12.73 -7.644,-1.068 c -0.95,-2.657 -2.244,-5.139 -3.824,-7.398 l 3.557,-6.854 -9.759,-8.244 -6.163,4.653 c -2.491,-1.18 -5.155,-2.04 -7.934,-2.533 l -2.331,-7.359 -12.729,1.072 -1.068,7.643 c -2.657,0.951 -5.139,2.245 -7.399,3.825 l -6.854,-3.557 -8.243,9.759 4.652,6.163 c -1.18,2.492 -2.04,5.155 -2.533,7.933 l -7.358,2.332 1.071,12.729 7.645,1.068"
         style="fill:#c9cfec;fill-opacity:1;fill-rule:evenodd;stroke:none;stroke-width:0.1"
         id="path108" /><path
         d="m 305.907,127.837 c -0.617,-7.327 4.822,-13.767 12.149,-14.384 7.327,-0.616 13.767,4.823 14.384,12.151 0.616,7.327 -4.823,13.766 -12.15,14.383 -7.328,0.617 -13.767,-4.823 -14.383,-12.15 z m -8.159,6.128 c 0.685,1.918 1.619,3.71 2.759,5.341 l -2.567,4.947 7.044,5.949 4.448,-3.357 c 1.799,0.851 3.722,1.472 5.727,1.829 l 1.682,5.31 9.189,-0.773 0.77,-5.517 c 1.918,-0.686 3.71,-1.62 5.341,-2.76 l 4.946,2.566 5.951,-7.044 -3.358,-4.448 c 0.852,-1.798 1.473,-3.721 1.828,-5.727 l 5.312,-1.681 -0.774,-9.189 -5.517,-0.771 c -0.686,-1.918 -1.619,-3.709 -2.76,-5.34 l 2.567,-4.947 -7.044,-5.951 -4.449,3.359 c -1.797,-0.852 -3.72,-1.473 -5.726,-1.828 l -1.683,-5.3119 -9.187,0.7738 -0.771,5.5161 c -1.918,0.687 -3.71,1.62 -5.341,2.761 l -4.947,-2.568 -5.95,7.044 3.357,4.45 c -0.851,1.798 -1.471,3.72 -1.827,5.725 l -5.311,1.683 0.773,9.188 5.518,0.771"
         style="fill:#c9cfec;fill-opacity:1;fill-rule:evenodd;stroke:none;stroke-width:0.1"
         id="path110" /><path
         d="m 628.18,311.086 c -0.208,-2.475 1.63,-4.651 4.106,-4.859 2.475,-0.209 4.651,1.629 4.86,4.105 0.208,2.476 -1.63,4.651 -4.105,4.86 -2.476,0.208 -4.652,-1.63 -4.861,-4.106 z m -2.757,2.071 c 0.232,0.648 0.548,1.254 0.933,1.804 l -0.867,1.672 2.38,2.011 1.503,-1.135 c 0.607,0.288 1.258,0.498 1.935,0.618 l 0.569,1.794 3.104,-0.261 0.26,-1.864 c 0.648,-0.232 1.254,-0.547 1.805,-0.933 l 1.671,0.867 2.011,-2.379 -1.135,-1.504 c 0.288,-0.607 0.497,-1.257 0.618,-1.934 l 1.795,-0.569 -0.262,-3.105 -1.863,-0.26 c -0.233,-0.648 -0.548,-1.253 -0.934,-1.805 l 0.868,-1.671 -2.381,-2.01 -1.503,1.134 c -0.607,-0.288 -1.257,-0.498 -1.934,-0.618 l -0.569,-1.794 -3.104,0.261 -0.261,1.864 c -0.647,0.232 -1.254,0.548 -1.805,0.933 l -1.67,-0.868 -2.011,2.381 1.135,1.503 c -0.289,0.607 -0.498,1.257 -0.619,1.935 l -1.795,0.568 0.262,3.104 1.864,0.261"
         style="fill:#fecf00;fill-opacity:1;fill-rule:evenodd;stroke:none;stroke-width:0.1"
         id="path112" /><path
         d="m 598.227,335.075 c -0.364,-4.333 2.852,-8.14 7.185,-8.505 4.332,-0.365 8.139,2.852 8.505,7.184 0.364,4.332 -2.852,8.141 -7.185,8.505 -4.332,0.365 -8.14,-2.852 -8.505,-7.184 z m -4.824,3.623 c 0.405,1.135 0.958,2.194 1.632,3.158 l -1.518,2.925 4.165,3.518 2.63,-1.985 c 1.064,0.504 2.2,0.871 3.387,1.081 l 0.994,3.141 5.433,-0.458 0.456,-3.262 c 1.134,-0.405 2.194,-0.958 3.158,-1.632 l 2.925,1.518 3.518,-4.165 -1.985,-2.631 c 0.503,-1.063 0.87,-2.2 1.081,-3.386 l 3.141,-0.995 -0.458,-5.433 -3.262,-0.455 c -0.405,-1.135 -0.958,-2.194 -1.633,-3.158 l 1.519,-2.925 -4.165,-3.518 -2.631,1.985 c -1.064,-0.503 -2.201,-0.871 -3.386,-1.081 l -0.995,-3.141 -5.433,0.458 -0.456,3.262 c -1.134,0.405 -2.193,0.958 -3.157,1.632 l -2.926,-1.518 -3.517,4.165 1.985,2.631 c -0.504,1.063 -0.871,2.2 -1.081,3.385 l -3.141,0.996 0.457,5.432 3.263,0.456"
         style="fill:#fecf00;fill-opacity:1;fill-rule:evenodd;stroke:none;stroke-width:0.1"
         id="path114" /><path
         d="m 626.144,116.179 c 1.95,-0.369 3.83,0.913 4.199,2.863 0.37,1.95 -0.913,3.831 -2.863,4.199 -1.95,0.369 -3.83,-0.913 -4.199,-2.863 -0.369,-1.95 0.913,-3.83 2.863,-4.199 z m -1.872,-2.021 c -0.496,0.238 -0.951,0.538 -1.357,0.889 l -1.4,-0.552 -1.402,2.057 1.025,1.101 c -0.178,0.506 -0.293,1.04 -0.332,1.588 l -1.38,0.6 0.463,2.445 1.503,0.054 c 0.238,0.496 0.538,0.952 0.89,1.358 l -0.553,1.4 2.057,1.402 1.101,-1.025 c 0.507,0.178 1.04,0.292 1.589,0.332 l 0.599,1.38 2.446,-0.463 0.054,-1.503 c 0.496,-0.238 0.951,-0.538 1.357,-0.89 l 1.4,0.552 1.402,-2.057 -1.025,-1.1 c 0.178,-0.507 0.292,-1.04 0.332,-1.589 l 1.38,-0.599 -0.463,-2.446 -1.503,-0.054 c -0.238,-0.496 -0.538,-0.951 -0.89,-1.357 l 0.553,-1.4 -2.057,-1.402 -1.101,1.024 c -0.507,-0.178 -1.04,-0.292 -1.589,-0.331 l -0.599,-1.38 -2.446,0.463 -0.054,1.503"
         style="fill:#fecf00;fill-opacity:1;fill-rule:evenodd;stroke:none;stroke-width:0.1"
         id="path116" /><path
         d="m 604.621,94.3449 c 3.413,-0.6461 6.703,1.5973 7.348,5.011 0.646,3.4131 -1.597,6.7041 -5.01,7.3491 -3.413,0.646 -6.704,-1.598 -7.349,-5.011 -0.646,-3.4131 1.598,-6.7042 5.011,-7.3491 z m -3.277,-3.5359 c -0.868,0.4148 -1.664,0.941 -2.375,1.5558 l -2.449,-0.9668 -2.454,3.6 1.794,1.927 c -0.313,0.8871 -0.512,1.8199 -0.581,2.7801 l -2.414,1.0479 0.809,4.28 2.63,0.095 c 0.415,0.868 0.942,1.664 1.557,2.375 l -0.966,2.449 3.599,2.454 1.927,-1.794 c 0.886,0.313 1.82,0.512 2.78,0.581 l 1.049,2.414 4.279,-0.809 0.095,-2.63 c 0.868,-0.415 1.664,-0.941 2.375,-1.557 l 2.449,0.966 2.454,-3.598 -1.794,-1.928 c 0.313,-0.886 0.512,-1.82 0.581,-2.78 l 2.414,-1.048 -0.809,-4.28 -2.63,-0.0942 c -0.415,-0.8687 -0.942,-1.6648 -1.557,-2.375 l 0.966,-2.4508 -3.599,-2.4531 -1.927,1.7942 c -0.886,-0.3129 -1.82,-0.511 -2.78,-0.5809 l -1.049,-2.4141 -4.279,0.8098 -0.095,2.6301"
         style="fill:#fecf00;fill-opacity:1;fill-rule:evenodd;stroke:none;stroke-width:0.1"
         id="path118" /><path
         d="m 400.548,109.082 0.135,-2.92 156.389,-0.406 0.147,3.26 c 0.021,0.093 -0.05,0.183 -0.147,0.183 l -4.818,0.011 -151.706,-0.128"
         style="fill:#4c8fb9;fill-opacity:1;fill-rule:nonzero;stroke:none;stroke-width:0.1"
         id="path120" /><path
         d="m 557.272,109.082 -19.523,22.97 -117.695,-0.115 -19.506,-22.855 h 156.724"
         style="fill:#003661;fill-opacity:1;fill-rule:nonzero;stroke:none;stroke-width:0.1"
         id="path122" /><path
         d="m 420.026,129.828 h 6.669 c 0.201,0 0.409,0.063 0.465,0.139 l 1.016,1.394 c 0.054,0.074 -0.062,0.133 -0.258,0.133 h -6.513 c -0.196,0 -0.404,-0.059 -0.466,-0.133 l -1.162,-1.394 c -0.064,-0.076 0.048,-0.139 0.249,-0.139"
         style="fill:#ffffff;fill-opacity:1;fill-rule:nonzero;stroke:none;stroke-width:0.1"
         id="path124" /><path
         d="m 428.587,129.828 h 6.67 c 0.201,0 0.402,0.063 0.448,0.139 l 0.849,1.394 c 0.045,0.074 -0.078,0.133 -0.274,0.133 h -6.514 c -0.195,0 -0.396,-0.059 -0.449,-0.133 l -0.994,-1.394 c -0.055,-0.076 0.064,-0.139 0.264,-0.139"
         style="fill:#ffffff;fill-opacity:1;fill-rule:nonzero;stroke:none;stroke-width:0.1"
         id="path126" /><path
         d="m 437.15,129.828 h 6.669 c 0.201,0 0.394,0.063 0.432,0.139 l 0.681,1.394 c 0.036,0.074 -0.095,0.133 -0.291,0.133 h -6.512 c -0.197,0 -0.391,-0.059 -0.434,-0.133 l -0.827,-1.394 c -0.045,-0.076 0.081,-0.139 0.282,-0.139"
         style="fill:#ffffff;fill-opacity:1;fill-rule:nonzero;stroke:none;stroke-width:0.1"
         id="path128" /><path
         d="m 445.712,129.828 h 6.669 c 0.202,0 0.387,0.063 0.415,0.139 l 0.514,1.394 c 0.027,0.074 -0.11,0.133 -0.306,0.133 h -6.513 c -0.196,0 -0.384,-0.059 -0.418,-0.133 l -0.659,-1.394 c -0.036,-0.076 0.097,-0.139 0.298,-0.139"
         style="fill:#ffffff;fill-opacity:1;fill-rule:nonzero;stroke:none;stroke-width:0.1"
         id="path130" /><path
         d="m 454.275,129.828 h 6.669 c 0.2,0 0.379,0.063 0.397,0.139 l 0.347,1.394 c 0.018,0.074 -0.126,0.133 -0.322,0.133 h -6.514 c -0.196,0 -0.376,-0.059 -0.401,-0.133 l -0.491,-1.394 c -0.028,-0.076 0.114,-0.139 0.315,-0.139"
         style="fill:#ffffff;fill-opacity:1;fill-rule:nonzero;stroke:none;stroke-width:0.1"
         id="path132" /><path
         d="m 462.837,129.828 h 6.668 c 0.202,0 0.373,0.063 0.382,0.139 l 0.179,1.394 c 0.009,0.074 -0.143,0.133 -0.339,0.133 h -6.513 c -0.196,0 -0.369,-0.059 -0.385,-0.133 l -0.325,-1.394 c -0.017,-0.076 0.132,-0.139 0.333,-0.139"
         style="fill:#ffffff;fill-opacity:1;fill-rule:nonzero;stroke:none;stroke-width:0.1"
         id="path134" /><path
         d="m 471.399,129.828 h 6.669 c 0.201,0 0.364,0.063 0.365,0.139 l 0.011,1.394 c 0,0.074 -0.158,0.133 -0.355,0.133 h -6.513 c -0.197,0 -0.362,-0.059 -0.37,-0.133 l -0.156,-1.394 c -0.008,-0.076 0.148,-0.139 0.349,-0.139"
         style="fill:#ffffff;fill-opacity:1;fill-rule:nonzero;stroke:none;stroke-width:0.1"
         id="path136" /><path
         d="m 479.962,129.828 h 6.668 c 0.202,0 0.357,0.063 0.348,0.139 l -0.157,1.394 c -0.008,0.074 -0.174,0.133 -0.37,0.133 h -6.513 c -0.196,0 -0.354,-0.059 -0.354,-0.133 l 0.012,-1.394 c 10e-4,-0.076 0.164,-0.139 0.366,-0.139"
         style="fill:#ffffff;fill-opacity:1;fill-rule:nonzero;stroke:none;stroke-width:0.1"
         id="path138" /><path
         d="m 488.523,129.828 h 6.669 c 0.201,0 0.35,0.063 0.332,0.139 l -0.325,1.394 c -0.017,0.074 -0.19,0.133 -0.386,0.133 H 488.3 c -0.196,0 -0.347,-0.059 -0.338,-0.133 l 0.18,-1.394 c 0.01,-0.076 0.181,-0.139 0.381,-0.139"
         style="fill:#ffffff;fill-opacity:1;fill-rule:nonzero;stroke:none;stroke-width:0.1"
         id="path140" /><path
         d="m 497.086,129.828 h 6.668 c 0.202,0 0.342,0.063 0.316,0.139 l -0.493,1.394 c -0.026,0.074 -0.206,0.133 -0.402,0.133 h -6.513 c -0.197,0 -0.341,-0.059 -0.323,-0.133 l 0.348,-1.394 c 0.02,-0.076 0.197,-0.139 0.399,-0.139"
         style="fill:#ffffff;fill-opacity:1;fill-rule:nonzero;stroke:none;stroke-width:0.1"
         id="path142" /><path
         d="m 505.648,129.828 h 6.669 c 0.201,0 0.334,0.063 0.298,0.139 l -0.66,1.394 c -0.034,0.074 -0.222,0.133 -0.418,0.133 h -6.513 c -0.196,0 -0.334,-0.059 -0.307,-0.133 l 0.516,-1.394 c 0.028,-0.076 0.214,-0.139 0.415,-0.139"
         style="fill:#ffffff;fill-opacity:1;fill-rule:nonzero;stroke:none;stroke-width:0.1"
         id="path144" /><path
         d="m 514.21,129.828 h 6.67 c 0.2,0 0.326,0.063 0.281,0.139 l -0.828,1.394 c -0.044,0.074 -0.238,0.133 -0.434,0.133 h -6.514 c -0.196,0 -0.326,-0.059 -0.29,-0.133 l 0.684,-1.394 c 0.037,-0.076 0.23,-0.139 0.431,-0.139"
         style="fill:#ffffff;fill-opacity:1;fill-rule:nonzero;stroke:none;stroke-width:0.1"
         id="path146" /><path
         d="m 522.772,129.828 h 6.669 c 0.201,0 0.319,0.063 0.266,0.139 l -0.996,1.394 c -0.053,0.074 -0.254,0.133 -0.451,0.133 h -6.512 c -0.197,0 -0.32,-0.059 -0.275,-0.133 l 0.851,-1.394 c 0.047,-0.076 0.247,-0.139 0.448,-0.139"
         style="fill:#ffffff;fill-opacity:1;fill-rule:nonzero;stroke:none;stroke-width:0.1"
         id="path148" /><path
         d="m 531.335,129.828 h 6.669 c 0.201,0 0.312,0.063 0.248,0.139 l -1.163,1.394 c -0.062,0.074 -0.27,0.133 -0.466,0.133 h -6.514 c -0.196,0 -0.312,-0.059 -0.259,-0.133 l 1.02,-1.394 c 0.055,-0.076 0.263,-0.139 0.465,-0.139"
         style="fill:#ffffff;fill-opacity:1;fill-rule:nonzero;stroke:none;stroke-width:0.1"
         id="path150" /><path
         d="m 417.373,126.701 h 6.709 c 0.21,0 0.429,0.068 0.49,0.151 l 1.758,2.396 c 0.056,0.077 -0.062,0.14 -0.264,0.14 H 419.6 c -0.202,0 -0.419,-0.063 -0.483,-0.14 l -1.998,-2.396 c -0.07,-0.083 0.044,-0.151 0.254,-0.151"
         style="fill:#ffffff;fill-opacity:1;fill-rule:nonzero;stroke:none;stroke-width:0.1"
         id="path152" /><path
         d="m 425.989,126.701 h 6.709 c 0.209,0 0.421,0.068 0.473,0.151 l 1.479,2.396 c 0.048,0.077 -0.077,0.14 -0.279,0.14 h -6.467 c -0.202,0 -0.411,-0.063 -0.467,-0.14 l -1.721,-2.396 c -0.059,-0.083 0.063,-0.151 0.273,-0.151"
         style="fill:#ffffff;fill-opacity:1;fill-rule:nonzero;stroke:none;stroke-width:0.1"
         id="path154" /><path
         d="m 434.604,126.701 h 6.709 c 0.21,0 0.413,0.068 0.455,0.151 l 1.202,2.396 c 0.039,0.077 -0.093,0.14 -0.296,0.14 h -6.465 c -0.203,0 -0.405,-0.063 -0.452,-0.14 l -1.442,-2.396 c -0.05,-0.083 0.079,-0.151 0.289,-0.151"
         style="fill:#ffffff;fill-opacity:1;fill-rule:nonzero;stroke:none;stroke-width:0.1"
         id="path156" /><path
         d="m 443.219,126.701 h 6.709 c 0.21,0 0.407,0.068 0.439,0.151 l 0.924,2.396 c 0.03,0.077 -0.11,0.14 -0.312,0.14 h -6.467 c -0.202,0 -0.396,-0.063 -0.434,-0.14 l -1.165,-2.396 c -0.04,-0.083 0.097,-0.151 0.306,-0.151"
         style="fill:#ffffff;fill-opacity:1;fill-rule:nonzero;stroke:none;stroke-width:0.1"
         id="path158" /><path
         d="m 452.399,129.248 -0.888,-2.396 c -0.031,-0.083 0.115,-0.151 0.325,-0.151 h 6.709 c 0.209,0 0.397,0.068 0.419,0.151 l 0.647,2.396 c 0.021,0.077 -0.126,0.14 -0.328,0.14 h -6.466 c -0.202,0 -0.39,-0.063 -0.418,-0.14"
         style="fill:#ffffff;fill-opacity:1;fill-rule:nonzero;stroke:none;stroke-width:0.1"
         id="path160" /><path
         d="m 467.587,129.388 h -6.466 c -0.202,0 -0.382,-0.063 -0.402,-0.14 l -0.61,-2.396 c -0.021,-0.083 0.132,-0.151 0.342,-0.151 h 6.709 c 0.21,0 0.39,0.068 0.403,0.151 l 0.368,2.396 c 0.012,0.077 -0.141,0.14 -0.344,0.14"
         style="fill:#ffffff;fill-opacity:1;fill-rule:nonzero;stroke:none;stroke-width:0.1"
         id="path162" /><path
         d="m 475.891,129.388 h -6.467 c -0.202,0 -0.374,-0.063 -0.384,-0.14 l -0.332,-2.396 c -0.012,-0.083 0.149,-0.151 0.359,-0.151 h 6.709 c 0.209,0 0.382,0.068 0.385,0.151 l 0.091,2.396 c 0.002,0.077 -0.159,0.14 -0.361,0.14"
         style="fill:#ffffff;fill-opacity:1;fill-rule:nonzero;stroke:none;stroke-width:0.1"
         id="path164" /><path
         d="m 484.195,129.388 h -6.466 c -0.202,0 -0.367,-0.063 -0.369,-0.14 l -0.054,-2.396 c -0.002,-0.083 0.166,-0.151 0.376,-0.151 h 6.709 c 0.21,0 0.374,0.068 0.368,0.151 l -0.187,2.396 c -0.006,0.077 -0.175,0.14 -0.377,0.14"
         style="fill:#ffffff;fill-opacity:1;fill-rule:nonzero;stroke:none;stroke-width:0.1"
         id="path166" /><path
         d="m 493.006,126.701 c 0.21,0 0.368,0.068 0.351,0.151 l -0.465,2.396 c -0.014,0.077 -0.19,0.14 -0.392,0.14 h -6.467 c -0.202,0 -0.361,-0.063 -0.353,-0.14 l 0.224,-2.396 c 0.008,-0.083 0.184,-0.151 0.393,-0.151 h 6.709"
         style="fill:#ffffff;fill-opacity:1;fill-rule:nonzero;stroke:none;stroke-width:0.1"
         id="path168" /><path
         d="m 501.623,126.701 c 0.21,0 0.358,0.068 0.333,0.151 l -0.743,2.396 c -0.024,0.077 -0.208,0.14 -0.41,0.14 h -6.466 c -0.202,0 -0.353,-0.063 -0.336,-0.14 l 0.502,-2.396 c 0.016,-0.083 0.201,-0.151 0.411,-0.151 h 6.709"
         style="fill:#ffffff;fill-opacity:1;fill-rule:nonzero;stroke:none;stroke-width:0.1"
         id="path170" /><path
         d="m 509.108,129.388 h -6.467 c -0.202,0 -0.345,-0.063 -0.32,-0.14 l 0.779,-2.396 c 0.028,-0.083 0.219,-0.151 0.429,-0.151 h 6.709 c 0.21,0 0.351,0.068 0.315,0.151 l -1.019,2.396 c -0.033,0.077 -0.224,0.14 -0.426,0.14"
         style="fill:#ffffff;fill-opacity:1;fill-rule:nonzero;stroke:none;stroke-width:0.1"
         id="path172" /><path
         d="m 517.412,129.388 h -6.466 c -0.202,0 -0.339,-0.063 -0.305,-0.14 l 1.058,-2.396 c 0.036,-0.083 0.236,-0.151 0.446,-0.151 h 6.709 c 0.209,0 0.343,0.068 0.298,0.151 l -1.298,2.396 c -0.042,0.077 -0.24,0.14 -0.442,0.14"
         style="fill:#ffffff;fill-opacity:1;fill-rule:nonzero;stroke:none;stroke-width:0.1"
         id="path174" /><path
         d="m 527.469,126.701 c 0.21,0 0.335,0.068 0.282,0.151 l -1.577,2.396 c -0.05,0.077 -0.255,0.14 -0.458,0.14 h -6.466 c -0.203,0 -0.331,-0.063 -0.288,-0.14 l 1.335,-2.396 c 0.046,-0.083 0.253,-0.151 0.463,-0.151 h 6.709"
         style="fill:#ffffff;fill-opacity:1;fill-rule:nonzero;stroke:none;stroke-width:0.1"
         id="path176" /><path
         d="m 538.674,129.248 c -0.064,0.077 -0.281,0.14 -0.483,0.14 h -10.522 c -0.203,0 -0.325,-0.063 -0.272,-0.14 l 1.616,-2.396 c 0.056,-0.083 0.272,-0.151 0.482,-0.151 h 10.918 c 0.21,0 0.323,0.068 0.255,0.151 l -1.994,2.396"
         style="fill:#ffffff;fill-opacity:1;fill-rule:nonzero;stroke:none;stroke-width:0.1"
         id="path178" /><path
         d="m 540.82,126.208 h -6.754 c -0.211,0 -0.332,-0.068 -0.269,-0.152 l 1.914,-2.619 c 0.066,-0.09 0.297,-0.165 0.517,-0.165 h 7.019 c 0.219,0 0.336,0.075 0.26,0.165 l -2.177,2.619 c -0.071,0.084 -0.299,0.152 -0.51,0.152"
         style="fill:#ffffff;fill-opacity:1;fill-rule:nonzero;stroke:none;stroke-width:0.1"
         id="path180" /><path
         d="m 534.513,123.437 -1.874,2.619 c -0.06,0.084 -0.281,0.152 -0.492,0.152 h -6.753 c -0.212,0 -0.341,-0.068 -0.289,-0.152 l 1.611,-2.619 c 0.056,-0.09 0.28,-0.165 0.499,-0.165 h 7.019 c 0.219,0 0.344,0.075 0.279,0.165"
         style="fill:#ffffff;fill-opacity:1;fill-rule:nonzero;stroke:none;stroke-width:0.1"
         id="path182" /><path
         d="m 516.415,126.056 1.307,-2.619 c 0.046,-0.09 0.261,-0.165 0.48,-0.165 h 7.018 c 0.22,0 0.354,0.075 0.299,0.165 l -1.57,2.619 c -0.051,0.084 -0.264,0.152 -0.475,0.152 h -6.753 c -0.212,0 -0.348,-0.068 -0.306,-0.152"
         style="fill:#ffffff;fill-opacity:1;fill-rule:nonzero;stroke:none;stroke-width:0.1"
         id="path184" /><path
         d="m 507.724,126.056 1.005,-2.619 c 0.034,-0.09 0.24,-0.165 0.46,-0.165 h 7.019 c 0.218,0 0.361,0.075 0.317,0.165 l -1.267,2.619 c -0.041,0.084 -0.246,0.152 -0.457,0.152 h -6.753 c -0.211,0 -0.356,-0.068 -0.324,-0.152"
         style="fill:#ffffff;fill-opacity:1;fill-rule:nonzero;stroke:none;stroke-width:0.1"
         id="path186" /><path
         d="m 507.531,123.437 -0.964,2.619 c -0.03,0.084 -0.227,0.152 -0.438,0.152 h -6.753 c -0.211,0 -0.365,-0.068 -0.342,-0.152 l 0.701,-2.619 c 0.024,-0.09 0.222,-0.165 0.441,-0.165 h 7.018 c 0.22,0 0.37,0.075 0.337,0.165"
         style="fill:#ffffff;fill-opacity:1;fill-rule:nonzero;stroke:none;stroke-width:0.1"
         id="path188" /><path
         d="m 498.537,123.437 -0.66,2.619 c -0.021,0.084 -0.209,0.152 -0.421,0.152 h -6.753 c -0.211,0 -0.372,-0.068 -0.36,-0.152 l 0.398,-2.619 c 0.013,-0.09 0.203,-0.165 0.422,-0.165 h 7.018 c 0.22,0 0.379,0.075 0.356,0.165"
         style="fill:#ffffff;fill-opacity:1;fill-rule:nonzero;stroke:none;stroke-width:0.1"
         id="path190" /><path
         d="m 481.653,126.056 0.094,-2.619 c 0.003,-0.09 0.183,-0.165 0.403,-0.165 h 7.019 c 0.218,0 0.386,0.075 0.375,0.165 l -0.358,2.619 c -0.011,0.084 -0.191,0.152 -0.402,0.152 h -6.754 c -0.211,0 -0.38,-0.068 -0.377,-0.152"
         style="fill:#ffffff;fill-opacity:1;fill-rule:nonzero;stroke:none;stroke-width:0.1"
         id="path192" /><path
         d="m 472.962,126.056 -0.209,-2.619 c -0.007,-0.09 0.165,-0.165 0.383,-0.165 h 7.019 c 0.22,0 0.396,0.075 0.394,0.165 l -0.053,2.619 c -10e-4,0.084 -0.174,0.152 -0.385,0.152 h -6.754 c -0.211,0 -0.388,-0.068 -0.395,-0.152"
         style="fill:#ffffff;fill-opacity:1;fill-rule:nonzero;stroke:none;stroke-width:0.1"
         id="path194" /><path
         d="m 464.272,126.056 -0.514,-2.619 c -0.017,-0.09 0.146,-0.165 0.366,-0.165 h 7.018 c 0.22,0 0.404,0.075 0.413,0.165 l 0.25,2.619 c 0.009,0.084 -0.156,0.152 -0.367,0.152 h -6.754 c -0.211,0 -0.395,-0.068 -0.412,-0.152"
         style="fill:#ffffff;fill-opacity:1;fill-rule:nonzero;stroke:none;stroke-width:0.1"
         id="path196" /><path
         d="m 455.582,126.056 -0.818,-2.619 c -0.028,-0.09 0.127,-0.165 0.347,-0.165 h 7.018 c 0.219,0 0.413,0.075 0.432,0.165 l 0.554,2.619 c 0.018,0.084 -0.139,0.152 -0.35,0.152 h -6.754 c -0.211,0 -0.403,-0.068 -0.429,-0.152"
         style="fill:#ffffff;fill-opacity:1;fill-rule:nonzero;stroke:none;stroke-width:0.1"
         id="path198" /><path
         d="m 453.567,123.437 0.857,2.619 c 0.029,0.084 -0.121,0.152 -0.332,0.152 h -6.754 c -0.21,0 -0.411,-0.068 -0.447,-0.152 l -1.12,-2.619 c -0.039,-0.09 0.108,-0.165 0.326,-0.165 h 7.019 c 0.22,0 0.422,0.075 0.451,0.165"
         style="fill:#ffffff;fill-opacity:1;fill-rule:nonzero;stroke:none;stroke-width:0.1"
         id="path200" /><path
         d="m 444.103,123.272 c 0.22,0 0.43,0.075 0.47,0.165 l 1.161,2.619 c 0.037,0.084 -0.104,0.152 -0.314,0.152 h -6.753 c -0.212,0 -0.42,-0.068 -0.466,-0.152 l -1.424,-2.619 c -0.05,-0.09 0.088,-0.165 0.308,-0.165 h 7.018"
         style="fill:#ffffff;fill-opacity:1;fill-rule:nonzero;stroke:none;stroke-width:0.1"
         id="path202" /><path
         d="m 435.58,123.437 1.464,2.619 c 0.046,0.084 -0.086,0.152 -0.297,0.152 h -6.753 c -0.212,0 -0.428,-0.068 -0.484,-0.152 l -1.727,-2.619 c -0.06,-0.09 0.069,-0.165 0.289,-0.165 h 7.017 c 0.22,0 0.44,0.075 0.491,0.165"
         style="fill:#ffffff;fill-opacity:1;fill-rule:nonzero;stroke:none;stroke-width:0.1"
         id="path204" /><path
         d="m 427.858,119.444 h 7.363 c 0.231,0 0.46,0.081 0.514,0.182 l 1.528,2.877 c 0.049,0.093 -0.091,0.167 -0.311,0.167 h -7.073 c -0.221,0 -0.448,-0.074 -0.506,-0.167 l -1.818,-2.877 c -0.063,-0.101 0.073,-0.182 0.303,-0.182"
         style="fill:#ffffff;fill-opacity:1;fill-rule:nonzero;stroke:none;stroke-width:0.1"
         id="path206" /><path
         d="m 430.393,115.212 h 7.747 c 0.242,0 0.481,0.09 0.532,0.2 l 1.496,3.177 c 0.048,0.101 -0.101,0.184 -0.333,0.184 h -7.425 c -0.232,0 -0.467,-0.083 -0.526,-0.184 l -1.814,-3.177 c -0.064,-0.11 0.082,-0.2 0.323,-0.2"
         style="fill:#ffffff;fill-opacity:1;fill-rule:nonzero;stroke:none;stroke-width:0.1"
         id="path208" /><path
         d="m 414.917,114.392 h -7.821 c -0.245,0 -0.519,-0.092 -0.614,-0.205 l -3.479,-4.168 c -0.105,-0.125 0.019,-0.227 0.277,-0.227 h 8.235 c 0.258,0 0.541,0.102 0.633,0.227 l 3.061,4.168 c 0.083,0.113 -0.048,0.205 -0.292,0.205"
         style="fill:#ffffff;fill-opacity:1;fill-rule:nonzero;stroke:none;stroke-width:0.1"
         id="path210" /><path
         d="m 425.023,114.392 h -7.819 c -0.245,0 -0.509,-0.092 -0.591,-0.205 l -2.993,-4.168 c -0.09,-0.125 0.047,-0.227 0.303,-0.227 h 8.236 c 0.258,0 0.529,0.102 0.606,0.227 l 2.574,4.168 c 0.071,0.113 -0.071,0.205 -0.316,0.205"
         style="fill:#ffffff;fill-opacity:1;fill-rule:nonzero;stroke:none;stroke-width:0.1"
         id="path212" /><path
         d="m 435.13,114.392 h -7.82 c -0.244,0 -0.497,-0.092 -0.565,-0.205 l -2.507,-4.168 c -0.075,-0.125 0.072,-0.227 0.329,-0.227 h 8.235 c 0.258,0 0.518,0.102 0.58,0.227 l 2.088,4.168 c 0.057,0.113 -0.095,0.205 -0.34,0.205"
         style="fill:#ffffff;fill-opacity:1;fill-rule:nonzero;stroke:none;stroke-width:0.1"
         id="path214" /><path
         d="m 447.598,114.392 h -10.18 c -0.245,0 -0.488,-0.092 -0.542,-0.205 l -2.021,-4.168 c -0.06,-0.125 0.099,-0.227 0.357,-0.227 h 10.72 c 0.258,0 0.503,0.102 0.548,0.227 l 1.488,4.168 c 0.04,0.113 -0.125,0.205 -0.37,0.205"
         style="fill:#ffffff;fill-opacity:1;fill-rule:nonzero;stroke:none;stroke-width:0.1"
         id="path216" /><path
         d="m 520.635,114.392 h -7.819 c -0.245,0 -0.407,-0.092 -0.364,-0.205 l 1.607,-4.168 c 0.048,-0.125 0.296,-0.227 0.554,-0.227 h 8.235 c 0.257,0 0.416,0.102 0.356,0.227 l -2.026,4.168 c -0.055,0.113 -0.298,0.205 -0.543,0.205"
         style="fill:#ffffff;fill-opacity:1;fill-rule:nonzero;stroke:none;stroke-width:0.1"
         id="path218" /><path
         d="m 510.529,114.392 h -10.182 c -0.244,0 -0.42,-0.092 -0.392,-0.205 l 1.007,-4.168 c 0.03,-0.125 0.263,-0.227 0.521,-0.227 h 10.721 c 0.258,0 0.428,0.102 0.383,0.227 l -1.54,4.168 c -0.042,0.113 -0.274,0.205 -0.518,0.205"
         style="fill:#ffffff;fill-opacity:1;fill-rule:nonzero;stroke:none;stroke-width:0.1"
         id="path220" /><path
         d="m 497.839,114.392 h -47.954 c -0.244,0 -0.473,-0.092 -0.512,-0.205 l -1.421,-4.168 c -0.042,-0.125 0.132,-0.227 0.389,-0.227 h 50.5 c 0.257,0 0.444,0.102 0.415,0.227 l -0.928,4.168 c -0.026,0.113 -0.244,0.205 -0.489,0.205"
         style="fill:#ffffff;fill-opacity:1;fill-rule:nonzero;stroke:none;stroke-width:0.1"
         id="path222" /><path
         d="m 449.361,118.773 h -7.425 c -0.232,0 -0.458,-0.083 -0.505,-0.184 l -1.446,-3.177 c -0.051,-0.11 0.104,-0.2 0.347,-0.2 h 7.746 c 0.242,0 0.47,0.09 0.509,0.2 l 1.128,3.177 c 0.037,0.101 -0.123,0.184 -0.354,0.184"
         style="fill:#ffffff;fill-opacity:1;fill-rule:nonzero;stroke:none;stroke-width:0.1"
         id="path224" /><path
         d="m 450.27,115.212 h 7.746 c 0.242,0 0.46,0.09 0.488,0.2 l 0.758,3.177 c 0.025,0.101 -0.143,0.184 -0.376,0.184 h -7.424 c -0.232,0 -0.449,-0.083 -0.483,-0.184 l -1.079,-3.177 c -0.037,-0.11 0.128,-0.2 0.37,-0.2"
         style="fill:#ffffff;fill-opacity:1;fill-rule:nonzero;stroke:none;stroke-width:0.1"
         id="path226" /><path
         d="m 460.209,115.212 h 7.746 c 0.242,0 0.45,0.09 0.464,0.2 l 0.391,3.177 c 0.013,0.101 -0.166,0.184 -0.397,0.184 h -7.425 c -0.233,0 -0.439,-0.083 -0.462,-0.184 l -0.711,-3.177 c -0.024,-0.11 0.151,-0.2 0.394,-0.2"
         style="fill:#ffffff;fill-opacity:1;fill-rule:nonzero;stroke:none;stroke-width:0.1"
         id="path228" /><path
         d="m 470.147,115.212 h 7.746 c 0.242,0 0.44,0.09 0.441,0.2 l 0.023,3.177 c 10e-4,0.101 -0.186,0.184 -0.419,0.184 h -7.424 c -0.232,0 -0.429,-0.083 -0.44,-0.184 l -0.343,-3.177 c -0.013,-0.11 0.174,-0.2 0.416,-0.2"
         style="fill:#ffffff;fill-opacity:1;fill-rule:nonzero;stroke:none;stroke-width:0.1"
         id="path230" /><path
         d="m 480.086,115.212 h 7.746 c 0.242,0 0.428,0.09 0.417,0.2 l -0.344,3.177 c -0.012,0.101 -0.208,0.184 -0.441,0.184 h -7.424 c -0.233,0 -0.42,-0.083 -0.419,-0.184 l 0.025,-3.177 c 10e-4,-0.11 0.197,-0.2 0.44,-0.2"
         style="fill:#ffffff;fill-opacity:1;fill-rule:nonzero;stroke:none;stroke-width:0.1"
         id="path232" /><path
         d="m 496.99,118.773 h -7.424 c -0.232,0 -0.41,-0.083 -0.397,-0.184 l 0.392,-3.177 c 0.014,-0.11 0.221,-0.2 0.463,-0.2 h 7.746 c 0.242,0 0.419,0.09 0.394,0.2 l -0.712,3.177 c -0.023,0.101 -0.23,0.184 -0.462,0.184"
         style="fill:#ffffff;fill-opacity:1;fill-rule:nonzero;stroke:none;stroke-width:0.1"
         id="path234" /><path
         d="m 507.709,115.212 c 0.242,0 0.408,0.09 0.37,0.2 L 507,118.589 c -0.036,0.101 -0.251,0.184 -0.484,0.184 h -7.425 c -0.232,0 -0.4,-0.083 -0.376,-0.184 l 0.761,-3.177 c 0.027,-0.11 0.244,-0.2 0.486,-0.2 h 7.747"
         style="fill:#ffffff;fill-opacity:1;fill-rule:nonzero;stroke:none;stroke-width:0.1"
         id="path236" /><path
         d="m 509.901,115.212 h 7.746 c 0.242,0 0.398,0.09 0.348,0.2 l -1.448,3.177 c -0.047,0.101 -0.273,0.184 -0.505,0.184 h -7.424 c -0.233,0 -0.392,-0.083 -0.355,-0.184 l 1.128,-3.177 c 0.039,-0.11 0.268,-0.2 0.51,-0.2"
         style="fill:#ffffff;fill-opacity:1;fill-rule:nonzero;stroke:none;stroke-width:0.1"
         id="path238" /><path
         d="m 519.839,115.212 h 7.747 c 0.242,0 0.387,0.09 0.324,0.2 l -1.816,3.177 c -0.058,0.101 -0.294,0.184 -0.526,0.184 h -7.425 c -0.232,0 -0.381,-0.083 -0.333,-0.184 l 1.496,-3.177 c 0.053,-0.11 0.291,-0.2 0.533,-0.2"
         style="fill:#ffffff;fill-opacity:1;fill-rule:nonzero;stroke:none;stroke-width:0.1"
         id="path240" /><path
         d="m 445.186,119.626 1.194,2.877 c 0.039,0.093 -0.109,0.167 -0.331,0.167 h -7.072 c -0.222,0 -0.439,-0.074 -0.487,-0.167 l -1.484,-2.877 c -0.05,-0.101 0.094,-0.182 0.324,-0.182 h 7.364 c 0.23,0 0.451,0.081 0.492,0.182"
         style="fill:#ffffff;fill-opacity:1;fill-rule:nonzero;stroke:none;stroke-width:0.1"
         id="path242" /><path
         d="m 446.802,119.444 h 7.365 c 0.23,0 0.441,0.081 0.47,0.182 l 0.861,2.877 c 0.028,0.093 -0.129,0.167 -0.35,0.167 h -7.073 c -0.221,0 -0.431,-0.074 -0.468,-0.167 l -1.148,-2.877 c -0.04,-0.101 0.114,-0.182 0.343,-0.182"
         style="fill:#ffffff;fill-opacity:1;fill-rule:nonzero;stroke:none;stroke-width:0.1"
         id="path244" /><path
         d="m 464.089,119.626 0.526,2.877 c 0.017,0.093 -0.149,0.167 -0.369,0.167 h -7.074 c -0.22,0 -0.42,-0.074 -0.447,-0.167 l -0.815,-2.877 c -0.029,-0.101 0.135,-0.182 0.365,-0.182 h 7.364 c 0.231,0 0.432,0.081 0.45,0.182"
         style="fill:#ffffff;fill-opacity:1;fill-rule:nonzero;stroke:none;stroke-width:0.1"
         id="path246" /><path
         d="m 473.541,119.626 0.192,2.877 c 0.006,0.093 -0.168,0.167 -0.39,0.167 h -7.072 c -0.222,0 -0.413,-0.074 -0.429,-0.167 l -0.481,-2.877 c -0.017,-0.101 0.156,-0.182 0.387,-0.182 h 7.364 c 0.229,0 0.422,0.081 0.429,0.182"
         style="fill:#ffffff;fill-opacity:1;fill-rule:nonzero;stroke:none;stroke-width:0.1"
         id="path248" /><path
         d="m 482.992,119.626 -0.142,2.877 c -0.005,0.093 -0.187,0.167 -0.409,0.167 h -7.072 c -0.222,0 -0.405,-0.074 -0.409,-0.167 l -0.148,-2.877 c -0.005,-0.101 0.178,-0.182 0.408,-0.182 h 7.364 c 0.23,0 0.413,0.081 0.408,0.182"
         style="fill:#ffffff;fill-opacity:1;fill-rule:nonzero;stroke:none;stroke-width:0.1"
         id="path250" /><path
         d="m 492.443,119.626 -0.476,2.877 c -0.015,0.093 -0.207,0.167 -0.427,0.167 h -7.074 c -0.22,0 -0.395,-0.074 -0.389,-0.167 l 0.187,-2.877 c 0.006,-0.101 0.198,-0.182 0.429,-0.182 h 7.363 c 0.231,0 0.404,0.081 0.387,0.182"
         style="fill:#ffffff;fill-opacity:1;fill-rule:nonzero;stroke:none;stroke-width:0.1"
         id="path252" /><path
         d="m 494.165,119.444 h 7.364 c 0.23,0 0.394,0.081 0.366,0.182 l -0.81,2.877 c -0.027,0.093 -0.227,0.167 -0.448,0.167 h -7.073 c -0.221,0 -0.387,-0.074 -0.37,-0.167 l 0.521,-2.877 c 0.019,-0.101 0.22,-0.182 0.45,-0.182"
         style="fill:#ffffff;fill-opacity:1;fill-rule:nonzero;stroke:none;stroke-width:0.1"
         id="path254" /><path
         d="m 503.637,119.444 h 7.365 c 0.23,0 0.384,0.081 0.344,0.182 l -1.144,2.877 c -0.036,0.093 -0.245,0.167 -0.467,0.167 h -7.072 c -0.222,0 -0.379,-0.074 -0.351,-0.167 l 0.855,-2.877 c 0.03,-0.101 0.24,-0.182 0.47,-0.182"
         style="fill:#ffffff;fill-opacity:1;fill-rule:nonzero;stroke:none;stroke-width:0.1"
         id="path256" /><path
         d="m 520.797,119.626 -1.477,2.877 c -0.048,0.093 -0.266,0.167 -0.487,0.167 h -7.073 c -0.221,0 -0.369,-0.074 -0.331,-0.167 l 1.19,-2.877 c 0.041,-0.101 0.261,-0.182 0.491,-0.182 h 7.364 c 0.231,0 0.375,0.081 0.323,0.182"
         style="fill:#ffffff;fill-opacity:1;fill-rule:nonzero;stroke:none;stroke-width:0.1"
         id="path258" /><path
         d="m 530.25,119.626 -1.813,2.877 c -0.058,0.093 -0.285,0.167 -0.506,0.167 h -7.073 c -0.221,0 -0.36,-0.074 -0.311,-0.167 l 1.523,-2.877 c 0.053,-0.101 0.282,-0.182 0.513,-0.182 h 7.364 c 0.229,0 0.365,0.081 0.303,0.182"
         style="fill:#ffffff;fill-opacity:1;fill-rule:nonzero;stroke:none;stroke-width:0.1"
         id="path260" /><path
         d="m 414.531,123.272 h 11.422 c 0.219,0 0.447,0.075 0.509,0.165 l 1.771,2.619 c 0.058,0.084 -0.067,0.152 -0.278,0.152 h -10.991 c -0.21,0 -0.439,-0.068 -0.509,-0.152 l -2.184,-2.619 c -0.075,-0.09 0.041,-0.165 0.26,-0.165"
         style="fill:#ffffff;fill-opacity:1;fill-rule:nonzero;stroke:none;stroke-width:0.1"
         id="path262" /><path
         d="m 411.358,119.444 h 14.329 c 0.23,0 0.469,0.081 0.534,0.182 l 1.865,2.877 c 0.059,0.093 -0.071,0.167 -0.292,0.167 h -13.762 c -0.221,0 -0.463,-0.074 -0.54,-0.167 l -2.4,-2.877 c -0.083,-0.101 0.036,-0.182 0.266,-0.182"
         style="fill:#ffffff;fill-opacity:1;fill-rule:nonzero;stroke:none;stroke-width:0.1"
         id="path264" /><path
         d="m 407.856,115.22 h 20.149 c 0.243,0 0.492,0.09 0.556,0.2 l 1.871,3.176 c 0.06,0.102 -0.079,0.185 -0.311,0.185 h -19.313 c -0.232,0 -0.489,-0.083 -0.574,-0.185 l -2.649,-3.176 c -0.092,-0.11 0.029,-0.2 0.271,-0.2"
         style="fill:#ffffff;fill-opacity:1;fill-rule:nonzero;stroke:none;stroke-width:0.1"
         id="path266" /><path
         d="m 547.042,118.781 h -19.313 c -0.232,0 -0.372,-0.083 -0.311,-0.185 l 1.866,-3.176 c 0.065,-0.11 0.314,-0.2 0.556,-0.2 h 20.149 c 0.242,0 0.364,0.09 0.271,0.2 l -2.644,3.176 c -0.085,0.102 -0.342,0.185 -0.574,0.185"
         style="fill:#ffffff;fill-opacity:1;fill-rule:nonzero;stroke:none;stroke-width:0.1"
         id="path268" /><path
         d="m 544.006,122.649 h -13.765 c -0.221,0 -0.352,-0.075 -0.291,-0.168 l 1.868,-2.878 c 0.064,-0.1 0.304,-0.181 0.534,-0.181 h 14.333 c 0.23,0 0.349,0.081 0.266,0.181 l -2.404,2.878 c -0.078,0.093 -0.319,0.168 -0.541,0.168"
         style="fill:#ffffff;fill-opacity:1;fill-rule:nonzero;stroke:none;stroke-width:0.1"
         id="path270" /><path
         d="m 530.37,114.392 -7.529,-0.04 c -0.193,-0.002 -0.326,-0.2 -0.252,-0.379 0.876,-2.135 1.875,-3.916 1.875,-3.916 0.062,-0.125 0.322,-0.227 0.579,-0.227 h 8.329 c 0.258,0 0.405,0.102 0.33,0.227 0,0 -1.043,1.71 -2.302,3.761 -0.22,0.358 -0.61,0.576 -1.03,0.574"
         style="fill:#ffffff;fill-opacity:1;fill-rule:nonzero;stroke:none;stroke-width:0.1"
         id="path272" /><path
         d="m 550.168,114.486 -7.622,-0.02 c -0.162,0 -0.255,-0.184 -0.161,-0.316 1.572,-2.191 3.053,-4.093 3.053,-4.093 0.091,-0.125 0.374,-0.227 0.631,-0.227 h 8.329 c 0.258,0 0.382,0.102 0.278,0.227 0,0 -1.623,1.879 -3.615,4.04 -0.229,0.25 -0.555,0.39 -0.893,0.389"
         style="fill:#ffffff;fill-opacity:1;fill-rule:nonzero;stroke:none;stroke-width:0.1"
         id="path274" /><path
         d="m 540.563,114.613 h -7.891 c -0.245,0 -0.355,-0.142 -0.247,-0.317 l 1.438,-2.333 0.311,-0.506 0.864,-1.4 c 0.077,-0.125 0.348,-0.227 0.605,-0.227 h 8.329 c 0.258,0 0.394,0.102 0.304,0.227 l -1.006,1.4 -0.362,0.506 -1.675,2.333 c -0.126,0.175 -0.426,0.317 -0.67,0.317"
         style="fill:#ffffff;fill-opacity:1;fill-rule:nonzero;stroke:none;stroke-width:0.1"
         id="path276" /><path
         d="m 503.184,154.248 -1.486,20.057 h -39.873 l -1.496,-20.199 c -0.167,-2.251 -0.823,-4.417 -1.893,-6.363 h 46.716 c -1.115,1.98 -1.797,4.197 -1.968,6.505"
         style="fill:#007bbf;fill-opacity:1;fill-rule:nonzero;stroke:none;stroke-width:0.1"
         id="path278" /><path
         d="m 513.535,147.743 h -63.481 c -0.833,0 -1.508,-0.675 -1.508,-1.509 v -4.412 c 0,-0.833 0.675,-1.509 1.508,-1.509 h 63.481 c 0.833,0 1.508,0.676 1.508,1.509 v 4.412 c 0,0.834 -0.675,1.509 -1.508,1.509"
         style="fill:#003661;fill-opacity:1;fill-rule:nonzero;stroke:none;stroke-width:0.1"
         id="path280" /><path
         d="m 378.565,188.793 v -12.816 c 0,-3.59 2.91,-6.501 6.501,-6.501 h 193.548 c 3.59,0 6.501,2.911 6.501,6.501 v 12.816 h -206.55"
         style="fill:#003661;fill-opacity:1;fill-rule:nonzero;stroke:none;stroke-width:0.1"
         id="path282" /><path
         d="M 578.614,311.757 H 385.066 c -3.591,0 -6.501,-2.91 -6.501,-6.501 V 188.793 h 206.55 v 116.463 c 0,3.591 -2.911,6.501 -6.501,6.501"
         style="fill:#4c8fb9;fill-opacity:1;fill-rule:nonzero;stroke:none;stroke-width:0.1"
         id="path284" /><path
         d="M 575.828,196.966 H 387.109 V 303.584 H 575.828 V 196.966"
         style="fill:#dde3f5;fill-opacity:1;fill-rule:nonzero;stroke:none;stroke-width:0.1"
         id="path286" /><path
         d="M 563.882,196.871 H 399.797 V 322.242 H 563.882 V 196.871"
         style="fill:#ffffff;fill-opacity:1;fill-rule:evenodd;stroke:none;stroke-width:0.1"
         id="path288" /><path
         d="M 563.882,310.568 H 399.797 v 11.674 h 164.085 v -11.674"
         style="fill:#003661;fill-opacity:1;fill-rule:evenodd;stroke:none;stroke-width:0.1"
         id="path290" /><path
         d="m 406.42,316.405 c 0,-0.64 -0.457,-1.16 -1.02,-1.16 -0.563,0 -1.019,0.52 -1.019,1.16 0,0.641 0.456,1.16 1.019,1.16 0.563,0 1.02,-0.519 1.02,-1.16"
         style="fill:#ffffff;fill-opacity:1;fill-rule:evenodd;stroke:none;stroke-width:0.1"
         id="path292" /><path
         d="m 410.611,316.405 c 0,-0.64 -0.456,-1.16 -1.019,-1.16 -0.562,0 -1.018,0.52 -1.018,1.16 0,0.641 0.456,1.16 1.018,1.16 0.563,0 1.019,-0.519 1.019,-1.16"
         style="fill:#ffffff;fill-opacity:1;fill-rule:evenodd;stroke:none;stroke-width:0.1"
         id="path294" /><path
         d="m 414.803,316.405 c 0,-0.64 -0.456,-1.16 -1.019,-1.16 -0.563,0 -1.019,0.52 -1.019,1.16 0,0.641 0.456,1.16 1.019,1.16 0.563,0 1.019,-0.519 1.019,-1.16"
         style="fill:#ffffff;fill-opacity:1;fill-rule:evenodd;stroke:none;stroke-width:0.1"
         id="path296" /><path
         d="m 553.206,278.05 h -78.23 v 25.76 h 78.23 v -25.76"
         style="fill:#dde3f5;fill-opacity:1;fill-rule:evenodd;stroke:none;stroke-width:0.1"
         id="path298" /><path
         d="m 553.206,252.413 h -78.23 v 22.038 h 78.23 v -22.038"
         style="fill:#fecf00;fill-opacity:1;fill-rule:evenodd;stroke:none;stroke-width:0.1"
         id="path300" /><path
         d="M 553.206,226.846 H 408.64 v 18.363 h 144.566 v -18.363"
         style="fill:#248fb9;fill-opacity:1;fill-rule:evenodd;stroke:none;stroke-width:0.1"
         id="path302" /><path
         d="m 442.087,203.158 h -33.513 v 18.066 h 33.513 v -18.066"
         style="fill:#fecf00;fill-opacity:1;fill-rule:evenodd;stroke:none;stroke-width:0.1"
         id="path304" /><path
         d="m 469.43,251.89 h -60.856 v 50.809 H 469.43 V 251.89"
         style="fill:#248fb9;fill-opacity:1;fill-rule:evenodd;stroke:none;stroke-width:0.1"
         id="path306" /><path
         d="M 553.206,202.684 H 447.204 v 18.065 h 106.002 v -18.065"
         style="fill:#dde3f5;fill-opacity:1;fill-rule:evenodd;stroke:none;stroke-width:0.1"
         id="path308" /><path
         d="m 408.574,250.83 20.452,36.42 12.187,-20.564 9.003,13.173 17.281,-29.029 h -58.923"
         style="fill:#ffffff;fill-opacity:1;fill-rule:evenodd;stroke:none;stroke-width:0.1"
         id="path310" /><path
         d="m 458.768,290.251 c 0,-2.029 -1.55,-3.674 -3.462,-3.674 -1.911,0 -3.461,1.645 -3.461,3.674 0,2.029 1.55,3.673 3.461,3.673 1.912,0 3.462,-1.644 3.462,-3.673"
         style="fill:#ffffff;fill-opacity:1;fill-rule:evenodd;stroke:none;stroke-width:0.1"
         id="path312" /><path
         d="m 480.568,297.058 h 63.8102 v 0.25 H 480.568 Z"
         style="fill:#223061;fill-opacity:1;fill-rule:nonzero;stroke:none;stroke-width:0.1"
         id="path314" /><path
         d="m 452.14,215.112 h 95.7117 v 0.5 H 452.14 Z"
         style="fill:#ffffff;fill-opacity:1;fill-rule:nonzero;stroke:none;stroke-width:0.1"
         id="path316" /><path
         d="m 452.14,211.6 h 83.9277 v 0.5 H 452.14 Z"
         style="fill:#ffffff;fill-opacity:1;fill-rule:nonzero;stroke:none;stroke-width:0.1"
         id="path318" /><path
         d="m 452.14,208.087 h 60.0297 v 0.5 H 452.14 Z"
         style="fill:#ffffff;fill-opacity:1;fill-rule:nonzero;stroke:none;stroke-width:0.1"
         id="path320" /><path
         d="m 413.9,239.29 h 133.952 v 0.5 H 413.9 Z"
         style="fill:#ffffff;fill-opacity:1;fill-rule:nonzero;stroke:none;stroke-width:0.1"
         id="path322" /><path
         d="m 413.9,235.777 h 117.459 v 0.5 H 413.9 Z"
         style="fill:#ffffff;fill-opacity:1;fill-rule:nonzero;stroke:none;stroke-width:0.1"
         id="path324" /><path
         d="m 413.9,232.265 h 84.0129 v 0.5 H 413.9 Z"
         style="fill:#ffffff;fill-opacity:1;fill-rule:nonzero;stroke:none;stroke-width:0.1"
         id="path326" /><path
         d="m 480.568,293.799 h 52.0352 v 0.25 H 480.568 Z"
         style="fill:#223061;fill-opacity:1;fill-rule:nonzero;stroke:none;stroke-width:0.1"
         id="path328" /><path
         d="m 480.568,290.542 h 45.198 v 0.25 h -45.198 z"
         style="fill:#223061;fill-opacity:1;fill-rule:nonzero;stroke:none;stroke-width:0.1"
         id="path330" /><path
         d="m 480.568,287.125 h 45.198 v 0.25 h -45.198 z"
         style="fill:#223061;fill-opacity:1;fill-rule:nonzero;stroke:none;stroke-width:0.1"
         id="path332" /><path
         d="m 480.568,283.708 h 37.25 v 0.25 h -37.25 z"
         style="fill:#223061;fill-opacity:1;fill-rule:nonzero;stroke:none;stroke-width:0.1"
         id="path334" /><path
         d="m 436.563,216.22 h -24.559 v 1.364 h 24.559 v -1.364"
         style="fill:#ffffff;fill-opacity:1;fill-rule:evenodd;stroke:none;stroke-width:0.1"
         id="path336" /><path
         d="m 436.563,213.619 h -24.559 v 1.365 h 24.559 v -1.365"
         style="fill:#ffffff;fill-opacity:1;fill-rule:evenodd;stroke:none;stroke-width:0.1"
         id="path338" /><path
         d="m 429.625,211.02 h -17.621 v 1.365 h 17.621 v -1.365"
         style="fill:#ffffff;fill-opacity:1;fill-rule:evenodd;stroke:none;stroke-width:0.1"
         id="path340" /><path
         d="m 424.459,208.42 h -12.455 v 1.364 h 12.455 v -1.364"
         style="fill:#ffffff;fill-opacity:1;fill-rule:evenodd;stroke:none;stroke-width:0.1"
         id="path342" /><path
         d="m 546.498,267.677 h -65.931 v 1.365 h 65.931 v -1.365"
         style="fill:#ffffff;fill-opacity:1;fill-rule:evenodd;stroke:none;stroke-width:0.1"
         id="path344" /><path
         d="m 546.498,264.049 h -65.931 v 1.365 h 65.931 v -1.365"
         style="fill:#ffffff;fill-opacity:1;fill-rule:evenodd;stroke:none;stroke-width:0.1"
         id="path346" /><path
         d="m 527.871,260.421 h -47.304 v 1.365 h 47.304 v -1.365"
         style="fill:#ffffff;fill-opacity:1;fill-rule:evenodd;stroke:none;stroke-width:0.1"
         id="path348" /><path
         d="m 514.003,256.793 h -33.436 v 1.365 h 33.436 v -1.365"
         style="fill:#ffffff;fill-opacity:1;fill-rule:evenodd;stroke:none;stroke-width:0.1"
         id="path350" /><path
         d="m 414.99,216.041 h -80.851 v 67.065 h 80.851 v -67.065"
         style="fill:#dde3f5;fill-opacity:1;fill-rule:nonzero;stroke:none;stroke-width:0.1"
         id="path352" /><path
         d="m 414.99,270.912 h -80.851 v 12.194 h 80.851 v -12.194"
         style="fill:#fecf00;fill-opacity:1;fill-rule:nonzero;stroke:none;stroke-width:0.1"
         id="path354" /><path
         d="m 393.353,226.52 h -37.576 v 34.879 h 37.576 V 226.52"
         style="fill:#4c8fb9;fill-opacity:1;fill-rule:nonzero;stroke:none;stroke-width:0.1"
         id="path356" /><path
         d="m 381.224,243.947 -10.799,6.169 0.058,-12.437 z"
         style="fill:#ffffff;fill-opacity:1;fill-rule:nonzero;stroke:none;stroke-width:0.1"
         id="path358" /><path
         d="m 342.295,277.009 c 0,-0.543 -0.441,-0.984 -0.984,-0.984 -0.543,0 -0.983,0.441 -0.983,0.984 0,0.543 0.44,0.984 0.983,0.984 0.543,0 0.984,-0.441 0.984,-0.984"
         style="fill:#ffffff;fill-opacity:1;fill-rule:nonzero;stroke:none;stroke-width:0.1"
         id="path360" /><path
         d="m 346.308,277.009 c 0,-0.543 -0.44,-0.984 -0.983,-0.984 -0.543,0 -0.984,0.441 -0.984,0.984 0,0.543 0.441,0.984 0.984,0.984 0.543,0 0.983,-0.441 0.983,-0.984"
         style="fill:#ffffff;fill-opacity:1;fill-rule:nonzero;stroke:none;stroke-width:0.1"
         id="path362" /><path
         d="m 350.322,277.009 c 0,-0.543 -0.441,-0.984 -0.984,-0.984 -0.543,0 -0.984,0.441 -0.984,0.984 0,0.543 0.441,0.984 0.984,0.984 0.543,0 0.984,-0.441 0.984,-0.984"
         style="fill:#ffffff;fill-opacity:1;fill-rule:nonzero;stroke:none;stroke-width:0.1"
         id="path364" /><path
         d="m 618.082,262.552 0.262,-56.853 -80.707,-0.373 -0.262,56.853 80.707,0.373"
         style="fill:#ffffff;fill-opacity:1;fill-rule:nonzero;stroke:none;stroke-width:0.1"
         id="path366" /><path
         d="m 618.082,262.552 0.057,-12.441 -80.707,-0.373 -0.057,12.441 80.707,0.373"
         style="fill:#248fb9;fill-opacity:1;fill-rule:nonzero;stroke:none;stroke-width:0.1"
         id="path368" /><path
         d="m 545.764,255.748 c 0.003,-0.672 -0.539,-1.219 -1.211,-1.223 -0.671,-0.003 -1.218,0.539 -1.221,1.211 -0.003,0.672 0.539,1.219 1.211,1.222 0.671,0.003 1.218,-0.539 1.221,-1.21"
         style="fill:#ffffff;fill-opacity:1;fill-rule:nonzero;stroke:none;stroke-width:0.1"
         id="path370" /><path
         d="m 550.386,255.769 c 0.003,-0.672 -0.539,-1.219 -1.211,-1.222 -0.67,-0.003 -1.218,0.539 -1.221,1.211 -0.003,0.672 0.539,1.219 1.211,1.221 0.672,0.004 1.218,-0.538 1.221,-1.21"
         style="fill:#ffffff;fill-opacity:1;fill-rule:nonzero;stroke:none;stroke-width:0.1"
         id="path372" /><path
         d="m 555.008,255.79 c 0.003,-0.672 -0.539,-1.219 -1.211,-1.222 -0.671,-0.003 -1.218,0.539 -1.221,1.211 -0.003,0.672 0.539,1.219 1.211,1.222 0.672,0.003 1.218,-0.539 1.221,-1.211"
         style="fill:#ffffff;fill-opacity:1;fill-rule:nonzero;stroke:none;stroke-width:0.1"
         id="path374" /><path
         d="m 608.801,234.181 h -29.9 v 1.786 h 29.9 v -1.786"
         style="fill:#27449f;fill-opacity:1;fill-rule:evenodd;stroke:none;stroke-width:0.1"
         id="path376" /><path
         d="m 608.801,230.776 h -29.9 v 1.787 h 29.9 v -1.787"
         style="fill:#27449f;fill-opacity:1;fill-rule:evenodd;stroke:none;stroke-width:0.1"
         id="path378" /><path
         d="m 605.412,227.372 h -26.511 v 1.787 h 26.511 v -1.787"
         style="fill:#27449f;fill-opacity:1;fill-rule:evenodd;stroke:none;stroke-width:0.1"
         id="path380" /><path
         d="m 601.806,223.969 h -22.905 v 1.786 h 22.905 v -1.786"
         style="fill:#27449f;fill-opacity:1;fill-rule:evenodd;stroke:none;stroke-width:0.1"
         id="path382" /><path
         d="m 595.515,220.564 h -16.614 v 1.788 h 16.614 v -1.788"
         style="fill:#27449f;fill-opacity:1;fill-rule:evenodd;stroke:none;stroke-width:0.1"
         id="path384" /><path
         d="m 574.959,217.979 h -28.246 v 20.716 h 28.246 v -20.716"
         style="fill:#007bbf;fill-opacity:1;fill-rule:evenodd;stroke:none;stroke-width:0.1"
         id="path386" /><path
         d="m 546.713,217.836 8.849,14.85 5.274,-8.385 3.894,5.371 7.478,-11.836 h -25.495"
         style="fill:#ffffff;fill-opacity:1;fill-rule:evenodd;stroke:none;stroke-width:0.1"
         id="path388" /><path
         d="m 568.431,233.62 c 0,-0.827 -0.671,-1.498 -1.498,-1.498 -0.827,0 -1.498,0.671 -1.498,1.498 0,0.827 0.671,1.498 1.498,1.498 0.827,0 1.498,-0.671 1.498,-1.498"
         style="fill:#ffffff;fill-opacity:1;fill-rule:evenodd;stroke:none;stroke-width:0.1"
         id="path390" /><path
         d="m 536.901,327.33 c 0,-11.318 -9.175,-20.494 -20.493,-20.494 -11.319,0 -20.494,9.176 -20.494,20.494 0,11.318 9.175,20.494 20.494,20.494 11.318,0 20.493,-9.176 20.493,-20.494"
         style="fill:#248fb9;fill-opacity:1;fill-rule:nonzero;stroke:none;stroke-width:0.1"
         id="path392" /><path
         d="m 407.005,165.965 c 0,-11.497 -9.319,-20.817 -20.816,-20.817 -11.496,0 -20.816,9.32 -20.816,20.817 0,11.496 9.32,20.816 20.816,20.816 11.497,0 20.816,-9.32 20.816,-20.816"
         style="fill:#248fb9;fill-opacity:1;fill-rule:nonzero;stroke:none;stroke-width:0.1"
         id="path394" /><path
         d="m 595.394,161.024 c 0,-12.805 -10.381,-23.187 -23.186,-23.187 -12.806,0 -23.187,10.382 -23.187,23.187 0,12.806 10.381,23.187 23.187,23.187 12.805,0 23.186,-10.381 23.186,-23.187"
         style="fill:#ffffff;fill-opacity:1;fill-rule:nonzero;stroke:none;stroke-width:0.1"
         id="path396" /><path
         d="m 523.158,331.75 c -3.416,4.019 -6.605,-0.197 -6.605,-0.197 0,0 -3.188,4.216 -6.605,0.197 -3.342,-3.932 4.797,-9.987 6.605,-10.577 1.809,0.59 9.947,6.645 6.605,10.577"
         style="fill:#ffffff;fill-opacity:1;fill-rule:nonzero;stroke:none;stroke-width:0.1"
         id="path398" /><path
         d="m 578.965,160.212 c 0,0.458 -0.265,0.85 -0.649,1.041 0.384,0.191 0.649,0.584 0.649,1.042 0,0.644 -0.522,1.167 -1.168,1.167 h -0.188 l -2.84,-0.063 c 0,0 0.6,2.524 0.378,3.881 -0.221,1.357 -2.051,1.956 -2.082,0.442 -0.031,-1.515 -0.221,-2.02 -1.389,-3.345 -0.763,-0.866 -1.175,-1.544 -1.37,-1.909 -0.096,-0.183 -0.144,-0.386 -0.144,-0.592 v -5.734 c 0,-0.314 0.254,-0.569 0.568,-0.569 h 6.879 0.188 c 0.646,0 1.223,0.473 1.171,1.115 -0.042,0.527 -0.686,0.726 -0.686,0.726 0,0 0.789,0.09 0.789,0.853 0,0.71 -0.442,0.882 -0.755,0.904 0.384,0.191 0.649,0.583 0.649,1.041"
         style="fill:#007bbf;fill-opacity:1;fill-rule:nonzero;stroke:none;stroke-width:0.1"
         id="path400" /><path
         d="m 568.563,162.295 h -2.482 c -0.407,0 -0.737,-0.33 -0.737,-0.736 v -6.491 c 0,-0.406 0.33,-0.736 0.737,-0.736 h 2.482 c 0.406,0 0.736,0.33 0.736,0.736 v 6.491 c 0,0.406 -0.33,0.736 -0.736,0.736"
         style="fill:#007bbf;fill-opacity:1;fill-rule:nonzero;stroke:none;stroke-width:0.1"
         id="path402" /><g
         id="g404"
         transform="translate(-4.5)"><g
           id="g1431"
           transform="translate(1.5)"><text
             transform="scale(1,-1)"
             style="font-variant:normal;font-weight:normal;font-size:16.2698px;font-family:Antonio;-inkscape-font-specification:Antonio-Regular;writing-mode:lr-tb;fill:#ffffff;fill-opacity:1;fill-rule:nonzero;stroke:none"
             id="text408"
             x="374.82401"
             y="-159.687"><tspan
               x="374.82401"
               y="-159.687"
               id="tspan406">&lt;</tspan></text><text
             transform="scale(1,-1)"
             style="font-variant:normal;font-weight:normal;font-size:15.1477px;font-family:Antonio;-inkscape-font-specification:Antonio-Regular;writing-mode:lr-tb;fill:#ffffff;fill-opacity:1;fill-rule:nonzero;stroke:none"
             id="text412"
             x="387.09262"
             y="-159.7605"><tspan
               x="387.09262"
               y="-159.7605"
               id="tspan410">/</tspan></text><text
             transform="scale(1,-1)"
             style="font-variant:normal;font-weight:normal;font-size:16.2698px;font-family:Antonio;-inkscape-font-specification:Antonio-Regular;writing-mode:lr-tb;fill:#ffffff;fill-opacity:1;fill-rule:nonzero;stroke:none"
             id="text416"
             x="390.91501"
             y="-159.687"><tspan
               x="390.91501"
               y="-159.687"
               id="tspan414">&gt;</tspan></text></g></g></g></g></svg>
