<?xml version="1.0" encoding="UTF-8" standalone="no"?>
<!-- Created with Inkscape (http://www.inkscape.org/) -->

<svg
   version="1.1"
   id="svg2"
   xml:space="preserve"
   width="1201.3333"
   height="668"
   viewBox="0 0 1201.3333 668"
   sodipodi:docname="home2.svg"
   inkscape:version="1.1 (1:1.1+202105261517+ce6663b3b7)"
   xmlns:inkscape="http://www.inkscape.org/namespaces/inkscape"
   xmlns:sodipodi="http://sodipodi.sourceforge.net/DTD/sodipodi-0.dtd"
   xmlns="http://www.w3.org/2000/svg"
   xmlns:svg="http://www.w3.org/2000/svg"><defs
     id="defs6"><clipPath
       clipPathUnits="userSpaceOnUse"
       id="clipPath22"><path
         d="M 5,5 H 9005 V 5005 H 5 Z"
         id="path20" /></clipPath><clipPath
       clipPathUnits="userSpaceOnUse"
       id="clipPath366"><path
         d="m 1960.4,1476.9 c 0,-87.83 -71.21,-159.04 -159.04,-159.04 -87.84,0 -159.04,71.21 -159.04,159.04 0,87.85 71.2,159.05 159.04,159.05 87.83,0 159.04,-71.2 159.04,-159.05"
         id="path364" /></clipPath><clipPath
       clipPathUnits="userSpaceOnUse"
       id="clipPath380"><path
         d="M 5,5 H 9005 V 5005 H 5 Z"
         id="path378" /></clipPath><clipPath
       clipPathUnits="userSpaceOnUse"
       id="clipPath390"><path
         d="m 1064.17,1476.9 c 0,-87.83 -71.205,-159.04 -159.045,-159.04 -87.836,0 -159.039,71.21 -159.039,159.04 0,87.85 71.203,159.05 159.039,159.05 87.84,0 159.045,-71.2 159.045,-159.05"
         id="path388" /></clipPath><clipPath
       clipPathUnits="userSpaceOnUse"
       id="clipPath404"><path
         d="M 5,5 H 9005 V 5005 H 5 Z"
         id="path402" /></clipPath><clipPath
       clipPathUnits="userSpaceOnUse"
       id="clipPath414"><path
         d="m 1499.57,1476.9 c 0,-87.83 -71.21,-159.04 -159.05,-159.04 -87.84,0 -159.04,71.21 -159.04,159.04 0,87.85 71.2,159.05 159.04,159.05 87.84,0 159.05,-71.2 159.05,-159.05"
         id="path412" /></clipPath><clipPath
       clipPathUnits="userSpaceOnUse"
       id="clipPath428"><path
         d="M 5,5 H 9005 V 5005 H 5 Z"
         id="path426" /></clipPath></defs><sodipodi:namedview
     id="namedview4"
     pagecolor="#ffffff"
     bordercolor="#666666"
     borderopacity="1.0"
     inkscape:pageshadow="2"
     inkscape:pageopacity="0.0"
     inkscape:pagecheckerboard="0"
     showgrid="false"
     inkscape:zoom="0.8022641"
     inkscape:cx="646.91914"
     inkscape:cy="268.61479"
     inkscape:window-width="1920"
     inkscape:window-height="1056"
     inkscape:window-x="0"
     inkscape:window-y="24"
     inkscape:window-maximized="1"
     inkscape:current-layer="g8" /><g
     id="g8"
     inkscape:groupmode="layer"
     inkscape:label="ink_ext_XXXXXX"
     transform="matrix(1.3333333,0,0,-1.3333333,0,668)"><path
       d="m 577.42737,352.26795 c -47.18043,44.22302 -102.44829,55.63189 -117.05921,57.96171 9.83769,26.5411 25.04418,66.00543 28.8316,71.85039 1.21879,0.166 3.70734,0.42228 7.3841,0.42228 10.73321,0 33.70239,-2.23372 66.93299,-17.18683 47.98568,-21.59458 60.83177,-45.88885 63.35526,-51.82991 l -49.44474,-61.21764"
       style="fill:#ffffff;fill-opacity:1;fill-rule:nonzero;stroke:none;stroke-width:0.145614"
       id="path24" /><path
       d="m 496.58386,485.41461 c -5.83913,0 -8.83878,-0.61594 -8.83878,-0.61594 -3.41174,-1.13725 -31.36092,-76.94689 -31.36092,-76.94689 0,0 66.34617,-6.7696 121.32279,-59.87217 l 52.47788,64.97304 c 0,0 -8.75723,29.4956 -65.47394,55.01885 -33.23498,14.95602 -56.40073,17.44311 -68.12703,17.44311 z m 0,-5.82456 c 10.50024,0 33.00344,-2.20023 65.73895,-16.93056 43.41341,-19.5356 57.44188,-41.3748 61.13756,-48.76326 l -46.34316,-57.3778 c -27.89093,25.39074 -57.95005,39.41774 -78.73939,46.80039 -14.74343,5.23482 -26.81339,7.91704 -34.0475,9.21883 10.87301,29.21747 22.70416,59.29553 26.67506,66.81505 1.29013,0.12086 3.15691,0.23735 5.57848,0.23735"
       style="fill:#a0c6f4;fill-opacity:1;fill-rule:nonzero;stroke:none;stroke-width:0.145614"
       id="path26" /><path
       d="m 466.05003,401.23944 c 0,-10e-4 0.24754,-0.0262 0.73098,-0.083 7.25304,-0.83728 66.85291,-8.82714 104.28594,-43.22265 0.29704,-0.27085 0.75719,-0.25191 1.02949,0.0451 0.27083,0.29559 0.25191,0.75574 -0.0437,1.02804 -40.46618,37.11412 -105.79596,43.65802 -105.85712,43.67986 -0.39898,0.0407 -0.7572,-0.25045 -0.79651,-0.65089 -0.0407,-0.40044 0.25046,-0.75719 0.6509,-0.79796"
       style="fill:#cfd0d1;fill-opacity:1;fill-rule:nonzero;stroke:none;stroke-width:0.145614"
       id="path28" /><path
       d="m 522.45804,405.14482 24.33794,47.32314 25.0136,-49.35155 z"
       style="fill:#a0c6f4;fill-opacity:1;fill-rule:nonzero;stroke:none;stroke-width:0.145614"
       id="path30" /><path
       d="m 527.19049,405.82046 0.64653,-0.33199 23.68559,46.05483 23.80938,-46.9722 -48.11237,1.97744 -0.0291,-0.72808 0.64653,-0.33199 -0.64653,0.33199 -0.0306,-0.72661 49.35301,-2.02841 c 0.25773,-0.0116 0.50236,0.1165 0.64215,0.33346 0.13979,0.21696 0.1529,0.49363 0.0365,0.72225 l -25.01505,49.35154 c -0.12378,0.24463 -0.37277,0.39899 -0.64654,0.39899 -0.27375,10e-4 -0.52421,-0.15144 -0.64943,-0.39461 l -24.33795,-47.32315 c -0.11358,-0.22133 -0.1063,-0.4849 0.0189,-0.69895 0.12377,-0.21551 0.35093,-0.35093 0.59847,-0.36112 l 0.0306,0.72661"
       style="fill:#cfd0d1;fill-opacity:1;fill-rule:nonzero;stroke:none;stroke-width:0.145614"
       id="path32" /><path
       d="m 504.27811,487.56388 c 10e-4,0 0.27521,-0.0247 0.8169,-0.086 8.12817,-0.90135 74.91702,-9.87555 117.3082,-60.28426 0.25774,-0.30724 0.71787,-0.34655 1.02512,-0.0873 0.30725,0.2592 0.34802,0.71788 0.0888,1.02513 -22.85268,27.15558 -52.62641,42.36497 -76.67604,50.79457 -24.05109,8.43106 -42.39119,10.08378 -42.43196,10.08816 -0.40044,0.0365 -0.75429,-0.2592 -0.79069,-0.65964 -0.0363,-0.40043 0.25919,-0.75428 0.65963,-0.79068"
       style="fill:#cfd0d1;fill-opacity:1;fill-rule:nonzero;stroke:none;stroke-width:0.145614"
       id="path34" /><path
       d="m 541.71696,278.57701 c -4.01604,2.95304 -6.65165,4.93485 -6.65165,4.93485 1.11395,1.48382 18.71578,20.23746 28.90585,35.3493 0,0 -20.61022,-41.4913 -22.2542,-40.28415"
       style="fill:#2a1e17;fill-opacity:1;fill-rule:nonzero;stroke:none;stroke-width:0.145614"
       id="path36" /><path
       d="m 291.67563,414.89223 c 0.53004,-0.87806 1.00765,-1.49983 1.60176,-1.92648 0.59411,-0.42956 1.28723,-0.58537 1.98909,-0.57954 1.32946,0.0104 2.88171,0.42519 5.5843,0.62905 0.25338,0.0204 0.51257,0.0291 0.77758,0.0291 2.62106,0.004 5.76924,-0.96834 8.55483,-2.7492 2.79143,-1.77941 5.21445,-4.3524 6.49148,-7.50058 1.33674,-3.27632 1.80999,-5.21736 1.80125,-6.28908 -0.003,-0.59411 -0.12086,-0.89115 -0.27521,-1.11395 -0.15581,-0.22279 -0.40481,-0.40918 -0.77612,-0.62031 -0.0699,-0.0451 -0.38734,-0.166 -0.80525,-0.27958 -1.49546,-0.415 -4.38881,-0.9465 -6.95162,-1.60904 -1.28723,-0.33491 -2.49583,-0.69895 -3.45251,-1.12706 -0.47907,-0.21551 -0.89699,-0.44412 -1.245,-0.72078 -0.34074,-0.27667 -0.64653,-0.61887 -0.74992,-1.10958 -0.0801,-0.39461 0.1762,-0.77758 0.57081,-0.85767 0.39316,-0.0786 0.77758,0.17765 0.85621,0.57081 l 0.0539,0.0858 c 0.0888,0.1165 0.33782,0.31453 0.70623,0.50674 1.30033,0.69604 3.90974,1.34985 6.29927,1.87551 1.19985,0.26502 2.35312,0.50674 3.2967,0.72808 0.47179,0.11212 0.89262,0.21841 1.24645,0.32471 0.35821,0.10776 0.63926,0.20387 0.89699,0.34657 0.42811,0.24608 0.8897,0.54605 1.24209,1.04551 0.3553,0.49654 0.54751,1.15471 0.54314,1.95414 -0.007,1.45614 -0.55188,3.48455 -1.90901,6.83658 -1.41828,3.48746 -4.05826,6.26724 -7.05645,8.1806 -3.00111,1.91192 -6.36625,2.97491 -9.33824,2.97781 -0.29996,0 -0.59701,-0.0104 -0.88824,-0.0335 -2.78997,-0.21696 -4.47619,-0.63342 -5.47364,-0.62468 -0.53294,0.006 -0.81835,0.0845 -1.14598,0.31015 -0.32764,0.23007 -0.71497,0.68439 -1.19549,1.48818 -0.20678,0.3451 -0.65381,0.45723 -0.99892,0.25046 -0.3451,-0.20678 -0.45722,-0.65381 -0.25046,-0.99892"
       style="fill:#2a1e17;fill-opacity:1;fill-rule:nonzero;stroke:none;stroke-width:0.145614"
       id="path38" /><path
       d="m 439.03861,60.751499 -5.07466,8.578129 -18.00227,-30.006706 4.72517,-3.634674 18.35176,25.063251"
       style="fill:#cfd0d1;fill-opacity:1;fill-rule:nonzero;stroke:none;stroke-width:0.145614"
       id="path40" /><path
       d="m 319.49813,135.16164 c 0,0 -9.32804,15.16717 -5.32657,22.59785 l 29.75917,-3.18312 -24.4326,-19.41473"
       style="fill:#cfd0d1;fill-opacity:1;fill-rule:nonzero;stroke:none;stroke-width:0.145614"
       id="path42" /><path
       d="m 319.49813,135.16164 1.78231,-4.09759 -5.49693,-21.43877 c -0.69312,-2.70114 0.20386,-5.55955 2.31381,-7.38118 l 27.21674,40.23464 c 2.58611,3.82092 1.99782,8.95819 -1.38333,12.09763 l -6.08085,5.64983 -18.35175,-25.06456"
       style="fill:#1a6482;fill-opacity:1;fill-rule:nonzero;stroke:none;stroke-width:0.145614"
       id="path44" /><path
       d="m 304.93381,389.78253 c 8.52279,0.2024 19.32299,0.74262 17.16354,7.22246 -2.15946,6.47982 -10.25998,22.68086 -28.62047,17.82025 0,0 -6.47982,-5.40082 1.61923,-15.12057 8.10197,-9.71974 9.8377,-9.92214 9.8377,-9.92214"
       style="fill:#2a1e33;fill-opacity:1;fill-rule:nonzero;stroke:none;stroke-width:0.145614"
       id="path46" /><path
       d="m 348.072,154.21816 c 0,0 -14.54832,42.95325 -2.2381,61.8132 10.1595,15.5647 43.3537,-9.75178 47.90123,-13.16352 l 23.75113,42.89356 c 0,0 -5.48238,7.68697 -18.9444,15.21231 -13.46058,7.5268 -69.06916,30.06641 -95.20253,-11.1657 -9.65859,-15.23852 -9.80566,-80.62946 8.71792,-105.6911 l 36.01475,10.10125"
       style="fill:#248fb9;fill-opacity:1;fill-rule:nonzero;stroke:none;stroke-width:0.145614"
       id="path48" /><path
       d="m 348.76075,154.45114 c 0,0.001 -0.10921,0.32326 -0.30434,0.9363 -1.36586,4.28397 -6.84532,22.58621 -6.84094,39.19642 -0.004,8.02916 1.28868,15.64041 4.8271,21.04998 1.10958,1.69495 2.47981,2.84821 4.07428,3.59812 1.59448,0.74846 3.42776,1.08774 5.43724,1.08774 6.67349,0.0145 15.19774,-3.81218 22.4173,-8.00878 7.23119,-4.19223 13.18098,-8.71501 14.9269,-10.02553 0.3218,-0.24172 0.77758,-0.1762 1.0193,0.14561 0.24171,0.32181 0.17619,0.77758 -0.14562,1.0193 -1.74882,1.31198 -7.7525,5.87844 -15.0696,10.12019 -7.32876,4.23737 -15.94766,8.19079 -23.14828,8.20535 -2.17112,0 -4.22281,-0.36695 -6.05464,-1.22607 -1.83183,-0.85621 -3.43213,-2.21188 -4.67567,-4.12088 -3.7816,-5.80418 -5.06009,-13.66735 -5.06446,-21.84503 0.007,-19.32737 7.21518,-40.56083 7.22246,-40.60014 0.1296,-0.38006 0.54314,-0.58391 0.92319,-0.45577 0.38151,0.12959 0.58537,0.54314 0.45723,0.92319"
       style="fill:#2a1e17;fill-opacity:1;fill-rule:nonzero;stroke:none;stroke-width:0.145614"
       id="path50" /><path
       d="M 417.48626,245.7614 C 406.6846,234.39039 374.65968,178.99878 367.4576,152.52612 357.82523,117.11421 361.44665,87.74385 414.39195,30.23791 l 25.59169,37.275473 c 0,0 -17.99354,27.323327 -14.63422,53.081017 4.85914,37.26266 31.37693,73.39098 44.79381,96.30773 l -52.65697,28.85927"
       style="fill:#248fb9;fill-opacity:1;fill-rule:nonzero;stroke:none;stroke-width:0.145614"
       id="path52" /><path
       d="m 421.5518,240.9474 42.57175,-33.41116 12.72086,19.34192 z"
       style="fill:#2a1e17;fill-opacity:1;fill-rule:nonzero;stroke:none;stroke-width:0.145614"
       id="path54" /><path
       d="m 535.06531,283.51186 c 1.11395,1.48382 18.71578,20.23746 28.90585,35.3493 0,0 30.80468,-34.51492 34.14507,-35.62887 1.24208,-0.41355 8.79364,-0.31453 18.17119,-0.21842 15.85009,0.16454 36.91755,0.32326 41.58012,-2.00802 7.4234,-3.7117 11.87628,-5.56684 13.73287,-10.7638 1.85512,-5.19552 2.5861,-8.58833 -1.85659,-8.90722 -5.19551,-0.37131 -8.53589,6.30946 -8.53589,6.30946 0,0 -4.24466,-2.56281 -15.21523,-6.68077 0,0 -39.47453,-15.32298 -65.85836,-7.91122 -7.20499,2.02258 -45.06903,30.45956 -45.06903,30.45956"
       style="fill:#cfd0d1;fill-opacity:1;fill-rule:nonzero;stroke:none;stroke-width:0.145614"
       id="path58" /><path
       d="m 295.78633,421.36477 c -3.387,-1.29014 -5.44597,-2.83073 -3.48601,-6.09832 1.96143,-3.26757 2.83219,-1.95996 8.49512,-1.52458 5.6644,0.43539 13.72269,-3.70296 16.55342,-10.67351 2.8322,-6.9691 1.96143,-8.05829 0.43685,-8.93052 -1.52604,-0.87076 -12.41506,-2.17693 -12.8519,-4.35531 -0.43539,-2.1784 4.41356,-8.60726 14.43327,-8.17187 l 2.39681,0.43539 c 0,0 21.06891,-20.57965 24.11952,-23.62881 3.04916,-3.05062 25.45918,-18.23235 37.80435,-21.31791 9.38338,-2.34585 28.39329,0.67856 39.81819,2.90791 5.54644,1.08192 9.30474,1.97744 9.30474,1.97744 0,0 -8.57085,15.44238 -10.3153,39.18331 0,0 -20.50831,-3.29379 -34.13633,-6.28471 0,0 -31.80359,17.73144 -47.26781,25.57131 0,0 -13.50425,16.55341 -19.821,18.73325 -6.31673,2.17693 -20.91018,3.91994 -25.48392,2.17693"
       style="fill:#cfd0d1;fill-opacity:1;fill-rule:nonzero;stroke:none;stroke-width:0.145614"
       id="path60" /><path
       d="m 423.50595,340.00724 c 5.54644,1.08192 9.30474,1.97744 9.30474,1.97744 0,0 -10.36919,13.07178 -12.11073,36.81271 0,0 -4.68877,-5.05135 -3.23118,-18.49882 1.83328,-16.89998 6.03717,-20.29133 6.03717,-20.29133"
       style="fill:#2a1e17;fill-opacity:1;fill-rule:nonzero;stroke:none;stroke-width:0.145614"
       id="path62" /><path
       d="m 420.19758,381.45485 c 0,0 0.28687,-29.01216 8.05976,-41.11561 l 2.78705,1.11541 c 0,0 -36.62924,-42.85133 -48.47641,-70.85147 -1.93812,-4.58248 76.05282,-54.4 87.57525,-53.70105 0,0 37.99802,57.99521 50.99408,75.18641 l 13.96731,-10.8235 c 0,0 27.39585,27.74387 28.86654,37.59612 0,0 -26.45953,32.1982 -48.10945,41.62671 -21.64699,9.42706 -40.99183,25.57712 -64.24641,25.13883 -20.1297,-0.3786 -31.41772,-4.17185 -31.41772,-4.17185"
       style="fill:#fff7c9;fill-opacity:1;fill-rule:nonzero;stroke:none;stroke-width:0.145614"
       id="path64" /><path
       d="m 535.10462,281.26504 -13.96731,10.8235 2.22644,6.06192 z"
       style="fill:#2a1e17;fill-opacity:1;fill-rule:nonzero;stroke:none;stroke-width:0.145614"
       id="path66" /><path
       d="m 556.35118,395.98568 c -2.44632,-7.60542 -9.50714,-29.60917 -17.38487,-32.32488 -7.87919,-2.7157 -16.08018,0.69458 -16.08018,0.69458 l -8.39173,-4.29416 c -0.93631,-2.80889 -7.55883,-5.22755 -16.11221,-5.55663 -6.33131,-0.24318 -10.18716,7.88791 -8.31165,13.77363 0.85912,2.70261 4.07283,16.02776 4.07283,16.02776 0,0 6.79143,24.99175 13.03973,30.15231 6.24685,5.16057 12.11948,10.27163 28.79521,3.53115 25.53344,-10.32259 20.37287,-22.00376 20.37287,-22.00376"
       style="fill:#cfd0d1;fill-opacity:1;fill-rule:nonzero;stroke:none;stroke-width:0.145614"
       id="path68" /><path
       d="m 505.72842,394.90377 c -1.11977,-4.67129 -5.97746,-14.01245 -9.15331,-12.33061 -3.17583,1.68185 -4.29706,5.97893 -2.05606,14.19884 2.24245,8.21992 4.11068,26.90222 10.46383,30.2659 6.35168,3.36223 9.15331,-0.56207 9.15331,-0.56207 0,0 -2.80163,13.63968 5.4183,15.50645 0,0 2.80161,1.30908 1.68184,-8.03208 0,0 3.17438,8.59415 13.45038,7.47293 10.27599,-1.12123 13.82461,-15.50646 13.82461,-15.50646 0,0 0.74845,3.92285 5.4183,3.92285 4.6713,0 11.76999,-6.91231 10.0896,-14.57161 0,0 11.95201,3.74083 18.30807,-5.79253 6.35168,-9.52753 5.60468,-19.98991 -9.71538,-24.10059 -16.01755,-4.29707 -15.87922,14.38667 -18.30806,16.81551 -2.42885,2.42739 -5.04408,5.23047 -14.01245,1.86678 -8.96693,-3.36224 -18.30807,6.53953 -18.30807,6.53953 0,0 -1.49546,-11.95638 -2.98945,-13.0776 -1.49546,-1.12123 -4.48347,-2.61524 -3.73793,2.98945 0.74846,5.60469 1.68331,5.04408 1.12269,6.53808 -0.56061,1.49546 -3.08847,6.21044 -8.40775,2.05607 -5.97747,-4.67131 -2.24247,-14.19884 -2.24247,-14.19884"
       style="fill:#2a1e33;fill-opacity:1;fill-rule:nonzero;stroke:none;stroke-width:0.145614"
       id="path70" /><path
       d="m 508.74118,393.369 c -2.29487,1.92357 -4.08302,4.84021 -4.07574,7.97819 0.001,1.48965 0.39024,3.0448 1.33383,4.63491 1.98471,3.34475 4.78196,4.66548 6.68369,4.6582 0.94503,0 1.62068,-0.31308 1.95414,-0.74555 0.83145,-1.05716 1.38625,-2.59775 1.38625,-4.49511 0,-1.24646 -0.23882,-2.64435 -0.79652,-4.15292 -0.13833,-0.37713 0.0539,-0.79651 0.43102,-0.93629 0.3786,-0.13834 0.79651,0.0539 0.9363,0.43102 0.61013,1.65563 0.88534,3.22534 0.88534,4.65819 0,2.17839 -0.63634,4.04371 -1.69786,5.395 -0.70478,0.88825 -1.84785,1.30325 -3.09867,1.30179 -2.53806,-0.007 -5.72264,-1.65855 -7.93452,-5.37024 -1.07172,-1.79834 -1.5406,-3.63162 -1.53914,-5.379 0.007,-3.70151 2.0517,-6.95452 4.59558,-9.09359 0.30724,-0.25919 0.76739,-0.21843 1.02513,0.0888 0.25919,0.3087 0.21842,0.76738 -0.0888,1.02658"
       style="fill:#2a1e33;fill-opacity:1;fill-rule:nonzero;stroke:none;stroke-width:0.145614"
       id="path72" /><path
       d="m 420.68685,35.688248 1.78378,-4.095981 -5.49839,-21.441679 c -0.69167,-2.6983764 0.20385,-5.5566357 2.31235,-7.3785602 l 27.2182,40.2333302 c 2.58465,3.822371 1.99928,8.958036 -1.38334,12.097914 l -6.08084,5.648227 -18.35176,-25.063251"
       style="fill:#1a6482;fill-opacity:1;fill-rule:nonzero;stroke:none;stroke-width:0.145614"
       id="path74" /><path
       d="m 514.83222,426.68988 c -0.0145,0.0451 -0.55479,1.7998 -1.91629,3.80781 -1.35857,2.00365 -3.56463,4.28543 -6.91084,5.24357 -0.38588,0.10921 -0.78922,-0.11358 -0.8999,-0.50091 -0.1092,-0.38588 0.11358,-0.78924 0.50092,-0.8999 2.90209,-0.82709 4.8606,-2.82782 6.10414,-4.65965 0.62178,-0.91446 1.05716,-1.77941 1.33674,-2.41137 0.13979,-0.31598 0.23881,-0.57227 0.30288,-0.74845 l 0.0713,-0.1995 0.0189,-0.0583 c 0.11795,-0.38441 0.52567,-0.60139 0.9101,-0.48343 0.38441,0.11939 0.59992,0.52566 0.48198,0.91008"
       style="fill:#2a1e33;fill-opacity:1;fill-rule:nonzero;stroke:none;stroke-width:0.145614"
       id="path76" /><path
       d="m 382.30734,272.22531 75.40045,105.32708 c 0.23444,0.32764 0.15872,0.78195 -0.16745,1.01639 -0.32764,0.23444 -0.78196,0.15872 -1.01639,-0.16892 L 381.12349,273.07279 c -0.23443,-0.32763 -0.15872,-0.78194 0.16746,-1.01639 0.32762,-0.23298 0.78195,-0.15871 1.01639,0.16891"
       style="fill:#2a1e17;fill-opacity:1;fill-rule:nonzero;stroke:none;stroke-width:0.145614"
       id="path78" /><path
       d="m 487.61839,371.05218 c -0.59119,-0.77613 -1.05133,-1.87988 -1.39353,-3.2108 -0.33927,-1.32946 -0.54459,-2.88169 -0.54459,-4.51549 10e-4,-2.83366 0.61449,-5.92213 2.31672,-8.4398 1.69495,-2.52058 4.53151,-4.40628 8.68588,-4.72227 1.04988,-0.083 2.06918,-0.12085 3.05499,-0.12085 10.97785,0.003 17.83045,4.70187 17.90326,4.74993 0.332,0.22716 0.415,0.68147 0.18784,1.01202 -0.22716,0.332 -0.68147,0.41646 -1.01202,0.18784 l -0.064,-0.0422 c -0.70478,-0.46159 -7.12346,-4.45433 -17.01502,-4.45142 -0.94795,0 -1.92939,0.0365 -2.93995,0.11649 -3.77868,0.30871 -6.10852,1.91192 -7.59523,4.08739 -1.48236,2.17984 -2.06918,4.99748 -2.06627,7.62291 0,1.51001 0.19222,2.95305 0.49946,4.15582 0.30288,1.20132 0.73535,2.16674 1.13725,2.68221 0.24463,0.31889 0.18492,0.77612 -0.13397,1.02075 -0.3189,0.24464 -0.77613,0.18493 -1.02076,-0.1325"
       style="fill:#2a1e17;fill-opacity:1;fill-rule:nonzero;stroke:none;stroke-width:0.145614"
       id="path80" /><path
       d="m 320.68925,418.74809 c 10e-4,-10e-4 0.53441,-0.70768 1.36149,-1.8362 1.23918,-1.69349 3.1307,-4.33201 4.83294,-6.91521 1.70077,-2.57301 3.22098,-5.1431 3.66948,-6.51041 0.12668,-0.38151 0.53876,-0.58828 0.92028,-0.46014 0.38151,0.12669 0.58828,0.53877 0.46159,0.92029 -0.38005,1.1285 -1.18821,2.61377 -2.20022,4.27959 -3.02732,4.97272 -7.87773,11.38994 -7.88356,11.40013 -0.24317,0.32035 -0.69894,0.38442 -1.02075,0.1427 -0.32035,-0.24317 -0.38442,-0.69895 -0.14125,-1.02075"
       style="fill:#2a1e17;fill-opacity:1;fill-rule:nonzero;stroke:none;stroke-width:0.145614"
       id="path82" /><path
       d="m 643.51871,265.68869 c 0.086,-0.0743 2.37935,-1.91482 6.82057,-1.91336 2.87006,-10e-4 6.61962,0.77029 11.2123,3.22681 1.54787,0.81397 2.35894,2.14489 2.34875,3.47872 -0.001,1.13725 -0.55333,2.21624 -1.46196,2.99673 -0.90864,0.78196 -2.18422,1.27704 -3.66948,1.27704 -0.57372,0 -1.17656,-0.0743 -1.80416,-0.23006 -1.24063,-0.31162 -2.56136,-0.43103 -3.84131,-0.43103 -1.9221,0 -3.75392,0.26939 -5.09649,0.54169 -0.67274,0.13542 -1.22171,0.27084 -1.60176,0.37132 -0.18929,0.0495 -0.33637,0.0917 -0.43539,0.12086 l -0.14415,0.0437 c -0.38296,0.12086 -0.79214,-0.0917 -0.913,-0.47616 -0.12086,-0.38296 0.0917,-0.79214 0.4747,-0.913 0.0393,-0.0104 3.60396,-1.14162 7.71609,-1.14453 1.37024,0 2.80453,0.12669 4.19515,0.47325 0.51692,0.12959 1.00182,0.18784 1.45032,0.18784 1.16345,-0.001 2.08956,-0.38296 2.72007,-0.92465 0.63196,-0.5446 0.95669,-1.23918 0.95522,-1.89298 -0.0104,-0.7572 -0.39461,-1.54497 -1.5799,-2.19441 -4.41648,-2.36186 -7.91559,-3.05353 -10.525,-3.05499 -2.01676,0 -3.50784,0.41501 -4.48928,0.81836 -0.49072,0.2024 -0.8533,0.40335 -1.08774,0.54751 l -0.25628,0.16891 -0.0554,0.0422 -0.008,0.007 -0.13397,-0.16746 0.13542,0.16454 -10e-4,0.003 -0.13397,-0.16745 0.13542,0.16454 c -0.31016,0.25629 -0.76885,0.21115 -1.02366,-0.099 -0.25629,-0.31016 -0.21115,-0.76884 0.099,-1.02513"
       style="fill:#8fc6db;fill-opacity:1;fill-rule:nonzero;stroke:none;stroke-width:0.145614"
       id="path84" /><path
       d="m 667.48826,274.94538 c 0,0 0.0772,-0.0902 0.21988,-0.26501 0.50237,-0.61158 1.77212,-2.21042 2.90209,-4.04807 1.13724,-1.82746 2.09684,-3.93595 2.07937,-5.33094 l -0.003,-0.12959 c -0.0145,-0.4019 0.29997,-0.73972 0.70187,-0.75428 0.4019,-0.0145 0.73826,0.2985 0.75282,0.70039 l 0.004,0.18348 c -0.004,1.12997 -0.37859,2.31673 -0.90426,3.49911 -1.58283,3.52969 -4.62908,7.06374 -4.648,7.09287 -0.26211,0.30432 -0.72225,0.33927 -1.02659,0.0786 -0.30578,-0.26211 -0.34073,-0.72225 -0.0786,-1.02658"
       style="fill:#8fc6db;fill-opacity:1;fill-rule:nonzero;stroke:none;stroke-width:0.145614"
       id="path86" /><path
       d="m 587.31748,275.68365 0.0495,0.0641 c 0.26356,0.33782 1.56826,1.95268 3.51367,3.51367 1.94541,1.56534 4.52132,3.05352 7.28653,3.24573 0.4019,0.0277 0.70332,0.37714 0.67419,0.77758 -0.0277,0.40044 -0.37713,0.70332 -0.77757,0.67419 -3.43504,-0.25191 -6.38955,-2.12596 -8.50096,-3.89517 -2.1114,-1.77649 -3.38843,-3.47727 -3.41027,-3.50494 -0.24027,-0.3218 -0.1762,-0.77903 0.14561,-1.01929 0.3218,-0.24172 0.77757,-0.1762 1.01929,0.14415"
       style="fill:#8fc6db;fill-opacity:1;fill-rule:nonzero;stroke:none;stroke-width:0.145614"
       id="path88" /><path
       d="m 376.79147,363.9069 0.0277,0.083 c 0.15871,0.44995 0.99891,2.65018 2.83801,4.89555 1.84494,2.24974 4.65529,4.53297 8.83005,5.28142 0.39606,0.0699 0.65963,0.4485 0.58828,0.84457 -0.0713,0.39606 -0.44849,0.65963 -0.84457,0.58827 -4.89263,-0.87223 -8.11798,-3.70151 -10.08523,-6.27742 -1.97016,-2.57882 -2.72298,-4.91884 -2.74046,-4.96981 -0.12377,-0.38297 0.0873,-0.7936 0.47034,-0.91591 0.38297,-0.12232 0.79359,0.0873 0.91591,0.47034"
       style="fill:#2a1e17;fill-opacity:1;fill-rule:nonzero;stroke:none;stroke-width:0.145614"
       id="path90" /><path
       d="m 400.77412,226.60732 -11.14822,-21.32519 0.64507,-0.33637 -0.62614,0.36985 c -0.0117,-0.0189 -6.74193,-11.41032 -13.47804,-27.60989 -6.7332,-16.20249 -13.48387,-37.20587 -13.48825,-56.52449 0,-6.55555 0.77904,-12.91889 2.61524,-18.83374 0.1194,-0.38442 0.52712,-0.59847 0.91154,-0.47908 0.38443,0.11796 0.59848,0.52713 0.47907,0.9101 -1.78231,5.74302 -2.5497,11.9622 -2.5497,18.40272 -0.004,18.98225 6.67787,39.86186 13.37612,55.96533 3.34911,8.05247 6.69824,14.91526 9.21008,19.7613 1.2552,2.42301 2.30071,4.34221 3.0317,5.6542 0.36549,0.65671 0.6538,1.16054 0.84893,1.50127 0.19512,0.33929 0.29705,0.51111 0.29705,0.51111 l 0.0174,0.0335 11.14822,21.32519 c 0.18639,0.3553 0.048,0.79505 -0.3087,0.98143 -0.3553,0.18639 -0.79652,0.0495 -0.98144,-0.30724"
       style="fill:#2a1e17;fill-opacity:1;fill-rule:nonzero;stroke:none;stroke-width:0.145614"
       id="path92" /><path
       d="m 434.60902,154.54288 36.16327,61.99231 -0.62906,0.36694 0.59994,-0.41354 c 0,0.001 11.85008,17.1883 24.30736,35.58956 6.22938,9.20135 12.61019,18.70558 17.73873,26.51924 2.56426,3.90683 4.81545,7.39137 6.5803,10.2061 1.7663,2.81763 3.03897,4.95234 3.67238,6.21626 l -0.65089,0.32472 0.64071,-0.34656 16.72523,30.94446 c 0.19076,0.35385 0.0598,0.79651 -0.29414,0.98726 -0.35384,0.19076 -0.79505,0.0598 -0.98727,-0.29414 l -16.72523,-30.94445 -0.0104,-0.0204 c -0.581,-1.162 -1.84929,-3.2967 -3.60394,-6.09395 -6.14783,-9.80711 -18.30079,-27.8822 -28.91023,-43.49204 -5.30619,-7.80637 -10.22649,-14.9997 -13.82024,-20.24037 -1.79688,-2.62105 -3.26322,-4.75284 -4.2796,-6.23082 -1.01639,-1.47652 -1.58137,-2.29634 -1.58283,-2.29924 l -0.0292,-0.0451 -36.16327,-61.99232 c -0.2024,-0.34656 -0.0859,-0.79213 0.26211,-0.996 0.34656,-0.2024 0.79359,-0.0845 0.996,0.26211"
       style="fill:#2a1e17;fill-opacity:1;fill-rule:nonzero;stroke:none;stroke-width:0.145614"
       id="path94" /><path
       d="m 386.33502,265.45863 c 0.006,-0.004 16.09036,-11.73213 34.57025,-23.74822 9.24067,-6.00803 19.07837,-12.08888 27.81813,-16.81697 8.75141,-4.72664 16.34665,-8.11217 21.33392,-8.71501 0.39899,-0.0466 0.76157,0.23881 0.80816,0.63779 0.048,0.39899 -0.23735,0.76156 -0.63632,0.80816 -4.54899,0.52566 -12.14423,3.84859 -20.81263,8.549 -13.02519,7.04773 -28.59135,17.16791 -40.88991,25.52034 -6.15074,4.17767 -11.48459,7.91413 -15.28221,10.60508 -1.89735,1.34548 -3.41174,2.4303 -4.44997,3.17729 -1.03968,0.74847 -1.6003,1.15764 -1.60175,1.15909 -0.32472,0.2359 -0.7805,0.16455 -1.01785,-0.16017 -0.23734,-0.32471 -0.16599,-0.78049 0.16018,-1.01638"
       style="fill:#2a1e17;fill-opacity:1;fill-rule:nonzero;stroke:none;stroke-width:0.145614"
       id="path96" /><path
       d="m 419.46952,381.4665 v -0.0291 c 0,-0.43248 0.0145,-7.84861 1.01056,-16.66991 1.0062,-8.82713 2.94723,-19.03614 6.98366,-25.19998 0.21987,-0.33637 0.67127,-0.42956 1.00764,-0.20823 0.33637,0.22133 0.42956,0.67274 0.20824,1.00765 -3.78161,5.72555 -5.77798,15.83699 -6.75359,24.56364 -0.98581,8.73395 -1.00037,16.10784 -1.00037,16.50683 v 0.007 c 0.006,0.40189 -0.31598,0.73244 -0.71788,0.73826 -0.40189,0.006 -0.73243,-0.31452 -0.73826,-0.71642"
       style="fill:#2a1e17;fill-opacity:1;fill-rule:nonzero;stroke:none;stroke-width:0.145614"
       id="path98" /><path
       d="m 561.18848,323.64312 c -0.46014,-2.82345 -2.46816,-6.65165 -5.24502,-10.69827 -4.16166,-6.08375 -10.02116,-12.7194 -14.83225,-17.82025 -2.40701,-2.55117 -4.5519,-4.71936 -6.09396,-6.24976 -0.77176,-0.76593 -1.39207,-1.37023 -1.82017,-1.78524 -0.42666,-0.41354 -0.65818,-0.63341 -0.65963,-0.63341 -0.29124,-0.27667 -0.30434,-0.73826 -0.0277,-1.0295 0.27812,-0.29268 0.73826,-0.30433 1.02949,-0.0277 0.0104,0.008 6.73319,6.38663 13.72268,14.29639 3.49473,3.95634 7.055,8.29418 9.88283,12.42671 2.82491,4.13836 4.93195,8.04227 5.48091,11.28219 0.0655,0.39752 -0.2024,0.77176 -0.59847,0.83728 -0.39753,0.067 -0.77176,-0.20095 -0.83874,-0.59848"
       style="fill:#2a1e17;fill-opacity:1;fill-rule:nonzero;stroke:none;stroke-width:0.145614"
       id="path100" /><path
       d="m 365.419,176.302 c 0,-2.10849 -1.70951,-3.81801 -3.818,-3.81801 -2.10995,0 -3.81946,1.70952 -3.81946,3.81801 0,2.10849 1.70951,3.81945 3.81946,3.81945 2.10849,0 3.818,-1.71096 3.818,-3.81945"
       style="fill:#248fb9;fill-opacity:1;fill-rule:nonzero;stroke:none;stroke-width:0.145614"
       id="path102" /><path
       d="m 719.8715,94.245514 0.72078,0.104846 -1.87842,12.99461 9.67169,-6.43033 -4.84167,-1.055693 c -0.16746,-0.03645 -0.31307,-0.128139 -0.41792,-0.263569 l -3.82818,-4.901367 0.57372,-0.448497 0.72078,0.104846 -0.72078,-0.104846 0.57371,-0.447035 3.66656,4.694599 6.26287,1.365869 c 0.2854,0.0611 0.50674,0.288313 0.56061,0.576623 0.0539,0.28686 -0.0699,0.57809 -0.31306,0.73973 l -12.4573,8.28398 c -0.24026,0.15872 -0.55042,0.16309 -0.7936,0.008 -0.24171,-0.1529 -0.3713,-0.43393 -0.33054,-0.71934 l 2.10995,-14.606557 c 0.0422,-0.289765 0.25191,-0.524213 0.53296,-0.599928 0.28248,-0.07573 0.58099,0.02475 0.76155,0.256278 l -0.57371,0.447034"
       style="fill:#8fc6db;fill-opacity:1;fill-rule:nonzero;stroke:none;stroke-width:0.145614"
       id="path104" /><path
       d="m 307.18645,344.13395 c -3.35494,2.95887 -7.06082,4.54024 -10.60507,4.54171 -3.7947,0.008 -7.35498,-1.85367 -9.86973,-5.56538 -2.52204,-3.71025 -4.05826,-9.23048 -4.05972,-16.67282 0.006,-14.30659 5.67749,-35.77157 21.45333,-65.41133 15.77874,-29.6383 41.67331,-67.43973 82.18026,-114.35224 27.35798,-31.6871 52.78366,-53.818989 74.89663,-68.042576 22.11587,-14.21893 40.9132,-20.549213 55.08728,-20.554892 7.18314,0 13.19119,1.635247 17.79696,4.739885 4.60578,3.09998 7.77435,7.67372 9.28436,13.403782 1.97307,7.465491 2.81618,14.251112 2.81618,20.36254 10e-4,14.201741 -4.55918,24.757311 -10.01679,31.754071 -2.73028,3.49911 -5.68187,6.11288 -8.41214,7.86171 -2.73754,1.74592 -5.23046,2.64727 -7.17878,2.656 -0.91737,0 -1.74591,-0.20822 -2.37933,-0.7237 -0.63779,-0.51547 -0.97853,-1.33383 -0.96979,-2.23226 0.004,-1.06299 0.40481,-2.28178 1.21005,-3.7219 0.8067,-1.44012 2.03277,-3.10013 3.75394,-5.0004 8.76451,-9.66878 22.00229,-17.13295 37.93976,-22.19887 15.93892,-5.063006 34.58627,-7.721921 54.20195,-7.723373 30.50471,0.001 63.35234,6.433223 91.9597,20.327733 14.18427,6.89046 23.39728,14.64587 29.06458,22.6197 5.66876,7.97092 7.76997,16.15589 7.76706,23.805 -10e-4,9.77799 -3.40446,18.67792 -7.07685,25.33832 -1.83619,3.33165 -3.74374,6.10415 -5.33822,8.15293 -0.79796,1.02367 -1.51729,1.86678 -2.11576,2.51185 -0.60284,0.64652 -1.06299,1.08336 -1.42702,1.34547 -0.32763,0.23153 -0.78195,0.15436 -1.01493,-0.17328 -0.23299,-0.32763 -0.15581,-0.78195 0.17328,-1.01493 0.19512,-0.13542 0.64361,-0.54459 1.20132,-1.1489 1.97889,-2.12887 5.53624,-6.76378 8.57521,-12.91742 3.04188,-6.15803 5.56829,-13.83772 5.56829,-22.09404 -0.003,-7.38555 -2.00948,-15.23415 -7.49913,-22.96189 -5.49111,-7.72629 -14.49006,-15.33899 -28.51417,-22.15228 -28.36999,-13.78384 -61.02105,-20.183581 -91.32336,-20.182118 -19.48317,0 -37.9951,2.645808 -53.76074,7.654938 -15.76856,5.00766 -28.78354,12.38448 -37.30197,21.78824 -1.66875,1.84056 -2.83074,3.42776 -3.56318,4.73537 -0.73535,1.30616 -1.02804,2.33419 -1.02367,3.00985 0.0104,0.58245 0.17037,0.87805 0.4383,1.10666 0.27084,0.22716 0.75137,0.39462 1.45468,0.39316 1.48672,0.008 3.82092,-0.7703 6.39393,-2.42594 7.74812,-4.96398 17.75909,-17.56543 17.75764,-38.389701 0,-5.977461 -0.82418,-12.636399 -2.76813,-19.991661 -1.43867,-5.430971 -4.38299,-9.660042 -8.69025,-12.567664 -4.31018,-2.906604 -10.0168,-4.490741 -16.98298,-4.490741 -13.74161,-0.0058 -32.33799,6.193115 -54.29951,20.323366 -21.96298,14.126027 -47.29693,36.166181 -74.58357,67.768821 -40.45305,46.85135 -66.28647,84.57707 -81.99531,114.08576 -15.71178,29.50435 -21.28734,50.80187 -21.28297,64.72695 -10e-4,7.24576 1.50856,12.48059 3.80781,15.85301 2.30798,3.37096 5.34695,4.9203 8.6655,4.92904 3.10158,10e-4 6.48856,-1.39499 9.64111,-4.17767 0.30142,-0.26648 0.76156,-0.23735 1.02803,0.064 0.26502,0.30142 0.23735,0.76157 -0.064,1.02804"
       style="fill:#cfd0d1;fill-opacity:1;fill-rule:nonzero;stroke:none;stroke-width:0.145614"
       id="path106" /><path
       d="m 710.8041,118.53396 c 0,-2.1085 -1.70806,-3.81946 -3.81801,-3.81946 -2.10994,0 -3.81945,1.71096 -3.81945,3.81946 0,2.10849 1.70951,3.818 3.81945,3.818 2.10995,0 3.81801,-1.70951 3.81801,-3.818"
       style="fill:#8fc6db;fill-opacity:1;fill-rule:nonzero;stroke:none;stroke-width:0.145614"
       id="path108" /><path
       d="m 651.77795,86.731826 113.18878,63.799384 c 0.35093,0.19658 0.4747,0.6407 0.27668,0.99163 -0.19804,0.34948 -0.64071,0.47325 -0.99164,0.27666 L 651.06298,88.000128 c -0.35093,-0.196574 -0.4747,-0.640705 -0.27666,-0.991635 0.19658,-0.349468 0.6407,-0.474704 0.99163,-0.276667"
       style="fill:#cfd0d1;fill-opacity:1;fill-rule:nonzero;stroke:none;stroke-width:0.145614"
       id="path110" /><path
       d="m 312.87851,340.50087 c 0,-2.10849 -1.71096,-3.81945 -3.81946,-3.81945 -2.1085,0 -3.818,1.71096 -3.818,3.81945 0,2.1085 1.7095,3.81946 3.818,3.81946 2.1085,0 3.81946,-1.71096 3.81946,-3.81946"
       style="fill:#cfd0d1;fill-opacity:1;fill-rule:nonzero;stroke:none;stroke-width:0.145614"
       id="path112" /><path
       d="m 414.61911,419.33928 c 0,-4.52568 -3.66656,-8.19225 -8.19226,-8.19225 -4.52423,0 -8.19224,3.66657 -8.19224,8.19225 0,4.52423 3.66801,8.19226 8.19224,8.19226 4.5257,0 8.19226,-3.66803 8.19226,-8.19226"
       style="fill:#248fb9;fill-opacity:1;fill-rule:nonzero;stroke:none;stroke-width:0.145614"
       id="path114" /><path
       d="m 257.76793,481.82377 c -1.98909,0 -3.60104,-1.61195 -3.60104,-3.60104 0,-1.98909 1.61195,-3.60104 3.60104,-3.60104 1.98909,0 3.60249,1.61195 3.60249,3.60104 0,1.98909 -1.6134,3.60104 -3.60249,3.60104"
       style="fill:#a0c6f4;fill-opacity:1;fill-rule:nonzero;stroke:none;stroke-width:0.145614"
       id="path116" /><path
       d="m 743.93132,38.129032 c 0,-1.989235 -1.61195,-3.601183 -3.60104,-3.601183 -1.98764,0 -3.60104,1.611948 -3.60104,3.601183 0,1.989089 1.6134,3.602203 3.60104,3.602203 1.98909,0 3.60104,-1.613114 3.60104,-3.602203"
       style="fill:#facc00;fill-opacity:1;fill-rule:nonzero;stroke:none;stroke-width:0.145614"
       id="path118" /><path
       d="m 675.98194,200.77537 -38.71444,18.16974 c -3.12342,1.46632 -3.06954,5.92649 0.0888,7.3171 l 72.02804,31.69292 c 1.0193,0.44849 2.17984,0.45431 3.20351,0.0145 l 49.47386,-21.23636 -86.07979,-35.95796"
       style="fill:#cfd0d1;fill-opacity:1;fill-rule:nonzero;stroke:none;stroke-width:0.145614"
       id="path120" /><path
       d="m 673.58513,260.48735 c 0.0976,-16.02046 2.39681,-59.71198 2.39681,-59.71198 l 86.07979,35.95796 -1.93083,60.79827 c -0.11796,3.73063 -3.99712,6.13909 -7.39284,4.59122 l -74.11468,-33.77375 c -3.0812,-1.40372 -5.0601,-4.47619 -5.03825,-7.86172"
       style="fill:#c6cbcb;fill-opacity:1;fill-rule:nonzero;stroke:none;stroke-width:0.145614"
       id="path122" /><path
       d="m 676.26297,200.10409 86.07834,35.9565 c 0.27812,0.11649 0.45723,0.39461 0.44704,0.69603 l -1.92939,60.79827 -0.003,0.0393 c -0.007,0.0553 -0.11503,1.37896 -0.86932,2.7754 -0.37859,0.6975 -0.92756,1.41829 -1.72698,1.9658 -0.79651,0.55042 -1.83911,0.91008 -3.11031,0.90717 -0.78341,0 -1.65273,-0.13251 -2.62107,-0.42228 -0.38441,-0.11503 -0.60284,-0.5213 -0.4878,-0.90718 0.1165,-0.38442 0.5213,-0.60284 0.90718,-0.4878 0.85329,0.25628 1.58282,0.36112 2.20169,0.36112 1.00618,-0.003 1.7226,-0.26647 2.28613,-0.6509 0.84166,-0.57372 1.3513,-1.48235 1.63525,-2.27448 0.14124,-0.39316 0.22716,-0.75284 0.27521,-1.00766 l 0.0495,-0.29559 0.008,-0.0743 10e-4,-0.0145 0.72516,0.0627 -0.72661,-0.0233 1.91336,-60.29736 -85.61529,-35.76283 c -0.37131,-0.15581 -0.54751,-0.58246 -0.3917,-0.95232 0.15435,-0.37132 0.581,-0.54605 0.95232,-0.3917"
       style="fill:#cfd0d1;fill-opacity:1;fill-rule:nonzero;stroke:none;stroke-width:0.145614"
       id="path124" /><path
       d="m 718.31633,244.19023 5.81146,13.73723 c 0.15726,0.36987 -0.016,0.79796 -0.38588,0.95377 -0.37131,0.15727 -0.79796,-0.016 -0.95522,-0.38587 l -5.81146,-13.73724 c -0.15727,-0.36986 0.016,-0.79797 0.38733,-0.95377 0.36986,-0.15726 0.79652,0.016 0.95377,0.38588"
       style="fill:#8fc6db;fill-opacity:1;fill-rule:nonzero;stroke:none;stroke-width:0.145614"
       id="path126" /><path
       d="m 724.12779,244.19023 5.81146,13.73723 c 0.15726,0.36987 -0.016,0.79796 -0.38588,0.95377 -0.36985,0.15727 -0.79796,-0.016 -0.95377,-0.38587 l -5.81291,-13.73724 c -0.15581,-0.36986 0.0174,-0.79797 0.38733,-0.95377 0.36986,-0.15726 0.79797,0.016 0.95377,0.38588"
       style="fill:#8fc6db;fill-opacity:1;fill-rule:nonzero;stroke:none;stroke-width:0.145614"
       id="path128" /><path
       d="m 276.8958,98.233886 c 0,-1.990541 -1.61195,-3.602493 -3.60249,-3.602493 -1.98909,0 -3.59959,1.611952 -3.59959,3.602493 0,1.987634 1.6105,3.599594 3.59959,3.599594 1.99054,0 3.60249,-1.61196 3.60249,-3.599594"
       style="fill:#248fb9;fill-opacity:1;fill-rule:nonzero;stroke:none;stroke-width:0.145614"
       id="path130" /><path
       d="m 581.94869,80.390332 c 0,-2.763756 -2.241,-5.003447 -5.0033,-5.003447 -2.76521,0 -5.00476,2.239691 -5.00476,5.003447 0,2.763757 2.23955,5.003305 5.00476,5.003305 2.7623,0 5.0033,-2.239548 5.0033,-5.003305"
       style="fill:#248fb9;fill-opacity:1;fill-rule:nonzero;stroke:none;stroke-width:0.145614"
       id="path132" /><path
       d="m 667.72853,326.81605 h -13.02956 v 13.02956 h 13.02956 v -13.02956"
       style="fill:#facc00;fill-opacity:1;fill-rule:nonzero;stroke:none;stroke-width:0.145614"
       id="path142" /><path
       d="m 656.46527,164.0908 3.87188,-6.70699 3.87334,-6.70845 h -15.49044 l 3.87334,6.70845 3.87188,6.70699"
       style="fill:#a0c6f4;fill-opacity:1;fill-rule:nonzero;stroke:none;stroke-width:0.145614"
       id="path144" /><path
       d="m 343.31187,461.25723 0.72806,-0.0233 1.00911,30.45229 v 0.051 l -0.006,0.32618 c 0.003,1.18384 0.25628,1.83619 0.60139,2.24245 0.3451,0.40627 0.87077,0.65818 1.6367,0.82855 5.00039,1.10666 16.12676,3.5821 30.16688,3.58356 9.14894,0 19.52831,-1.05279 30.23969,-4.2199 1.42847,-0.42373 2.09685,-0.94795 2.43758,-1.44012 0.34074,-0.49363 0.42082,-1.05571 0.42228,-1.74591 0,-0.22134 -0.008,-0.45287 -0.016,-0.69167 v 10e-4 l -0.97852,-29.03255 c -0.0262,-0.73244 -0.37423,-1.37315 -0.96979,-1.86386 -0.59411,-0.48781 -1.43139,-0.79797 -2.36041,-0.79651 -0.20386,0 -0.41208,0.0145 -0.62177,0.0451 -7.26032,1.06152 -16.81407,1.45759 -26.72165,1.45905 -1.08482,0 -2.17548,-0.006 -3.26467,-0.0145 -11.43071,-0.0976 -21.61351,-0.94358 -28.78937,-2.324 -0.25191,-0.0495 -0.47762,-0.0699 -0.68002,-0.0699 -0.80379,0.0145 -1.22025,0.28541 -1.57263,0.77904 -0.3422,0.498 -0.54023,1.2916 -0.53732,2.20314 l 0.004,0.22425 v 0.003 l -0.72807,0.0233 -0.72661,0.0262 -0.006,-0.27667 c 0.003,-1.10375 0.2155,-2.16674 0.78777,-3.01858 0.56206,-0.85912 1.56389,-1.4343 2.77831,-1.41974 0.30434,0 0.62178,0.0321 0.95524,0.0961 7.03753,1.35567 17.16353,2.20314 28.5258,2.29779 1.08629,0.008 2.17111,0.0145 3.25302,0.0145 9.86536,0 19.37688,-0.39899 26.51051,-1.4445 0.28104,-0.0407 0.55916,-0.0596 0.83292,-0.0596 1.24936,0 2.40845,0.41063 3.28359,1.1256 0.87223,0.71059 1.46343,1.75318 1.50129,2.94141 l 0.97853,29.03254 v 10e-4 c 0.007,0.23298 0.0174,0.47907 0.0174,0.73826 0.001,0.78632 -0.0888,1.71679 -0.68001,2.573 -0.58974,0.85476 -1.6105,1.53477 -3.22244,2.00948 -10.87446,3.21516 -21.39363,4.27959 -30.65324,4.27959 -14.20465,0 -25.46354,-2.50747 -30.4814,-3.61705 -0.91009,-0.20095 -1.7896,-0.5577 -2.43031,-1.30762 -0.64069,-0.75137 -0.95231,-1.80416 -0.94939,-3.18603 l 0.007,-0.38151 0.72806,0.0277 -0.72806,0.0247 -1.00911,-30.45228 v 0.001 l 0.72661,-0.0262"
       style="fill:#cfd0d1;fill-opacity:1;fill-rule:nonzero;stroke:none;stroke-width:0.145614"
       id="path146" /><path
       d="m 352.5176,465.71011 0.55333,-0.47325 15.40889,18.04014 17.06597,-16.84174 0.51111,0.51839 0.2257,0.69312 c -1.60612,0.51402 -4.22281,0.67274 -7.41322,0.67856 -10.35025,-0.001 -26.42314,-1.89152 -26.4377,-1.89297 l 0.086,-0.72225 0.55333,-0.47325 -0.55333,0.47325 0.0844,-0.7237 c 0.003,0 1.00038,0.11794 2.66475,0.29414 4.99019,0.53003 15.95639,1.58865 23.60259,1.58865 3.1176,0.004 5.71391,-0.19221 6.96182,-0.60722 0.3218,-0.10484 0.67128,0.0247 0.84747,0.31308 0.17619,0.28977 0.12959,0.65963 -0.11067,0.89698 l -17.62222,17.3907 c -0.14416,0.1427 -0.33929,0.21841 -0.54169,0.20968 -0.2024,-0.008 -0.3917,-0.10048 -0.52275,-0.25483 l -15.91854,-18.63424 c -0.19367,-0.22861 -0.22861,-0.55333 -0.0874,-0.81689 0.13979,-0.26356 0.42957,-0.415 0.72661,-0.38005 l -0.0844,0.7237"
       style="fill:#cfd0d1;fill-opacity:1;fill-rule:nonzero;stroke:none;stroke-width:0.145614"
       id="path148" /><path
       d="m 378.64805,475.14881 12.43836,9.95564 10.10417,-7.21081 0.36986,-10.95309 -15.4686,0.74117 c -0.40189,0.0189 -0.74262,-0.29122 -0.76301,-0.69313 -0.0189,-0.40189 0.29123,-0.74262 0.69312,-0.76155 l 16.25782,-0.77759 c 0.2024,-0.0104 0.40189,0.0655 0.54605,0.20823 0.14416,0.1427 0.2228,0.34074 0.21697,0.54314 l -0.40917,12.102 c -0.007,0.2257 -0.12086,0.43538 -0.30434,0.56789 l -10.84389,7.7394 c -0.26501,0.18929 -0.62468,0.1791 -0.87805,-0.0248 l -12.86938,-10.29929 c -0.31453,-0.25046 -0.36549,-0.70914 -0.11358,-1.02367 0.25192,-0.31306 0.70915,-0.36404 1.02367,-0.11358"
       style="fill:#cfd0d1;fill-opacity:1;fill-rule:nonzero;stroke:none;stroke-width:0.145614"
       id="path150" /><path
       d="m 359.44445,486.20384 -0.72223,-0.083 0.0104,-0.18056 c -10e-4,-0.45578 -0.19803,-0.87661 -0.56934,-1.22024 -0.37132,-0.33929 -0.91738,-0.58392 -1.56828,-0.61887 l -0.16308,-0.004 c -0.65817,-0.001 -1.26976,0.21988 -1.71679,0.56644 -0.44995,0.34656 -0.72224,0.79797 -0.77613,1.27995 l -0.0104,0.1791 c 0,0.45578 0.19802,0.87806 0.56934,1.22171 0.37132,0.33927 0.91738,0.58245 1.56681,0.61885 l 0.166,0.004 c 0.65672,10e-4 1.26831,-0.21988 1.71534,-0.56643 0.44849,-0.34656 0.72079,-0.79943 0.77613,-1.27995 l 0.72223,0.083 0.72371,0.0816 c -0.1063,0.92902 -0.62322,1.72262 -1.33237,2.26867 -0.71205,0.54751 -1.62651,0.86787 -2.60504,0.86932 l -0.24609,-0.007 c -0.96542,-0.0524 -1.83182,-0.41645 -2.46961,-0.99892 -0.63634,-0.57809 -1.04406,-1.39644 -1.0426,-2.29487 l 0.0189,-0.34511 c 0.1063,-0.92756 0.62468,-1.72116 1.33382,-2.26721 0.71206,-0.54897 1.62652,-0.86932 2.60649,-0.86932 l 0.24318,0.006 c 0.96689,0.0539 1.83329,0.41791 2.47108,1.00037 0.63634,0.57808 1.04259,1.39644 1.04259,2.29342 l -0.0204,0.3451 -0.72371,-0.0816"
       style="fill:#cfd0d1;fill-opacity:1;fill-rule:nonzero;stroke:none;stroke-width:0.145614"
       id="path152" /><path
       d="m 651.13433,65.623894 -0.64069,-0.346999 10.67788,-19.718776 0.0262,-0.04543 c 0.43539,-0.682639 0.56935,-1.167826 0.5679,-1.501137 -0.003,-0.436842 -0.19949,-0.777579 -0.69022,-1.242234 -4.55772,-4.223975 -18.34883,-17.024914 -38.52367,-22.004772 -0.4616,-0.11387 -0.83728,-0.158719 -1.1387,-0.158719 -0.63051,0.0088 -0.91155,0.165418 -1.17657,0.400438 -0.26065,0.238225 -0.47761,0.621628 -0.71642,1.068808 L 609.3489,40.879679 c -0.12668,0.235458 -0.18493,0.481837 -0.18639,0.742341 -0.008,0.777579 0.58392,1.700773 1.62652,2.118831 5.57119,2.254106 12.62183,6.071964 19.61277,10.242353 7.23119,4.316148 13.39213,8.643655 17.4504,12.199844 0.4281,0.370879 0.75282,0.468587 1.01638,0.471499 0.25774,-0.0015 0.51984,-0.100617 0.80962,-0.333311 0.28686,-0.233274 0.57517,-0.598329 0.81544,-1.044345 l 0.64069,0.346999 0.63926,0.346416 c -0.31017,0.572118 -0.69458,1.086426 -1.17512,1.477692 -0.4747,0.390246 -1.07026,0.66269 -1.72989,0.66269 -0.68001,0.0015 -1.3644,-0.292394 -1.97598,-0.832767 -3.95198,-3.464015 -10.06339,-7.764146 -17.23781,-12.043891 -6.95161,-4.148256 -13.96876,-7.943252 -19.41036,-10.143482 -1.53332,-0.621627 -2.52932,-1.99768 -2.53805,-3.468528 0,-0.487516 0.11649,-0.981149 0.36112,-1.434009 l 10.17261,-18.80461 c 0.23735,-0.434075 0.50819,-0.976197 1.00473,-1.443181 0.49363,-0.472082 1.24063,-0.799714 2.1682,-0.79054 0.44557,0 0.93483,0.06539 1.48817,0.202404 20.58256,5.082953 34.56879,18.098236 39.16439,22.350169 0.61885,0.564837 1.16054,1.324652 1.15617,2.309294 -10e-4,0.717878 -0.2723,1.461821 -0.79506,2.284832 l -0.61449,-0.391848 0.63924,0.346416 -10.67787,19.719359 -0.63926,-0.346416"
       style="fill:#cfd0d1;fill-opacity:1;fill-rule:nonzero;stroke:none;stroke-width:0.145614"
       id="path154" /><path
       d="m 646.94211,59.375591 -0.71643,0.127995 -3.04624,-16.98458 -16.89998,4.303044 -0.18057,-0.704772 0.15581,-0.712198 c 1.33674,0.301566 3.20788,1.27587 5.41248,2.580136 6.56575,3.905372 15.70157,10.801657 15.71323,10.809083 l -0.4383,0.581292 -0.71643,0.127995 0.71643,-0.127995 -0.43831,0.580709 c -0.003,-0.0015 -1.01056,-0.761562 -2.60212,-1.923708 -2.38515,-1.742856 -6.07502,-4.38153 -9.58577,-6.67204 -1.75466,-1.142779 -3.46563,-2.20023 -4.93778,-3.011301 -1.46488,-0.81107 -2.72153,-1.371393 -3.43358,-1.521522 -0.33055,-0.07106 -0.56644,-0.359521 -0.57227,-0.699094 -0.006,-0.337825 0.21988,-0.634731 0.54751,-0.717877 l 17.65863,-4.496419 c 0.19658,-0.04936 0.40335,-0.01588 0.57372,0.09334 0.17037,0.110375 0.28686,0.283801 0.32326,0.483438 l 3.18313,17.755897 c 0.0524,0.293995 -0.0801,0.59265 -0.33491,0.748603 -0.25483,0.155807 -0.581,0.140954 -0.81982,-0.03932 l 0.43831,-0.580709"
       style="fill:#cfd0d1;fill-opacity:1;fill-rule:nonzero;stroke:none;stroke-width:0.145614"
       id="path156" /><path
       d="m 633.67375,43.732263 -4.15001,-10.811849 -8.85916,0.80379 -4.14418,6.562829 9.91633,5.183572 c 0.35675,0.186532 0.49363,0.626141 0.3087,0.982896 -0.18639,0.356609 -0.62615,0.495379 -0.98291,0.308848 L 615.1458,41.211391 c -0.18056,-0.09334 -0.31307,-0.260649 -0.36549,-0.455626 -0.0539,-0.19687 -0.0218,-0.406118 0.0874,-0.577943 l 4.7572,-7.535531 c 0.12086,-0.191192 0.32473,-0.316275 0.55043,-0.336805 l 9.76488,-0.885044 c 0.32327,-0.02897 0.62905,0.159885 0.74555,0.464219 l 4.34658,11.326013 c 0.14416,0.375976 -0.0437,0.796363 -0.41792,0.940813 -0.37568,0.143867 -0.79651,-0.04383 -0.94066,-0.419224"
       style="fill:#cfd0d1;fill-opacity:1;fill-rule:nonzero;stroke:none;stroke-width:0.145614"
       id="path158" /><path
       d="m 650.15872,43.781773 0.58246,0.436842 c -0.1296,0.174592 -0.18784,0.362288 -0.1893,0.576195 -0.003,0.396508 0.23444,0.885625 0.74117,1.220683 0.33346,0.221188 0.71206,0.325885 1.05862,0.325885 0.46743,-0.0011 0.84602,-0.182018 1.05571,-0.464655 0.12959,-0.174737 0.18784,-0.362433 0.18929,-0.575175 0.003,-0.39578 -0.23443,-0.886645 -0.74263,-1.221703 -0.33346,-0.219587 -0.7106,-0.32603 -1.05861,-0.324866 -0.46743,0.0015 -0.84456,0.180854 -1.05425,0.463636 l -0.58246,-0.436842 -0.58245,-0.436843 c 0.53585,-0.711033 1.38041,-1.047257 2.21916,-1.046092 0.63487,0 1.28577,0.186678 1.8624,0.566585 0.87078,0.576777 1.39207,1.486866 1.39499,2.436125 10e-4,0.50397 -0.15581,1.019298 -0.48053,1.450462 -0.53586,0.710451 -1.38042,1.047257 -2.22062,1.045509 -0.63487,-0.0011 -1.28577,-0.187696 -1.86095,-0.567604 -0.87223,-0.576777 -1.39207,-1.486865 -1.39499,-2.435105 -10e-4,-0.505135 0.15581,-1.019299 0.48054,-1.44988 l 0.58245,0.436843"
       style="fill:#cfd0d1;fill-opacity:1;fill-rule:nonzero;stroke:none;stroke-width:0.145614"
       id="path160" /><path
       d="m 602.36088,403.73527 10.52062,-7.38263 6.20899,7.4103 -10.52499,8.77762 -6.20462,-8.80529"
       style="fill:#8fc6db;fill-opacity:1;fill-rule:nonzero;stroke:none;stroke-width:0.145614"
       id="path166" /><path
       d="M 457.80244,294.67173 H 319.55055 c -4.40919,0 -7.98403,3.57338 -7.98403,7.98403 v 18.69977 c 0,4.41065 3.57484,7.98547 7.98403,7.98547 h 138.25189 c 4.41066,0 7.98548,-3.57482 7.98548,-7.98547 v -18.69977 c 0,-4.41065 -3.57482,-7.98403 -7.98548,-7.98403"
       style="fill:#248fb9;fill-opacity:1;fill-rule:nonzero;stroke:none;stroke-width:0.145614"
       id="path192" /><path
       d="M 406.00458,313.85785 H 330.6347 c -1.4576,0 -2.63707,1.18093 -2.63707,2.63854 0,1.45613 1.17947,2.63706 2.63707,2.63706 h 75.36988 c 1.45759,0 2.63853,-1.18093 2.63853,-2.63706 0,-1.45761 -1.18094,-2.63854 -2.63853,-2.63854"
       style="fill:#ffffff;fill-opacity:1;fill-rule:nonzero;stroke:none;stroke-width:0.145614"
       id="path194" /><path
       d="m 328.75045,306.29465 h 128.12879 c 0.40191,0 0.72808,0.32618 0.72808,0.72808 0,0.40189 -0.32617,0.72807 -0.72808,0.72807 H 328.75045 c -0.40189,0 -0.72807,-0.32618 -0.72807,-0.72807 0,-0.4019 0.32618,-0.72808 0.72807,-0.72808"
       style="fill:#cfd0d1;fill-opacity:1;fill-rule:nonzero;stroke:none;stroke-width:0.145614"
       id="path196" /><path
       d="m 265.38064,392.16768 -2.18276,2.39099 -7.22246,-6.59778 2.18275,-2.38807 c 0.92028,-1.00765 2.48272,-1.079 3.49037,-0.15872 l 3.57337,3.26321 c 1.00765,0.92029 1.079,2.48418 0.15873,3.49037"
       style="fill:#facc00;fill-opacity:1;fill-rule:nonzero;stroke:none;stroke-width:0.145614"
       id="path198" /><path
       d="m 252.78647,407.62899 -0.53732,-0.49071 10.28181,-11.25743 c 0.12378,-0.13542 0.18202,-0.29997 0.18202,-0.47034 0,-0.19221 -0.0743,-0.37714 -0.22716,-0.51693 l -7.1045,-6.48857 c -0.13543,-0.12377 -0.30143,-0.18201 -0.47034,-0.18347 -0.19221,10e-4 -0.37714,0.0757 -0.51693,0.22862 l -10.28182,11.25597 c -0.12377,0.13687 -0.18201,0.29996 -0.18201,0.47033 0,0.19221 0.0743,0.37715 0.22715,0.51693 l 7.10452,6.48857 c 0.13542,0.12377 0.29996,0.18201 0.47033,0.18347 0.19222,-10e-4 0.37714,-0.0757 0.51693,-0.22715 l 0.53732,0.49071 0.53731,0.49218 c -0.42373,0.46306 -1.0091,0.70186 -1.59156,0.70041 -0.51693,0 -1.04114,-0.18785 -1.45323,-0.56353 l -7.10451,-6.49003 c -0.46306,-0.42373 -0.70186,-1.0091 -0.70041,-1.59156 -0.001,-0.51693 0.18784,-1.04114 0.56353,-1.45323 l 10.28181,-11.25597 c 0.42228,-0.46305 1.00911,-0.70186 1.59157,-0.70186 0.51547,0 1.04114,0.18784 1.45177,0.56353 l 7.10597,6.49002 c 0.46305,0.42374 0.70187,1.01056 0.7004,1.59156 10e-4,0.51693 -0.18638,1.0426 -0.56352,1.45323 l -10.28036,11.25598 -0.53877,-0.49073"
       style="fill:#cfd0d1;fill-opacity:1;fill-rule:nonzero;stroke:none;stroke-width:0.145614"
       id="path200" /><path
       d="m 232.8315,336.27078 h -12.91743 v 11.79475 h 12.91743 v -11.79475"
       style="fill:#248fb9;fill-opacity:1;fill-rule:nonzero;stroke:none;stroke-width:0.145614"
       id="path202" /><path
       d="m 219.18601,355.65494 v -6.86134 h -6.99822 c -0.40336,0 -0.72807,-0.32618 -0.72807,-0.72807 0,-0.4019 0.32471,-0.72807 0.72807,-0.72807 h 7.72628 c 0.19221,0 0.38005,0.0772 0.51548,0.21259 0.13542,0.13542 0.21259,0.32326 0.21259,0.51548 v 7.58941 c 0,0.40189 -0.32618,0.72806 -0.72807,0.72806 -0.40189,0 -0.72806,-0.32617 -0.72806,-0.72806"
       style="fill:#cfd0d1;fill-opacity:1;fill-rule:nonzero;stroke:none;stroke-width:0.145614"
       id="path204" /><path
       d="m 658.38884,469.46258 h -12.91889 v 11.7962 h 12.91889 v -11.7962"
       style="fill:#facc00;fill-opacity:1;fill-rule:nonzero;stroke:none;stroke-width:0.145614"
       id="path206" /><path
       d="m 644.74187,488.84819 v -6.86133 h -6.99675 c -0.40336,0 -0.72807,-0.32618 -0.72807,-0.72808 0,-0.40334 0.32471,-0.72807 0.72807,-0.72807 h 7.72483 c 0.19221,0 0.38005,0.0772 0.51547,0.2126 0.13542,0.13542 0.2126,0.32326 0.2126,0.51547 v 7.58941 c 0,0.4019 -0.32618,0.72807 -0.72807,0.72807 -0.4019,0 -0.72808,-0.32617 -0.72808,-0.72807"
       style="fill:#cfd0d1;fill-opacity:1;fill-rule:nonzero;stroke:none;stroke-width:0.145614"
       id="path208" /><path
       d="m 296.14745,409.02689 c -24.39766,10.1129 -47.78911,14.85993 -68.24352,14.85993 -20.98301,0 -38.88772,-4.99457 -51.58964,-14.37649 -12.70629,-9.3761 -20.15882,-23.18906 -20.14863,-40.55791 0.006,-20.77622 10.57595,-46.59216 35.1731,-76.34549 24.6015,-29.75334 63.25624,-63.45719 119.5594,-99.97284 20.08747,-13.01063 50.60237,-17.50719 50.64896,-17.52322 0.39753,-0.0597 0.76739,0.21551 0.8271,0.61304 0.0583,0.39752 -0.21551,0.76884 -0.6145,0.82708 -0.001,0 -0.46596,0.0699 -1.33237,0.21698 -6.06191,1.02803 -31.53129,5.91776 -48.73705,17.08781 -56.21579,36.45742 -94.76132,70.08409 -119.23032,99.67871 -24.47336,29.59608 -34.844,55.14845 -34.83818,75.41793 0.0102,16.94949 7.19334,30.23823 19.55744,39.38717 12.36701,9.14166 29.96739,14.09253 50.72469,14.09253 20.22871,0 43.44397,-4.70188 67.68581,-14.75071 0.37132,-0.15435 0.79651,0.0218 0.95086,0.39316 0.15436,0.37132 -0.0218,0.79797 -0.39315,0.95232"
       style="fill:#cfd0d1;fill-opacity:1;fill-rule:nonzero;stroke:none;stroke-width:0.145614"
       id="path240" /><path
       d="m 176.52397,404.62061 c 0,-2.1085 -1.70951,-3.81801 -3.818,-3.81801 -2.10849,0 -3.81946,1.70951 -3.81946,3.81801 0,2.10848 1.71097,3.81945 3.81946,3.81945 2.10849,0 3.818,-1.71097 3.818,-3.81945"
       style="fill:#cfd0d1;fill-opacity:1;fill-rule:nonzero;stroke:none;stroke-width:0.145614"
       id="path242" /><path
       d="m 148.40588,425.57885 0.50528,-0.52421 3.78451,3.63307 8.88975,-5.0863 4.25484,-13.12275 -12.99606,5.43869 -3.75684,9.91924 -0.68148,-0.25774 0.50528,-0.52421 -0.50528,0.52421 -0.68002,-0.25774 3.86752,-10.21337 c 0.0713,-0.18639 0.2155,-0.33637 0.40043,-0.41355 l 14.74635,-6.17113 c 0.26356,-0.11066 0.56352,-0.0568 0.77467,0.13543 0.20968,0.19366 0.28686,0.48926 0.19949,0.7601 l -4.83002,14.89924 c -0.0553,0.17183 -0.17474,0.31889 -0.33055,0.40772 l -9.60762,5.49694 c -0.27958,0.16017 -0.63196,0.11794 -0.86495,-0.1063 l -4.17912,-4.01168 c -0.21114,-0.2024 -0.27958,-0.50965 -0.1762,-0.7834 l 0.68002,0.25774"
       style="fill:#cfd0d1;fill-opacity:1;fill-rule:nonzero;stroke:none;stroke-width:0.145614"
       id="path244" /><path
       d="m 152.58501,429.59051 -0.50383,0.52568 -3.61268,-3.46708 -1.411,1.71243 2.99237,2.86859 2.00365,-2.13761 0.53149,0.49799 -0.50383,0.52568 0.50383,-0.52568 0.53149,0.49801 -2.50748,2.67493 c -0.13251,0.14124 -0.31744,0.22425 -0.5111,0.23007 -0.19512,0.004 -0.38297,-0.0684 -0.52421,-0.2024 l -4.01167,-3.84568 c -0.27521,-0.26209 -0.29997,-0.69457 -0.0582,-0.98871 l 2.34002,-2.84094 c 0.12959,-0.15581 0.31743,-0.25191 0.51984,-0.26356 0.2024,-0.0116 0.40044,0.0612 0.54751,0.20241 l 4.17767,4.01021 c 0.28686,0.27667 0.29851,0.73389 0.0277,1.02367 l -0.5315,-0.49801"
       style="fill:#cfd0d1;fill-opacity:1;fill-rule:nonzero;stroke:none;stroke-width:0.145614"
       id="path246" /><path
       d="m 167.55997,409.68506 -9.59015,10.53519 c -0.27084,0.29705 -0.73098,0.3189 -1.02804,0.048 -0.29705,-0.26939 -0.31889,-0.73098 -0.048,-1.02804 l 9.58869,-10.53518 c 0.27084,-0.29705 0.73098,-0.31889 1.02949,-0.048 0.29705,0.26938 0.31889,0.73098 0.0481,1.02803"
       style="fill:#cfd0d1;fill-opacity:1;fill-rule:nonzero;stroke:none;stroke-width:0.145614"
       id="path248" /><path
       d="m 488.2824,7.4538139 0.18784,-0.7036081 43.33768,11.6013702 1.19112,-3.384364 -43.01296,-11.1639444 -0.99892,3.8337292 -0.70476,-0.1831829 0.18784,-0.7036081 -0.18784,0.7036081 -0.70478,-0.1836195 1.18385,-4.5385019 c 0.10048,-0.3890806 0.49799,-0.6217717 0.88679,-0.5199875 l 44.48366,11.5456 c 0.19658,0.05125 0.36403,0.183764 0.46014,0.362433 0.0946,0.179105 0.11066,0.393595 0.0437,0.584058 l -1.67748,4.767258 c -0.12667,0.358357 -0.50819,0.55916 -0.87514,0.461889 L 488.09453,8.1569843 C 487.70719,8.0534537 487.47712,7.6563629 487.5776,7.2701944 l 0.70478,0.1836195"
       style="fill:#cfd0d1;fill-opacity:1;fill-rule:nonzero;stroke:none;stroke-width:0.145614"
       id="path260" /><path
       d="m 481.48512,13.384823 1.26977,-3.9930305 c 0.12231,-0.3845673 0.53148,-0.5955621 0.91444,-0.4732462 0.38297,0.1211513 0.59556,0.5312001 0.47325,0.9146028 l -1.26975,3.9924479 c -0.12232,0.383403 -0.53149,0.595562 -0.91446,0.473246 -0.38296,-0.122316 -0.59556,-0.5312 -0.47325,-0.91402"
       style="fill:#2a1e17;fill-opacity:1;fill-rule:nonzero;stroke:none;stroke-width:0.145614"
       id="path262" /><path
       d="m 481.17642,10.312074 3.71171,1.274123 c 0.38005,0.130907 0.58245,0.544452 0.45286,0.926106 -0.13105,0.379908 -0.5446,0.582457 -0.92611,0.45155 l -3.71025,-1.274124 c -0.3815,-0.129596 -0.5839,-0.544888 -0.45285,-0.924795 0.13105,-0.380053 0.54459,-0.582457 0.92464,-0.45286"
       style="fill:#cfd0d1;fill-opacity:1;fill-rule:nonzero;stroke:none;stroke-width:0.145614"
       id="path264" /><path
       d="m 479.35042,-1.8670926 2.3939,-7.5327652 c 0.12086,-0.3844211 0.53003,-0.5955621 0.91445,-0.4744108 0.38297,0.1223159 0.59411,0.5313453 0.47325,0.9141652 l -2.39389,7.5343675 c -0.12086,0.3828188 -0.53149,0.59556099 -0.91446,0.4732451 -0.38297,-0.1211502 -0.59411,-0.5301807 -0.47325,-0.9146018"
       style="fill:#cfd0d1;fill-opacity:1;fill-rule:nonzero;stroke:none;stroke-width:0.145614"
       id="path266" /><path
       d="m 478.22628,-7.1166279 6.60942,2.1000471 c 0.38297,0.1223159 0.59556,0.5312001 0.47325,0.9146018 -0.12232,0.3828198 -0.53149,0.5955621 -0.91445,0.4732462 l -6.60943,-2.1000471 c -0.38296,-0.1223159 -0.59556,-0.5312001 -0.47325,-0.9146028 0.12086,-0.3828188 0.53149,-0.595561 0.91446,-0.4732452"
       style="fill:#cfd0d1;fill-opacity:1;fill-rule:nonzero;stroke:none;stroke-width:0.145614"
       id="path268" /><path
       d="m 469.29722,10.569811 3.12196,-9.97573405 c 0.11941,-0.38456626 0.52858,-0.59730848 0.91155,-0.47775947 0.38443,0.12056845 0.59847,0.52843327 0.47762,0.91285432 l -3.12051,9.9763162 c -0.12086,0.383984 -0.52858,0.596727 -0.913,0.477178 -0.38296,-0.119404 -0.59702,-0.528434 -0.47762,-0.912855"
       style="fill:#2a1e17;fill-opacity:1;fill-rule:nonzero;stroke:none;stroke-width:0.145614"
       id="path270" /><path
       d="m 467.11155,3.8817533 9.26252,2.956113 c 0.38297,0.1223159 0.5941,0.5312002 0.47179,0.9146018 -0.12232,0.3839845 -0.53149,0.5955621 -0.91446,0.4726634 l -9.26251,-2.9555302 c -0.38443,-0.1221697 -0.59556,-0.5329476 -0.47325,-0.9163493 0.12232,-0.3826736 0.53149,-0.5938146 0.91591,-0.4714987"
       style="fill:#cfd0d1;fill-opacity:1;fill-rule:nonzero;stroke:none;stroke-width:0.145614"
       id="path272" /><path
       d="m 167.54977,485.30249 0.20095,0.44557 -27.42351,12.38012 0.81835,2.26139 27.06967,-12.46748 -1.10958,-2.41574 0.44412,-0.20386 0.20095,0.44557 -0.20095,-0.44557 0.44413,-0.20386 1.31198,2.85841 c 0.11358,0.24608 0.006,0.5344 -0.23881,0.64797 l -27.99577,12.89414 -0.39316,0.007 -0.27084,-0.2854 -1.15327,-3.18604 c -0.0859,-0.24027 0.0262,-0.50674 0.2592,-0.61158 l 27.8356,-12.56504 c 0.24463,-0.11067 0.53294,-0.003 0.64507,0.24026 l -0.44413,0.20386"
       style="fill:#cfd0d1;fill-opacity:1;fill-rule:nonzero;stroke:none;stroke-width:0.145614"
       id="path274" /><path
       d="m 168.56034,479.33814 1.03677,2.61231 c 0.099,0.25046 -0.0233,0.5344 -0.27376,0.63342 -0.25045,0.10048 -0.5344,-0.0218 -0.63342,-0.27375 l -1.03823,-2.61232 c -0.099,-0.25046 0.0233,-0.53441 0.27376,-0.63343 0.25045,-0.099 0.5344,0.0233 0.63488,0.27377"
       style="fill:#2a1e17;fill-opacity:1;fill-rule:nonzero;stroke:none;stroke-width:0.145614"
       id="path276" /><path
       d="m 170.02521,480.80155 -2.46816,0.91446 c -0.25337,0.0932 -0.5344,-0.035 -0.62759,-0.28831 -0.0932,-0.25338 0.0349,-0.53441 0.28831,-0.6276 l 2.46816,-0.91446 c 0.25191,-0.0932 0.53295,0.035 0.6276,0.28832 0.0932,0.25337 -0.0364,0.5344 -0.28832,0.62759"
       style="fill:#cfd0d1;fill-opacity:1;fill-rule:nonzero;stroke:none;stroke-width:0.145614"
       id="path278" /><path
       d="m 176.14392,486.348 1.95705,4.92904 c 0.099,0.25046 -0.0233,0.5344 -0.27375,0.63342 -0.25046,0.099 -0.5344,-0.0233 -0.63342,-0.27376 l -1.95706,-4.92757 c -0.099,-0.25046 0.0233,-0.53441 0.27376,-0.63489 0.25045,-0.099 0.5344,0.0233 0.63342,0.27376"
       style="fill:#2a1e17;fill-opacity:1;fill-rule:nonzero;stroke:none;stroke-width:0.145614"
       id="path280" /><path
       d="m 178.95718,488.59773 -4.32182,1.71534 c -0.25046,0.10048 -0.53441,-0.0218 -0.63488,-0.2723 -0.099,-0.25191 0.0233,-0.53586 0.27375,-0.63488 l 4.32183,-1.71679 c 0.25191,-0.099 0.53441,0.0233 0.63488,0.27376 0.099,0.25046 -0.0233,0.5344 -0.27376,0.63487"
       style="fill:#cfd0d1;fill-opacity:1;fill-rule:nonzero;stroke:none;stroke-width:0.145614"
       id="path282" /><path
       d="m 176.08276,475.62352 2.61523,6.50604 c 0.10047,0.249 -0.0204,0.5344 -0.27084,0.63487 -0.25046,0.10049 -0.5344,-0.0204 -0.63488,-0.27083 l -2.61668,-6.50604 c -0.10047,-0.25046 0.0218,-0.53441 0.27084,-0.63489 0.25045,-0.10048 0.53586,0.0204 0.63633,0.27085"
       style="fill:#2a1e17;fill-opacity:1;fill-rule:nonzero;stroke:none;stroke-width:0.145614"
       id="path284" /><path
       d="m 180.05803,478.16739 -6.06483,2.39827 c -0.25046,0.099 -0.5344,-0.0233 -0.63342,-0.27375 -0.099,-0.25046 0.0233,-0.53441 0.27521,-0.63342 l 6.06483,-2.39827 c 0.25045,-0.099 0.5344,0.0233 0.63342,0.27376 0.099,0.25045 -0.0233,0.53439 -0.27521,0.63341"
       style="fill:#cfd0d1;fill-opacity:1;fill-rule:nonzero;stroke:none;stroke-width:0.145614"
       id="path286" /><path
       d="m 271.57506,250.22011 c -19.6215,14.12748 -38.89936,36.08027 -30.44355,58.63007 0,0 13.52901,9.01935 34.95176,-2.25556 21.42276,-11.2749 21.42276,-11.2749 21.42276,-11.2749 l -25.93097,-45.09961"
       style="fill:#facc00;fill-opacity:1;fill-rule:nonzero;stroke:none;stroke-width:0.145614"
       id="path288" /><path
       d="m 262.67949,156.1126 c -8.82858,4.1733 -46.52372,23.79627 -53.22925,57.32975 -5.79544,28.9743 16.35975,68.03238 27.45992,85.28911 -0.71351,-22.90657 22.29061,-42.29217 33.38932,-50.28348 11.23995,-8.09323 19.50792,-12.05248 30.91534,-16.33499 L 262.67949,156.1126"
       style="fill:#facc00;fill-opacity:1;fill-rule:nonzero;stroke:none;stroke-width:0.145614"
       id="path290" /><path
       d="m 241.13151,308.85018 c 0,0 -41.71554,-56.37451 -33.82325,-95.83594 7.89229,-39.46143 56.37451,-59.75568 56.37451,-59.75568 l 40.58849,80.04992 c -12.68445,4.65237 -20.92475,8.43688 -32.6962,16.91163 -19.6215,14.12748 -38.89936,36.08027 -30.44355,58.63007 z m -5.90902,-16.93201 c 2.40554,-15.22395 14.02556,-31.00562 33.79995,-45.24231 10.67789,-7.68697 18.7056,-11.70446 29.14613,-15.74089 l -36.46906,-71.92465 c -11.11036,5.52897 -43.98857,24.25931 -50.10874,54.86159 -5.08776,25.43733 12.1617,59.17904 23.63172,78.04626"
       style="fill:#fad8b0;fill-opacity:1;fill-rule:nonzero;stroke:none;stroke-width:0.145614"
       id="path292" /><path
       d="m 229.43724,276.01274 c 0.007,-0.0568 0.62468,-5.79399 4.11214,-13.07761 3.48455,-7.27925 9.85662,-16.11511 21.34121,-22.2644 0.35384,-0.19076 0.79505,-0.0568 0.98581,0.29705 0.1893,0.3553 0.0568,0.79652 -0.29851,0.98581 -11.16132,5.98038 -17.32518,14.53521 -20.71507,21.61059 -1.69495,3.53698 -2.69095,6.70117 -3.26176,8.97566 -0.28685,1.13579 -0.46596,2.05025 -0.57371,2.67639 -0.0539,0.31307 -0.0902,0.55479 -0.11213,0.71642 -0.0218,0.16163 -0.0291,0.23444 -0.0306,0.23444 -0.0422,0.40044 -0.40044,0.69022 -0.80088,0.64652 -0.40043,-0.0422 -0.68875,-0.40189 -0.64652,-0.80087"
       style="fill:#cfd0d1;fill-opacity:1;fill-rule:nonzero;stroke:none;stroke-width:0.145614"
       id="path294" /><path
       d="m 267.02316,232.58187 22.64591,-12.13112 c 0.35384,-0.19076 0.79506,-0.0568 0.98581,0.29705 0.1893,0.3553 0.0554,0.79652 -0.29851,0.98581 l -22.64591,12.13112 c -0.35384,0.19075 -0.79505,0.0568 -0.98581,-0.29706 -0.18929,-0.35529 -0.0554,-0.79651 0.29851,-0.9858"
       style="fill:#cfd0d1;fill-opacity:1;fill-rule:nonzero;stroke:none;stroke-width:0.145614"
       id="path296" /><path
       d="m 232.73249,243.43886 c 0.0437,-0.10048 7.4336,-16.44567 31.10026,-27.05511 0.36696,-0.16454 0.79797,0 0.96252,0.36695 0.16454,0.36694 0,0.79796 -0.36696,0.96105 -11.62583,5.21299 -19.22251,11.81659 -23.91566,17.10675 -2.34585,2.64581 -3.96507,4.96399 -4.99457,6.61379 -0.51547,0.82417 -0.88242,1.48235 -1.11977,1.93085 -0.11795,0.22424 -0.20386,0.39606 -0.26064,0.50964 l -0.0598,0.12669 -0.0174,0.0378 c -0.16454,0.36549 -0.59557,0.53003 -0.96251,0.36403 -0.36695,-0.16454 -0.53004,-0.59556 -0.36549,-0.96251"
       style="fill:#cfd0d1;fill-opacity:1;fill-rule:nonzero;stroke:none;stroke-width:0.145614"
       id="path298" /><path
       d="m 214.06766,241.27794 c 0.003,-0.0407 0.20677,-4.3393 1.85513,-9.39212 1.64835,-5.04261 4.7514,-10.89921 10.67788,-13.87265 0.35968,-0.17911 0.79652,-0.0335 0.97708,0.32618 0.1791,0.35966 0.0335,0.7965 -0.32618,0.97706 -5.39645,2.6895 -8.35825,8.15586 -9.94399,13.02083 -0.7936,2.42738 -1.24063,4.69023 -1.48963,6.34003 -0.12377,0.82564 -0.19804,1.49838 -0.24172,1.96142 -0.0204,0.23153 -0.035,0.41064 -0.0437,0.5315 l -0.0104,0.17619 c -0.0189,0.40189 -0.35966,0.71206 -0.76156,0.69312 -0.4019,-0.0189 -0.71205,-0.36112 -0.69312,-0.76156"
       style="fill:#cfd0d1;fill-opacity:1;fill-rule:nonzero;stroke:none;stroke-width:0.145614"
       id="path300" /><path
       d="m 239.95058,300.42349 c -0.001,-0.0233 -0.0292,-0.32326 -0.0292,-0.88096 -0.0104,-4.3859 1.7634,-24.64083 31.17891,-49.8743 0.30578,-0.26211 0.76447,-0.22716 1.02658,0.0787 0.26211,0.30434 0.22716,0.76448 -0.0786,1.02658 -29.13301,25.01942 -30.66051,44.77052 -30.6707,48.76909 0,0.25483 0.006,0.44557 0.0117,0.56935 l 0.008,0.13688 0.003,0.035 c 0.0379,0.40044 -0.25482,0.75573 -0.65526,0.7936 -0.40044,0.0393 -0.75574,-0.25338 -0.79506,-0.65382"
       style="fill:#cfd0d1;fill-opacity:1;fill-rule:nonzero;stroke:none;stroke-width:0.145614"
       id="path302" /><path
       d="m 252.86364,295.58328 0.0174,10e-4 c 0.048,0.001 0.18494,0.008 0.40918,0.008 2.08956,-0.003 11.64476,-0.57081 24.967,-10.38375 0.32327,-0.2388 0.77903,-0.17037 1.01785,0.15436 0.2388,0.32326 0.1689,0.77904 -0.15436,1.01784 -13.56833,10.00078 -23.47299,10.67061 -25.83049,10.66769 -0.33637,0 -0.51984,-0.013 -0.53732,-0.0145 -0.40189,-0.0306 -0.70186,-0.38151 -0.67128,-0.78195 0.0321,-0.40044 0.38152,-0.70041 0.78341,-0.66982"
       style="fill:#cfd0d1;fill-opacity:1;fill-rule:nonzero;stroke:none;stroke-width:0.145614"
       id="path304" /><path
       d="m 202.63696,226.71362 c -0.0553,-0.88825 -0.0976,-1.96288 -0.0976,-3.20205 -10e-4,-7.04482 1.35858,-19.40746 9.3062,-32.90444 7.94471,-13.49843 22.47264,-28.10207 48.68754,-39.64636 0.36841,-0.16163 0.79797,0.004 0.95959,0.37277 0.16309,0.36841 -0.004,0.79797 -0.37276,0.9596 -25.98338,11.44819 -40.23464,25.83341 -48.01918,39.05225 -7.78453,13.22032 -9.10525,25.30483 -9.10525,32.16618 0,1.20568 0.0408,2.24973 0.0947,3.11031 0.0248,0.40189 -0.27958,0.74699 -0.68147,0.77321 -0.40044,0.0248 -0.747,-0.28103 -0.77176,-0.68147"
       style="fill:#cfd0d1;fill-opacity:1;fill-rule:nonzero;stroke:none;stroke-width:0.145614"
       id="path306" /><path
       d="m 565.98647,248.48147 -24.08749,-48.27399 c 0,0 16.3379,-6.01241 3.56463,-24.73985 0,0 30.19746,-12.52281 49.95584,20.00156 19.75839,32.52583 -29.43298,53.01228 -29.43298,53.01228"
       style="fill:#8fc6db;fill-opacity:1;fill-rule:nonzero;stroke:none;stroke-width:0.145614"
       id="path308" /><path
       d="m 510.85696,100.95105 c -12.18936,0 -25.05291,4.97709 -38.26158,14.80022 l 45.06176,74.64472 26.80028,-16.87522 0.17037,-0.0713 c 0.249,-0.1034 6.2148,-2.53514 14.63568,-2.5366 h 10e-4 c 6.77106,0 15.31424,1.58137 23.63755,7.47 L 549.9641,122.03312 c -0.0757,-0.10922 -14.25708,-21.08057 -39.10469,-21.08202 h -0.003"
       style="fill:#ffffff;fill-opacity:1;fill-rule:nonzero;stroke:none;stroke-width:0.145614"
       id="path310" /><path
       d="m 595.41945,195.46919 c -11.16424,-18.37505 -25.6572,-22.3707 -36.15598,-22.3707 -8.08305,0 -13.79986,2.36914 -13.79986,2.36914 l -28.52581,17.96296 -47.22849,-78.2341 c 15.81515,-12.19083 29.60918,-16.429649 41.15055,-16.429649 26.38528,0 40.99039,22.163929 40.99039,22.163929 z m -77.04299,-8.10634 24.76024,-15.59236 0.31306,-0.19658 0.3422,-0.14271 c 0.26647,-0.1092 6.62107,-2.70113 15.47151,-2.70113 5.16639,0 11.30984,0.86785 17.62658,3.69568 l -28.73986,-49.16807 c -0.93921,-1.36586 -14.28183,-20.12242 -37.29033,-20.12242 -11.22248,0 -23.10314,4.43833 -35.35948,13.20138 l 42.87608,71.02621"
       style="fill:#8fc6db;fill-opacity:1;fill-rule:nonzero;stroke:none;stroke-width:0.145614"
       id="path312" /><path
       d="m 541.65726,199.52018 0.0845,-0.0306 c 0.45285,-0.17328 2.64872,-1.08046 4.68294,-2.87733 2.0386,-1.80562 3.89955,-4.43395 3.90246,-8.18061 10e-4,-3.20787 -1.37896,-7.33167 -5.43577,-12.51553 -0.24755,-0.31744 -0.19221,-0.77466 0.12377,-1.02221 0.31744,-0.24755 0.77466,-0.19221 1.02221,0.12377 4.1835,5.34404 5.74448,9.77508 5.74594,13.41397 0.003,4.55045 -2.45651,7.70591 -4.84459,9.65422 -2.39389,1.95997 -4.74993,2.78997 -4.79652,2.80744 -0.38006,0.13397 -0.79506,-0.064 -0.92902,-0.44412 -0.13397,-0.3786 0.064,-0.79505 0.44412,-0.92901"
       style="fill:#cfd0d1;fill-opacity:1;fill-rule:nonzero;stroke:none;stroke-width:0.145614"
       id="path314" /><path
       d="m 515.88646,194.57075 c 0.0131,-0.0117 6.1056,-5.59304 13.91926,-11.18754 3.90683,-2.79725 8.24467,-5.59886 12.48495,-7.71318 4.24175,-2.10994 8.37865,-3.54861 11.96949,-3.55589 l 0.14416,0.001 c 6.8293,0.0772 14.27892,0.92465 21.24073,3.82092 6.96036,2.89335 13.42272,7.8588 18.18575,16.07871 0.20241,0.34802 0.083,0.7936 -0.26356,0.99455 -0.34801,0.20241 -0.79359,0.0844 -0.996,-0.26357 -4.60869,-7.94033 -10.77399,-12.66696 -17.4868,-15.46567 -6.7099,-2.79434 -13.97459,-3.63453 -20.69468,-3.70879 l -0.1296,-0.001 c -3.19478,-0.006 -7.18751,1.33819 -11.32004,3.40301 -6.20608,3.09137 -12.73979,7.76559 -17.70522,11.66223 -2.48419,1.94831 -4.57811,3.70296 -6.04882,4.96981 -0.73535,0.63342 -1.31634,1.14307 -1.71097,1.49545 -0.39606,0.35239 -0.60429,0.54315 -0.60429,0.5446 -0.29706,0.27084 -0.7572,0.25046 -1.0295,-0.0451 -0.27084,-0.29705 -0.25045,-0.75719 0.0451,-1.02949"
       style="fill:#cfd0d1;fill-opacity:1;fill-rule:nonzero;stroke:none;stroke-width:0.145614"
       id="path316" /><path
       d="m 518.89631,165.56587 c 0.0627,-0.0365 12.60145,-11.23413 28.42097,-11.25888 2.5395,0 5.16202,0.29268 7.82385,0.97124 0.38879,0.099 0.62468,0.49655 0.52421,0.88533 -0.099,0.39025 -0.49509,0.62468 -0.88534,0.52567 -2.53659,-0.64653 -5.03533,-0.92611 -7.46272,-0.92611 -7.55737,-10e-4 -14.43473,2.71425 -19.4191,5.44888 -2.49,1.36441 -4.50676,2.73173 -5.89592,3.75394 -0.69458,0.5111 -1.23335,0.9363 -1.59593,1.23189 -0.18056,0.14853 -0.3189,0.26357 -0.40917,0.3422 l -0.13397,0.11503 c -0.29997,0.26647 -0.76011,0.23881 -1.02658,-0.0611 -0.26793,-0.30143 -0.24026,-0.76157 0.0597,-1.02804"
       style="fill:#cfd0d1;fill-opacity:1;fill-rule:nonzero;stroke:none;stroke-width:0.145614"
       id="path318" /><path
       d="m 536.58698,143.23739 c 0.0713,-0.051 4.26357,-3.18603 10.96328,-3.1904 3.16419,0 6.87881,0.70915 10.93271,2.76522 0.35967,0.18201 0.50237,0.6203 0.32035,0.97853 -0.18202,0.35821 -0.62031,0.50236 -0.97852,0.32034 -3.85587,-1.95414 -7.32731,-2.60649 -10.27454,-2.60795 -3.11759,0 -5.65273,0.73389 -7.40739,1.46634 -0.8766,0.36549 -1.55661,0.73098 -2.01239,1.00182 -0.22861,0.13396 -0.40044,0.24609 -0.51402,0.32181 l -0.12377,0.0858 -0.0335,0.0233 c -0.32181,0.24171 -0.77758,0.17619 -1.0193,-0.14562 -0.24027,-0.32181 -0.17474,-0.77757 0.14707,-1.0193"
       style="fill:#cfd0d1;fill-opacity:1;fill-rule:nonzero;stroke:none;stroke-width:0.145614"
       id="path320" /><path
       d="m 495.96791,134.11321 c 0.0669,-0.0611 11.71029,-11.63894 31.32888,-11.64767 6.46527,0 13.7853,1.26393 21.80863,4.60869 0.37131,0.15435 0.54751,0.57954 0.39315,0.95086 -0.1558,0.37132 -0.58099,0.5475 -0.95231,0.39316 -7.85443,-3.27342 -14.97496,-4.49511 -21.24947,-4.49656 -9.51298,0 -17.0951,2.81471 -22.30518,5.63089 -2.60357,1.40663 -4.61159,2.81473 -5.96435,3.8646 -0.67711,0.52567 -1.18966,0.96251 -1.53041,1.26539 -0.17037,0.15143 -0.29851,0.26939 -0.3815,0.34802 l -0.12086,0.11503 c -0.28541,0.28394 -0.74555,0.28249 -1.0295,-0.003 -0.28248,-0.2854 -0.28248,-0.74554 0.003,-1.02949"
       style="fill:#cfd0d1;fill-opacity:1;fill-rule:nonzero;stroke:none;stroke-width:0.145614"
       id="path322" /><path
       d="m 507.12486,153.76093 c 0.007,-0.006 2.08956,-1.49545 4.83148,-3.22535 2.74774,-1.73281 6.13327,-3.70443 8.83587,-4.69169 0.37713,-0.13833 0.79505,0.0568 0.93338,0.43393 0.13688,0.3786 -0.0568,0.79651 -0.43539,0.93338 -2.49436,0.90718 -5.85514,2.84822 -8.55628,4.55482 -1.35276,0.85475 -2.54534,1.6498 -3.39864,2.23227 -0.85329,0.58245 -1.36294,0.94648 -1.36439,0.94648 -0.32618,0.23445 -0.78196,0.15872 -1.01494,-0.16891 -0.23444,-0.32617 -0.15871,-0.78195 0.16891,-1.01493"
       style="fill:#cfd0d1;fill-opacity:1;fill-rule:nonzero;stroke:none;stroke-width:0.145614"
       id="path324" /><path
       d="m 569.89766,233.77881 0.0393,-0.0145 c 0.48053,-0.16454 5.03097,-1.83182 9.70226,-6.35315 4.67131,-4.52713 9.4824,-11.88356 10.5483,-23.57492 0.0364,-0.40044 0.3917,-0.69603 0.79214,-0.65963 0.40044,0.0365 0.69458,0.39024 0.65818,0.79068 -1.12269,12.42816 -6.42741,20.26221 -11.45693,24.93788 -5.03097,4.68149 -9.76633,6.23519 -9.83187,6.25704 -0.3815,0.12523 -0.79213,-0.083 -0.91737,-0.46597 -0.12522,-0.38151 0.083,-0.79213 0.46597,-0.91737"
       style="fill:#cfd0d1;fill-opacity:1;fill-rule:nonzero;stroke:none;stroke-width:0.145614"
       id="path326" /><path
       d="m 578.84274,203.80269 0.0204,-0.0321 c 0.23735,-0.38006 2.37787,-4.01749 2.37351,-9.12272 -0.008,-4.60433 -1.69204,-10.42161 -8.17332,-16.36704 -0.29706,-0.27229 -0.31745,-0.73243 -0.0451,-1.02949 0.27084,-0.29559 0.73099,-0.31598 1.02804,-0.0451 6.75359,6.17113 8.65677,12.47186 8.64657,17.44167 -0.004,5.88426 -2.58756,9.877 -2.62688,9.94398 -0.21842,0.33783 -0.66837,0.43539 -1.00619,0.21696 -0.33783,-0.21841 -0.43539,-0.66836 -0.21697,-1.00618"
       style="fill:#cfd0d1;fill-opacity:1;fill-rule:nonzero;stroke:none;stroke-width:0.145614"
       id="path328" /><path
       d="m 470.95577,110.95182 c 0.0626,-0.0335 18.68957,-16.049578 41.23938,-16.074333 13.18681,-0.01452 27.6929,5.574103 40.27542,22.960443 0.23589,0.32617 0.16308,0.78049 -0.16309,1.01638 -0.32472,0.2359 -0.7805,0.16308 -1.01639,-0.16163 -12.38448,-17.06307 -26.32267,-22.344499 -39.09594,-22.359059 -10.92398,-0.0031 -21.01358,3.921389 -28.36418,7.863169 -3.67384,1.97016 -6.6633,3.94032 -8.72957,5.41685 -1.03386,0.7368 -1.83619,1.35129 -2.37933,1.7794 -0.27085,0.21405 -0.47762,0.3815 -0.61595,0.49508 -0.13688,0.11359 -0.20241,0.16892 -0.20241,0.17038 -0.30578,0.26065 -0.76447,0.2257 -1.02658,-0.0801 -0.2621,-0.30579 -0.22569,-0.76448 0.0801,-1.02659"
       style="fill:#cfd0d1;fill-opacity:1;fill-rule:nonzero;stroke:none;stroke-width:0.145614"
       id="path330" /><path
       d="m 134.93657,262.82301 h 10.86864 c 0.4019,0 0.72807,0.32617 0.72807,0.72808 0,0.40189 -0.32617,0.72806 -0.72807,0.72806 h -10.86864 c -0.40189,0 -0.72807,-0.32617 -0.72807,-0.72806 0,-0.40191 0.32618,-0.72808 0.72807,-0.72808"
       style="fill:#facc00;fill-opacity:1;fill-rule:nonzero;stroke:none;stroke-width:0.145614"
       id="path332" /><path
       d="m 740.33028,393.535 h 10.86864 c 0.4019,0 0.72807,0.32618 0.72807,0.72807 0,0.40335 -0.32617,0.72807 -0.72807,0.72807 h -10.86864 c -0.40189,0 -0.72807,-0.32472 -0.72807,-0.72807 0,-0.40189 0.32618,-0.72807 0.72807,-0.72807"
       style="fill:#248fb9;fill-opacity:1;fill-rule:nonzero;stroke:none;stroke-width:0.145614"
       id="path334" /><path
       d="m 448.89085,468.09964 h 10.86703 v 1.45613 h -10.86703 z"
       style="fill:#fad8b0;fill-opacity:1;fill-rule:nonzero;stroke:none;stroke-width:0.145614"
       id="path336" /><path
       d="m 760.94924,337.17941 10.69681,-1.9221 0.25774,1.4343 -10.69681,1.92065"
       style="fill:#248fb9;fill-opacity:1;fill-rule:nonzero;stroke:none;stroke-width:0.145614"
       id="path338" /><path
       d="m 334.17749,65.998123 h 10.86719 c 0.40189,0 0.72806,0.325884 0.72806,0.72807 0,0.401604 -0.32617,0.728071 -0.72806,0.728071 h -10.86719 c -0.4019,0 -0.72807,-0.326467 -0.72807,-0.728071 0,-0.402186 0.32617,-0.72807 0.72807,-0.72807"
       style="fill:#a0c6f4;fill-opacity:1;fill-rule:nonzero;stroke:none;stroke-width:0.145614"
       id="path340" /><path
       d="m 788.09317,202.19948 c 0,-1.9891 -1.61194,-3.6025 -3.59958,-3.6025 -1.98909,0 -3.60249,1.6134 -3.60249,3.6025 0,1.98909 1.6134,3.60249 3.60249,3.60249 1.98764,0 3.59958,-1.6134 3.59958,-3.60249"
       style="fill:#248fb9;fill-opacity:1;fill-rule:nonzero;stroke:none;stroke-width:0.145614"
       id="path430" /><path
       d="m 111.88586,374.93279 c 0,-1.98763 -1.61195,-3.60103 -3.60104,-3.60103 -1.98909,0 -3.60104,1.6134 -3.60104,3.60103 0,1.99055 1.61195,3.60249 3.60104,3.60249 1.98909,0 3.60104,-1.61194 3.60104,-3.60249"
       style="fill:#facc00;fill-opacity:1;fill-rule:nonzero;stroke:none;stroke-width:0.145614"
       id="path432" /><path
       d="m 825.22187,-33.307807 c -2.01093,0.634731 -3.12634,2.78254 -2.48855,4.793326 0.63488,2.009475 2.78123,3.123278 4.79216,2.488546 2.00948,-0.637644 3.12488,-2.784434 2.48855,-4.793326 -0.63634,-2.011369 -2.78269,-3.126773 -4.79216,-2.488546"
       style="fill:#2a1e17;fill-opacity:1;fill-rule:nonzero;stroke:none;stroke-width:0.145614"
       id="path434" /></g></svg>
